SplineFontDB: 3.0
FontName: Rokkitt-ExtraLight
FullName: Rokkitt Extra-Light
FamilyName: Rokkitt
Weight: Extra-Light
Copyright: Digitized data Copyright (c) 2011-2014, vernon adams.
Version: 2
ItalicAngle: 0
UnderlinePosition: 0
UnderlineWidth: 0
Ascent: 1638
Descent: 410
sfntRevision: 0x00000000
UFOAscent: 1560
UFODescent: -556
LayerCount: 2
Layer: 0 0 "Back"  1
Layer: 1 0 "Fore"  0
FSType: 0
OS2Version: 0
OS2_WeightWidthSlopeOnly: 0
OS2_UseTypoMetrics: 1
CreationTime: 1391810959
ModificationTime: 1391811058
PfmFamily: 17
TTFWeight: 200
TTFWidth: 5
LineGap: 0
VLineGap: 0
OS2TypoAscent: 1846
OS2TypoAOffset: 0
OS2TypoDescent: -392
OS2TypoDOffset: 0
OS2TypoLinegap: 0
OS2WinAscent: 1846
OS2WinAOffset: 0
OS2WinDescent: 392
OS2WinDOffset: 0
HheadAscent: 1846
HheadAOffset: 0
HheadDescent: -392
HheadDOffset: 0
OS2Vendor: 'NeWT'
Lookup: 6 0 0 "loclLocalizedFormsinLatinlookup"  {"loclLocalizedFormsinLatinlookup contextual 0"  "loclLocalizedFormsinLatinlookup contextual 1"  } ['locl' ('latn' <'dflt' 'CAT ' > ) ]
Lookup: 4 0 0 "Ligature Substitution lookup 1"  {"Ligature Substitution lookup 1 subtable"  } []
Lookup: 4 0 0 "Ligature Substitution lookup 2"  {"Ligature Substitution lookup 2 subtable"  } []
Lookup: 1 0 0 "sub_single_locllatn_0"  {"sub_single_locllatn_0 subtable"  } ['locl' ('latn' <'dflt' 'ROM ' > ) ]
Lookup: 1 0 0 "sub_single_locllatn_2"  {"sub_single_locllatn_2 subtable"  } ['locl' ('latn' <'dflt' 'MOL ' > ) ]
Lookup: 1 0 0 "sub_single_locllatn_4"  {"sub_single_locllatn_4 subtable"  } ['locl' ('latn' <'dflt' 'KAZ ' > ) ]
Lookup: 1 0 0 "sub_single_locllatn_6"  {"sub_single_locllatn_6 subtable"  } ['locl' ('latn' <'dflt' 'TAT ' > ) ]
Lookup: 1 0 0 "sub_single_locllatn_8"  {"sub_single_locllatn_8 subtable"  } ['locl' ('latn' <'dflt' 'TRK ' > ) ]
Lookup: 1 0 0 "sub_single_locllatn_10"  {"sub_single_locllatn_10 subtable"  } ['locl' ('latn' <'dflt' 'CRT ' > ) ]

StartChar: A
Encoding: 65 65 0
Width: 1383
VWidth: 0
GlyphClass: 2
Flags: W
PickledData: "(dp1
S'org.robofab.postScriptHintData'
p2
(dp3
sS'com.typemytype.robofont.layerData'
p4
(dp5
S'b'
(dp6
S'name'
p7
S'A'
sS'lib'
p8
(dp9
sS'unicodes'
p10
(tsS'width'
p11
I1383
sS'contours'
p12
(tsS'components'
p13
(tsS'anchors'
p14
(tsss."
AnchorPoint: "top" 692 1152 basechar 0
LayerCount: 2
Fore
SplineSet
477 525 m 257
 688 1101 l 257
 693 1101 l 257
 904 525 l 257
 477 525 l 257
87 0 m 257
 452 0 l 257
 452 45 l 257
 303 45 l 257
 464 482 l 257
 917 482 l 257
 1078 45 l 257
 929 45 l 257
 929 0 l 257
 1296 0 l 257
 1296 45 l 257
 1143 45 l 257
 747 1107 l 257
 896 1107 l 257
 896 1152 l 257
 491 1152 l 257
 491 1107 l 257
 636 1107 l 257
 241 45 l 257
 87 45 l 257
 87 0 l 257
EndSplineSet
Substitution2: "Single Substitution lookup 13 subtable" ordfeminine
EndChar

StartChar: AE
Encoding: 198 198 1
Width: 2206
VWidth: 0
GlyphClass: 2
Flags: W
PickledData: "(dp1
S'org.robofab.postScriptHintData'
p2
(dp3
sS'com.typemytype.robofont.layerData'
p4
(dp5
S'b'
(dp6
S'name'
p7
S'AE'
p8
sS'lib'
p9
(dp10
sS'unicodes'
p11
(tsS'width'
p12
I2243
sS'contours'
p13
(tsS'components'
p14
(tsS'anchors'
p15
(tsss."
AnchorPoint: "top" 1247 1152 basechar 0
LayerCount: 2
Fore
SplineSet
156 0 m 257
 550 0 l 257
 550 45 l 257
 403 45 l 257
 620 435 l 257
 1100 435 l 257
 1159 45 l 257
 997 45 l 257
 997 0 l 257
 2013 0 l 257
 1954 391 l 257
 1903 391 l 257
 1954 45 l 257
 1223 45 l 257
 1148 544 l 257
 1587 544 l 257
 1622 350 l 257
 1666 350 l 257
 1596 762 l 257
 1552 762 l 257
 1580 589 l 257
 1142 589 l 257
 1066 1107 l 257
 1744 1107 l 257
 1796 759 l 257
 1848 759 l 257
 1791 1152 l 257
 797 1152 l 257
 797 1107 l 257
 936 1107 l 257
 332 45 l 257
 156 45 l 257
 156 0 l 257
645 478 m 257
 994 1107 l 257
 1004 1107 l 257
 1096 478 l 257
 645 478 l 257
EndSplineSet
EndChar

StartChar: B
Encoding: 66 66 18
Width: 1297
VWidth: 0
GlyphClass: 2
Flags: W
PickledData: "(dp1
S'org.robofab.postScriptHintData'
p2
(dp3
sS'com.typemytype.robofont.layerData'
p4
(dp5
S'b'
(dp6
S'name'
p7
S'B'
sS'lib'
p8
(dp9
sS'unicodes'
p10
(tsS'width'
p11
I1354
sS'contours'
p12
((dp13
S'points'
p14
((dp15
S'segmentType'
p16
S'line'
p17
sS'x'
I353
sS'smooth'
p18
I0
sS'y'
I1095
s(dp19
g16
S'line'
p20
sS'x'
I740
sg18
I1
sS'y'
I1095
s(dp21
S'y'
I1095
sS'x'
I917
sg18
I0
s(dp22
S'y'
I983
sS'x'
I1004
sg18
I0
s(dp23
g16
S'curve'
p24
sS'x'
I1004
sg18
I1
sS'y'
I868
s(dp25
S'y'
I751
sS'x'
I1004
sg18
I0
s(dp26
S'y'
I634
sS'x'
I928
sg18
I0
s(dp27
g16
S'curve'
p28
sS'x'
I784
sg18
I1
sS'y'
I634
s(dp29
g16
S'line'
p30
sS'x'
I353
sg18
I0
sS'y'
I634
stp31
s(dp32
g14
((dp33
g16
S'line'
p34
sS'x'
I353
sg18
I0
sS'y'
I573
s(dp35
g16
S'line'
p36
sS'x'
I793
sg18
I1
sS'y'
I573
s(dp37
S'y'
I573
sS'x'
I979
sg18
I0
s(dp38
S'y'
I439
sS'x'
I1072
sg18
I0
s(dp39
g16
S'curve'
p40
sS'x'
I1072
sg18
I1
sS'y'
I320
s(dp41
S'y'
I187
sS'x'
I1072
sg18
I0
s(dp42
S'y'
I58
sS'x'
I985
sg18
I0
s(dp43
g16
S'curve'
p44
sS'x'
I807
sg18
I1
sS'y'
I58
s(dp45
g16
S'line'
p46
sS'x'
I353
sg18
I0
sS'y'
I58
stp47
s(dp48
g14
((dp49
g16
S'line'
p50
sS'x'
I807
sg18
I1
sS'y'
I0
s(dp51
S'y'
I0
sS'x'
I1031
sg18
I0
s(dp52
S'y'
I158
sS'x'
I1146
sg18
I0
s(dp53
g16
S'curve'
p54
sS'x'
I1146
sg18
I1
sS'y'
I316
s(dp55
S'y'
I439
sS'x'
I1146
sg18
I0
s(dp56
S'y'
I568
sS'x'
I1074
sg18
I0
s(dp57
g16
S'curve'
p58
sS'x'
I919
sg18
I0
sS'y'
I611
s(dp59
S'y'
I669
sS'x'
I1029
sg18
I0
s(dp60
S'y'
I769
sS'x'
I1079
sg18
I0
s(dp61
g16
S'curve'
p62
sS'x'
I1079
sg18
I1
sS'y'
I870
s(dp63
S'y'
I1012
sS'x'
I1079
sg18
I0
s(dp64
S'y'
I1154
sS'x'
I964
sg18
I0
s(dp65
g16
S'curve'
p66
sS'x'
I740
sg18
I1
sS'y'
I1154
s(dp67
g16
S'line'
p68
sS'x'
I122
sg18
I0
sS'y'
I1154
s(dp69
g16
S'line'
p70
sS'x'
I122
sg18
I0
sS'y'
I1095
s(dp71
g16
S'line'
p72
sS'x'
I278
sg18
I0
sS'y'
I1095
s(dp73
g16
S'line'
p74
sS'x'
I278
sg18
I0
sS'y'
I58
s(dp75
g16
S'line'
p76
sS'x'
I135
sg18
I0
sS'y'
I58
s(dp77
g16
S'line'
p78
sS'x'
I135
sg18
I0
sS'y'
I0
stp79
stp80
sS'components'
p81
(tsS'anchors'
p82
(tsss."
AnchorPoint: "top" 584 1152 basechar 0
LayerCount: 2
Fore
SplineSet
775 1152 m 258
 122 1152 l 257
 122 1107 l 257
 296 1107 l 257
 296 45 l 257
 122 45 l 257
 122 0 l 257
 868 0 l 258
 1064 0 1182 132 1182 316 c 256
 1182 445 1127 578 938 610 c 257
 1047 631 1112 733 1112 872 c 256
 1112 1059 993 1152 775 1152 c 258
358 1107 m 257
 768 1107 l 258
 955 1107 1055 1036 1055 871 c 256
 1055 732 992 629 832 629 c 258
 358 629 l 257
 358 1107 l 257
358 583 m 257
 835 583 l 258
 1034 583 1122 466 1122 317 c 256
 1122 153 1023 45 864 45 c 258
 358 45 l 257
 358 583 l 257
EndSplineSet
EndChar

StartChar: C
Encoding: 67 67 20
Width: 1404
VWidth: 0
GlyphClass: 2
Flags: W
PickledData: "(dp1
S'org.robofab.postScriptHintData'
p2
(dp3
sS'com.typemytype.robofont.layerData'
p4
(dp5
S'b'
(dp6
S'name'
p7
S'C'
sS'lib'
p8
(dp9
sS'unicodes'
p10
(tsS'width'
p11
I1411
sS'contours'
p12
(tsS'components'
p13
(tsS'anchors'
p14
(tsss."
AnchorPoint: "top" 721 1152 basechar 0
AnchorPoint: "bot" 717 0 basechar 0
LayerCount: 2
Fore
SplineSet
713 -22 m 256
 938 -22 1121 54 1242 255 c 257
 1202 283 l 257
 1090 87 896 26 715 26 c 256
 454 26 181 207 181 580 c 256
 181 864 373 1124 715 1124 c 256
 966 1124 1093 1024 1196 817 c 257
 1240 832 l 257
 1240 1152 l 257
 1183 1152 l 257
 1183 917 l 257
 1094 1075 967 1172 714 1172 c 256
 358 1172 119 910 119 581 c 256
 119 164 434 -22 713 -22 c 256
EndSplineSet
EndChar

StartChar: D
Encoding: 68 68 27
Width: 1429
VWidth: 0
GlyphClass: 2
Flags: W
PickledData: "(dp1
S'org.robofab.postScriptHintData'
p2
(dp3
sS'com.typemytype.robofont.layerData'
p4
(dp5
S'b'
(dp6
S'name'
p7
S'D'
sS'lib'
p8
(dp9
sS'unicodes'
p10
(tsS'width'
p11
I1434
sS'contours'
p12
(tsS'components'
p13
(tsS'anchors'
p14
(tsss."
AnchorPoint: "top" 648 1152 basechar 0
LayerCount: 2
Fore
SplineSet
809 1152 m 258
 123 1152 l 257
 123 1107 l 257
 297 1107 l 257
 297 45 l 257
 123 45 l 257
 123 0 l 257
 815 0 l 258
 1142 0 1305 311 1305 573 c 256
 1305 830 1150 1152 809 1152 c 258
359 1107 m 257
 810 1107 l 258
 1099 1107 1245 822 1245 572 c 256
 1245 319 1100 45 804 45 c 258
 359 45 l 257
 359 1107 l 257
EndSplineSet
EndChar

StartChar: Delta
Encoding: 916 916 32
Width: 1167
VWidth: 0
GlyphClass: 2
Flags: W
PickledData: "(dp1
S'org.robofab.postScriptHintData'
p2
(dp3
s."
LayerCount: 2
Fore
SplineSet
84 0 m 257
 1083 0 l 257
 1083 32 l 257
 597 1152 l 257
 537 1152 l 257
 84 32 l 257
 84 0 l 257
143 45 m 257
 562 1099 l 257
 1019 45 l 257
 143 45 l 257
EndSplineSet
EndChar

StartChar: E
Encoding: 69 69 35
Width: 1222
VWidth: 0
GlyphClass: 2
Flags: W
PickledData: "(dp1
S'org.robofab.postScriptHintData'
p2
(dp3
sS'com.typemytype.robofont.layerData'
p4
(dp5
S'b'
(dp6
S'name'
p7
S'E'
sS'lib'
p8
(dp9
sS'unicodes'
p10
(tsS'width'
p11
I1227
sS'contours'
p12
(tsS'components'
p13
(tsS'anchors'
p14
(tsss."
AnchorPoint: "top" 670 1152 basechar 0
AnchorPoint: "bot" 647 0 basechar 0
LayerCount: 2
Fore
SplineSet
1010 824 m 257
 1063 824 l 257
 1063 1152 l 257
 122 1152 l 257
 122 1107 l 257
 296 1107 l 257
 296 45 l 257
 122 45 l 257
 122 0 l 257
 1088 0 l 257
 1088 334 l 257
 1035 334 l 257
 1035 45 l 257
 358 45 l 257
 358 565 l 257
 780 565 l 257
 780 383 l 257
 825 383 l 257
 825 781 l 257
 779 781 l 257
 779 610 l 257
 358 610 l 257
 358 1107 l 257
 1010 1107 l 257
 1010 824 l 257
EndSplineSet
EndChar

StartChar: Eng
Encoding: 330 330 47
Width: 1444
VWidth: 0
GlyphClass: 2
Flags: W
PickledData: "(dp1
S'org.robofab.postScriptHintData'
p2
(dp3
s."
LayerCount: 2
Fore
SplineSet
858 -375 m 257
 1092 -375 1237 -265 1237 -18 c 258
 1237 243 l 257
 1181 243 l 257
 1181 -32 l 258
 1181 -217 1077 -330 861 -330 c 257
 858 -375 l 257
EndSplineSet
Refer: 93 78 N 1 0 0 1 0 0 2
EndChar

StartChar: Euro
Encoding: 8364 8364 51
Width: 1401
VWidth: 0
GlyphClass: 2
Flags: W
PickledData: "(dp1
S'org.robofab.postScriptHintData'
p2
(dp3
s."
LayerCount: 2
Fore
SplineSet
-25 441 m 257
 602 441 l 257
 629 483 l 257
 2 483 l 257
 -25 441 l 257
-25 636 m 257
 602 636 l 257
 629 678 l 257
 2 678 l 257
 -25 636 l 257
EndSplineSet
Refer: 20 67 N 1 0 0 1 0 0 2
EndChar

StartChar: F
Encoding: 70 70 52
Width: 1168
VWidth: 0
GlyphClass: 2
Flags: W
PickledData: "(dp1
S'org.robofab.postScriptHintData'
p2
(dp3
sS'com.typemytype.robofont.layerData'
p4
(dp5
S'b'
(dp6
S'name'
p7
S'F'
sS'lib'
p8
(dp9
sS'unicodes'
p10
(tsS'width'
p11
I1177
sS'contours'
p12
((dp13
S'points'
p14
((dp15
S'segmentType'
p16
S'line'
p17
sS'x'
I990
sS'smooth'
p18
I0
sS'y'
I1086
s(dp19
g16
S'line'
p20
sS'x'
I990
sg18
I0
sS'y'
I802
s(dp21
g16
S'line'
p22
sS'x'
I1062
sg18
I0
sS'y'
I802
s(dp23
g16
S'line'
p24
sS'x'
I1062
sg18
I0
sS'y'
I1152
s(dp25
g16
S'line'
p26
sS'x'
I122
sg18
I0
sS'y'
I1152
s(dp27
g16
S'line'
p28
sS'x'
I122
sg18
I0
sS'y'
I1086
s(dp29
g16
S'line'
p30
sS'x'
I286
sg18
I0
sS'y'
I1086
s(dp31
g16
S'line'
p32
sS'x'
I286
sg18
I0
sS'y'
I1039
s(dp33
g16
S'line'
p34
sS'x'
I363
sg18
I0
sS'y'
I1039
s(dp35
g16
S'line'
p36
sS'x'
I363
sg18
I0
sS'y'
I1086
stp37
s(dp38
g14
((dp39
g16
S'line'
p40
sS'x'
I286
sg18
I0
sS'y'
I1039
s(dp41
g16
S'line'
p42
sS'x'
I286
sg18
I0
sS'y'
I677
s(dp43
g16
S'line'
p44
sS'x'
I363
sg18
I0
sS'y'
I677
s(dp45
g16
S'line'
p46
sS'x'
I363
sg18
I0
sS'y'
I1039
stp47
s(dp48
g14
((dp49
g16
S'line'
p50
sS'x'
I286
sg18
I0
sS'y'
I677
s(dp51
g16
S'line'
p52
sS'x'
I286
sg18
I0
sS'y'
I65
s(dp53
g16
S'line'
p54
sS'x'
I122
sg18
I0
sS'y'
I65
s(dp55
g16
S'line'
p56
sS'x'
I122
sg18
I0
sS'y'
I0
s(dp57
g16
S'line'
p58
sS'x'
I552
sg18
I0
sS'y'
I0
s(dp59
g16
S'line'
p60
sS'x'
I552
sg18
I0
sS'y'
I65
s(dp61
g16
S'line'
p62
sS'x'
I363
sg18
I0
sS'y'
I65
s(dp63
g16
S'line'
p64
sS'x'
I363
sg18
I0
sS'y'
I539
s(dp65
g16
S'line'
p66
sS'x'
I824
sg18
I0
sS'y'
I539
s(dp67
g16
S'line'
p68
sS'x'
I824
sg18
I0
sS'y'
I378
s(dp69
g16
S'line'
p70
sS'x'
I886
sg18
I0
sS'y'
I378
s(dp71
g16
S'line'
p72
sS'x'
I886
sg18
I0
sS'y'
I764
s(dp73
g16
S'line'
p74
sS'x'
I824
sg18
I0
sS'y'
I764
s(dp75
g16
S'line'
p76
sS'x'
I824
sg18
I0
sS'y'
I601
s(dp77
g16
S'line'
p78
sS'x'
I363
sg18
I0
sS'y'
I601
s(dp79
g16
S'line'
p80
sS'x'
I363
sg18
I0
sS'y'
I677
stp81
stp82
sS'components'
p83
(tsS'anchors'
p84
(tsss."
AnchorPoint: "top" 644 1152 basechar 0
LayerCount: 2
Fore
SplineSet
1024 797 m 257
 1074 797 l 257
 1074 1152 l 257
 122 1152 l 257
 122 1107 l 257
 296 1107 l 257
 296 45 l 257
 122 45 l 257
 122 0 l 257
 532 0 l 257
 532 45 l 257
 358 45 l 257
 358 570 l 257
 837 570 l 257
 837 392 l 257
 880 392 l 257
 880 772 l 257
 837 772 l 257
 837 616 l 257
 358 616 l 257
 358 1107 l 257
 1024 1107 l 257
 1024 797 l 257
EndSplineSet
EndChar

StartChar: G
Encoding: 71 71 54
Width: 1395
VWidth: 0
GlyphClass: 2
Flags: W
PickledData: "(dp1
S'org.robofab.postScriptHintData'
p2
(dp3
sS'com.typemytype.robofont.layerData'
p4
(dp5
S'b'
(dp6
S'name'
p7
S'G'
sS'lib'
p8
(dp9
sS'unicodes'
p10
(tsS'width'
p11
I1394
sS'contours'
p12
(tsS'components'
p13
(tsS'anchors'
p14
(tsss."
AnchorPoint: "top" 709 1152 basechar 0
AnchorPoint: "bot" 711 0 basechar 0
LayerCount: 2
Fore
SplineSet
710 -22 m 256
 919 -22 1254 70 1254 549 c 257
 941 549 l 257
 941 503 l 257
 1195 503 l 257
 1189 125 895 27 711 27 c 256
 384 27 178 241 178 583 c 256
 178 917 384 1126 711 1126 c 256
 913 1126 1087 1024 1164 843 c 257
 1208 843 l 257
 1208 1152 l 257
 1152 1152 l 257
 1152 954 l 257
 1061 1096 893 1174 710 1174 c 256
 347 1174 116 946 116 583 c 256
 116 212 346 -22 710 -22 c 256
EndSplineSet
EndChar

StartChar: H
Encoding: 72 72 61
Width: 1495
VWidth: 0
GlyphClass: 2
Flags: W
PickledData: "(dp1
S'org.robofab.postScriptHintData'
p2
(dp3
sS'com.typemytype.robofont.layerData'
p4
(dp5
S'b'
(dp6
S'name'
p7
S'H'
sS'lib'
p8
(dp9
sS'unicodes'
p10
(tsS'width'
p11
I1506
sS'contours'
p12
(tsS'components'
p13
(tsS'anchors'
p14
(tsss."
AnchorPoint: "top" 746 1152 basechar 0
AnchorPoint: "bot" 746 0 basechar 0
LayerCount: 2
Fore
SplineSet
122 0 m 257
 532 0 l 257
 532 45 l 257
 358 45 l 257
 358 560 l 257
 1136 560 l 257
 1136 45 l 257
 962 45 l 257
 962 0 l 257
 1372 0 l 257
 1372 45 l 257
 1198 45 l 257
 1198 1107 l 257
 1372 1107 l 257
 1372 1152 l 257
 962 1152 l 257
 962 1107 l 257
 1136 1107 l 257
 1136 606 l 257
 358 606 l 257
 358 1107 l 257
 532 1107 l 257
 532 1152 l 257
 122 1152 l 257
 122 1107 l 257
 296 1107 l 257
 296 45 l 257
 122 45 l 257
 122 0 l 257
EndSplineSet
EndChar

StartChar: Hbar
Encoding: 294 294 62
Width: 1463
VWidth: 0
GlyphClass: 2
Flags: W
PickledData: "(dp1
S'org.robofab.postScriptHintData'
p2
(dp3
sS'com.typemytype.robofont.layerData'
p4
(dp5
S'b'
(dp6
S'name'
p7
S'Hbar'
p8
sS'lib'
p9
(dp10
sS'unicodes'
p11
(tsS'width'
p12
I1471
sS'contours'
p13
(tsS'components'
p14
(tsS'anchors'
p15
(tsss."
LayerCount: 2
Fore
SplineSet
147 834 m 257
 1317 834 l 257
 1317 879 l 257
 147 879 l 257
 147 834 l 257
EndSplineSet
Refer: 61 72 N 1 0 0 1 0 0 2
EndChar

StartChar: I
Encoding: 73 73 65
Width: 636
VWidth: 0
GlyphClass: 2
Flags: W
PickledData: "(dp1
S'org.robofab.postScriptHintData'
p2
(dp3
sS'com.typemytype.robofont.layerData'
p4
(dp5
S'b'
(dp6
S'name'
p7
S'I'
sS'lib'
p8
(dp9
sS'unicodes'
p10
(tsS'width'
p11
I626
sS'contours'
p12
(tsS'components'
p13
(tsS'anchors'
p14
(tsss."
AnchorPoint: "top" 321 1152 basechar 0
LayerCount: 2
Fore
SplineSet
112 0 m 257
 522 0 l 257
 522 45 l 257
 348 45 l 257
 348 1107 l 257
 522 1107 l 257
 522 1152 l 257
 112 1152 l 257
 112 1107 l 257
 286 1107 l 257
 286 45 l 257
 112 45 l 257
 112 0 l 257
EndSplineSet
EndChar

StartChar: J
Encoding: 74 74 79
Width: 568
VWidth: 0
GlyphClass: 2
Flags: W
PickledData: "(dp1
S'org.robofab.postScriptHintData'
p2
(dp3
sS'com.typemytype.robofont.layerData'
p4
(dp5
S'b'
(dp6
S'name'
p7
S'J'
sS'lib'
p8
(dp9
sS'unicodes'
p10
(tsS'width'
p11
I551
sS'contours'
p12
(tsS'components'
p13
(tsS'anchors'
p14
(tsss."
AnchorPoint: "top" 353 1152 basechar 0
LayerCount: 2
Fore
SplineSet
101 -65 m 257
 213 -65 l 258
 326 -65 378 -34 378 150 c 258
 378 1107 l 257
 503 1107 l 257
 503 1152 l 257
 183 1152 l 257
 183 1107 l 257
 316 1107 l 257
 316 160 l 258
 316 33 305 -18 224 -18 c 258
 101 -18 l 257
 101 -65 l 257
EndSplineSet
EndChar

StartChar: K
Encoding: 75 75 81
Width: 1303
VWidth: 0
GlyphClass: 2
Flags: W
PickledData: "(dp1
S'org.robofab.postScriptHintData'
p2
(dp3
sS'com.typemytype.robofont.guides'
p4
((dp5
S'y'
I593
sS'x'
I467
sS'magnetic'
p6
I5
sS'angle'
p7
I0
sS'isGlobal'
p8
I0
stp9
sS'com.typemytype.robofont.layerData'
p10
(dp11
S'b'
(dp12
S'name'
p13
S'K'
sS'lib'
p14
(dp15
sS'unicodes'
p16
(tsS'width'
p17
I1304
sS'contours'
p18
(tsS'components'
p19
(tsS'anchors'
p20
(tsss."
AnchorPoint: "top" 661 1152 basechar 0
AnchorPoint: "bot" 680 0 basechar 0
LayerCount: 2
Fore
SplineSet
827 0 m 257
 1219 0 l 257
 1219 45 l 257
 1057 45 l 257
 432 587 l 257
 1015 1107 l 257
 1186 1107 l 257
 1186 1152 l 257
 788 1152 l 257
 788 1107 l 257
 944 1107 l 257
 358 591.28 l 257
 358 1107 l 257
 532 1107 l 257
 532 1152 l 257
 122 1152 l 257
 122 1107 l 257
 296 1107 l 257
 296 45 l 257
 122 45 l 257
 122 0 l 257
 532 0 l 257
 532 45 l 257
 358 45 l 257
 358 580.831 l 257
 980 45 l 257
 827 45 l 257
 827 0 l 257
EndSplineSet
EndChar

StartChar: L
Encoding: 76 76 84
Width: 1058
VWidth: 0
GlyphClass: 2
Flags: W
PickledData: "(dp1
S'org.robofab.postScriptHintData'
p2
(dp3
sS'com.typemytype.robofont.layerData'
p4
(dp5
S'b'
(dp6
S'name'
p7
S'L'
sS'lib'
p8
(dp9
sS'unicodes'
p10
(tsS'width'
p11
I1055
sS'contours'
p12
(tsS'components'
p13
(tsS'anchors'
p14
(tsss."
AnchorPoint: "top" 716 1152 basechar 0
AnchorPoint: "caron.alt" 533 804 basechar 0
AnchorPoint: "bot" 640 0 basechar 0
LayerCount: 2
Fore
SplineSet
358 45 m 257
 358 1107 l 257
 532 1107 l 257
 532 1152 l 257
 122 1152 l 257
 122 1107 l 257
 296 1107 l 257
 296 45 l 257
 122 45 l 257
 122 0 l 257
 1005 0 l 257
 1005 373 l 257
 955 373 l 257
 955 45 l 257
 358 45 l 257
EndSplineSet
EndChar

StartChar: Lslash
Encoding: 321 321 90
Width: 1238
VWidth: 0
GlyphClass: 2
Flags: W
PickledData: "(dp1
S'org.robofab.postScriptHintData'
p2
(dp3
sS'com.typemytype.robofont.layerData'
p4
(dp5
S'b'
(dp6
S'name'
p7
S'Lslash'
p8
sS'lib'
p9
(dp10
sS'unicodes'
p11
(tsS'width'
p12
I1243
sS'contours'
p13
(tsS'components'
p14
(tsS'anchors'
p15
(tsss."
LayerCount: 2
Fore
SplineSet
124 430 m 257
 540 691 l 257
 540 750 l 257
 124 486 l 257
 124 430 l 257
EndSplineSet
Refer: 84 76 N 1 0 0 1 0 0 2
EndChar

StartChar: M
Encoding: 77 77 91
Width: 1618
VWidth: 0
GlyphClass: 2
Flags: W
PickledData: "(dp1
S'org.robofab.postScriptHintData'
p2
(dp3
sS'com.typemytype.robofont.layerData'
p4
(dp5
S'b'
(dp6
S'name'
p7
S'M'
sS'lib'
p8
(dp9
sS'unicodes'
p10
(tsS'width'
p11
I1606
sS'contours'
p12
(tsS'components'
p13
(tsS'anchors'
p14
(tsss."
AnchorPoint: "top" 801 1152 basechar 0
LayerCount: 2
Fore
SplineSet
137 0 m 257
 501 0 l 257
 501 45 l 257
 346 45 l 257
 346 1052 l 257
 816 99 l 257
 827 99 l 257
 1273 1052 l 257
 1273 45 l 257
 1116 45 l 257
 1116 0 l 257
 1487 0 l 257
 1487 45 l 257
 1334 45 l 257
 1334 1107 l 257
 1487 1107 l 257
 1487 1152 l 257
 1259 1152 l 257
 824 212 l 257
 361 1152 l 257
 137 1152 l 257
 137 1107 l 257
 291 1107 l 257
 291 45 l 257
 137 45 l 257
 137 0 l 257
EndSplineSet
EndChar

StartChar: N
Encoding: 78 78 93
Width: 1444
VWidth: 0
GlyphClass: 2
Flags: W
PickledData: "(dp1
S'org.robofab.postScriptHintData'
p2
(dp3
sS'com.typemytype.robofont.layerData'
p4
(dp5
S'b'
(dp6
S'name'
p7
S'N'
sS'lib'
p8
(dp9
sS'unicodes'
p10
(tsS'width'
p11
I1444
sS'contours'
p12
(tsS'components'
p13
(tsS'anchors'
p14
(tsss."
AnchorPoint: "top" 721 1152 basechar 0
AnchorPoint: "bot" 712 0 basechar 0
LayerCount: 2
Fore
SplineSet
132 0 m 257
 486 0 l 257
 486 45 l 257
 335 45 l 257
 335 1060 l 257
 1175 0 l 257
 1237 0 l 257
 1237 1107 l 257
 1365 1107 l 257
 1365 1152 l 257
 1028 1152 l 257
 1028 1107 l 257
 1181 1107 l 257
 1181 86 l 257
 336 1152 l 257
 132 1152 l 257
 132 1107 l 257
 279 1107 l 257
 279 45 l 257
 132 45 l 257
 132 0 l 257
EndSplineSet
EndChar

StartChar: O
Encoding: 79 79 100
Width: 1455
VWidth: 0
GlyphClass: 2
Flags: W
PickledData: "(dp1
S'org.robofab.postScriptHintData'
p2
(dp3
sS'com.typemytype.robofont.layerData'
p4
(dp5
S'b'
(dp6
S'name'
p7
S'O'
sS'lib'
p8
(dp9
sS'unicodes'
p10
(tsS'width'
p11
I1456
sS'contours'
p12
(tsS'components'
p13
(tsS'anchors'
p14
(tsss."
AnchorPoint: "top" 726 1152 basechar 0
LayerCount: 2
Fore
SplineSet
728 -22 m 256
 1141 -22 1331 283 1331 572 c 256
 1331 858 1138 1174 728 1174 c 256
 318 1174 124 859 124 572 c 256
 124 285.465 313.385 -22.0024 725.99 -22.0024 c 256
 726.66 -22.0024 727.33 -22.0016 728 -22 c 256
728 26 m 256
 352 26 186 301 186 572 c 256
 186 832 356 1126 728 1126 c 256
 1095 1126 1270 832 1270 572 c 256
 1270 310 1095 26 728 26 c 256
EndSplineSet
Substitution2: "Single Substitution lookup 14 subtable" ordmasculine
EndChar

StartChar: OE
Encoding: 338 338 101
Width: 1962
VWidth: 0
GlyphClass: 2
Flags: W
PickledData: "(dp1
S'org.robofab.postScriptHintData'
p2
(dp3
sS'com.typemytype.robofont.layerData'
p4
(dp5
S'b'
(dp6
S'name'
p7
S'OE'
p8
sS'lib'
p9
(dp10
sS'unicodes'
p11
(tsS'width'
p12
I1953
sS'contours'
p13
(tsS'components'
p14
(tsS'anchors'
p15
(tsss."
LayerCount: 2
Fore
SplineSet
785 0 m 258
 1826 0 l 257
 1826 390 l 257
 1773 390 l 257
 1773 50 l 257
 1067 50 l 257
 1067 540 l 257
 1538 540 l 257
 1538 350 l 257
 1584 350 l 257
 1584 761 l 257
 1538 761 l 257
 1538 589 l 257
 1068 589 l 257
 1068 1102 l 257
 1746 1102 l 257
 1746 786 l 257
 1799 786 l 257
 1799 1152 l 257
 785 1152 l 258
 378 1152 133 935 132 571 c 256
 133 213 379 0 785 0 c 258
787 50 m 258
 419 50 193 247 193 571 c 256
 193 907 423 1102 786 1102 c 258
 1006 1102 l 257
 1006 50 l 257
 787 50 l 258
EndSplineSet
EndChar

StartChar: Omega
Encoding: 937 937 113
Width: 1426
VWidth: 0
GlyphClass: 2
Flags: W
PickledData: "(dp1
S'org.robofab.postScriptHintData'
p2
(dp3
s."
LayerCount: 2
Fore
SplineSet
182 0 m 257
 557 0 l 257
 557 48 l 257
 334 182 224 421 224 634 c 256
 224 893 388 1126 713 1126 c 256
 1038 1126 1202 893 1202 634 c 256
 1202 421 1092 182 869 48 c 257
 869 0 l 257
 1244 0 l 257
 1244 45 l 257
 927 45 l 257
 1152 177 1261 412 1261 628 c 256
 1261 912 1073 1174 713 1174 c 256
 354 1174 165 912 165 628 c 256
 165 412 274 177 499 45 c 257
 182 45 l 257
 182 0 l 257
EndSplineSet
EndChar

StartChar: Oslash
Encoding: 216 216 115
Width: 1583
VWidth: 0
GlyphClass: 2
Flags: W
PickledData: "(dp1
S'org.robofab.postScriptHintData'
p2
(dp3
sS'com.typemytype.robofont.layerData'
p4
(dp5
S'b'
(dp6
S'name'
p7
S'Oslash'
p8
sS'lib'
p9
(dp10
sS'unicodes'
p11
(tsS'width'
p12
I1598
sS'contours'
p13
(tsS'components'
p14
(tsS'anchors'
p15
(tsss."
LayerCount: 2
Fore
SplineSet
270 -72 m 257
 1242 1191 l 257
 1211 1214 l 257
 235 -47 l 257
 270 -72 l 257
EndSplineSet
Refer: 100 79 N 1 0 0 1 7 -9 2
EndChar

StartChar: P
Encoding: 80 80 118
Width: 1215
VWidth: 0
GlyphClass: 2
Flags: W
PickledData: "(dp1
S'org.robofab.postScriptHintData'
p2
(dp3
sS'com.typemytype.robofont.layerData'
p4
(dp5
S'b'
(dp6
S'name'
p7
S'P'
sS'lib'
p8
(dp9
sS'unicodes'
p10
(tsS'width'
p11
I1226
sS'contours'
p12
((dp13
S'points'
p14
((dp15
S'segmentType'
p16
S'line'
p17
sS'x'
I353
sS'smooth'
p18
I0
sS'y'
I1095
s(dp19
g16
S'line'
p20
sS'x'
I759
sg18
I1
sS'y'
I1095
s(dp21
S'y'
I1095
sS'x'
I936
sg18
I0
s(dp22
S'y'
I960
sS'x'
I1024
sg18
I0
s(dp23
g16
S'curve'
p24
sS'x'
I1024
sg18
I1
sS'y'
I823
s(dp25
S'y'
I683
sS'x'
I1024
sg18
I0
s(dp26
S'y'
I544
sS'x'
I934
sg18
I0
s(dp27
g16
S'curve'
p28
sS'x'
I759
sg18
I1
sS'y'
I544
s(dp29
g16
S'line'
p30
sS'x'
I353
sg18
I0
sS'y'
I544
stp31
s(dp32
g14
((dp33
g16
S'line'
p34
sS'x'
I135
sg18
I0
sS'y'
I0
s(dp35
g16
S'line'
p36
sS'x'
I512
sg18
I0
sS'y'
I0
s(dp37
g16
S'line'
p38
sS'x'
I512
sg18
I0
sS'y'
I58
s(dp39
g16
S'line'
p40
sS'x'
I353
sg18
I0
sS'y'
I58
s(dp41
g16
S'line'
p42
sS'x'
I353
sg18
I0
sS'y'
I483
s(dp43
g16
S'line'
p44
sS'x'
I759
sg18
I1
sS'y'
I483
s(dp45
S'y'
I483
sS'x'
I984
sg18
I0
s(dp46
S'y'
I656
sS'x'
I1098
sg18
I0
s(dp47
g16
S'curve'
p48
sS'x'
I1098
sg18
I1
sS'y'
I826
s(dp49
S'y'
I989
sS'x'
I1098
sg18
I0
s(dp50
S'y'
I1154
sS'x'
I984
sg18
I0
s(dp51
g16
S'curve'
p52
sS'x'
I759
sg18
I1
sS'y'
I1154
s(dp53
g16
S'line'
p54
sS'x'
I122
sg18
I0
sS'y'
I1154
s(dp55
g16
S'line'
p56
sS'x'
I122
sg18
I0
sS'y'
I1095
s(dp57
g16
S'line'
p58
sS'x'
I278
sg18
I0
sS'y'
I1095
s(dp59
g16
S'line'
p60
sS'x'
I278
sg18
I0
sS'y'
I58
s(dp61
g16
S'line'
p62
sS'x'
I135
sg18
I0
sS'y'
I58
stp63
stp64
sS'components'
p65
(tsS'anchors'
p66
(tsss."
AnchorPoint: "top" 668 1152 basechar 0
LayerCount: 2
Fore
SplineSet
453 497 m 257
 748 497 l 258
 955 497 1076 627 1076 848 c 256
 1076 1041 952 1152 739 1152 c 258
 122 1152 l 257
 122 1107 l 257
 296 1107 l 257
 296 45 l 257
 122 45 l 257
 122 0 l 257
 532 0 l 257
 532 45 l 257
 358 45 l 257
 358 1107 l 257
 741 1107 l 258
 912 1107 1013 1012 1014 847 c 256
 1014 655 917 541 748 541 c 258
 454 541 l 257
 453 497 l 257
EndSplineSet
EndChar

StartChar: Q
Encoding: 81 81 120
Width: 1439
VWidth: 0
GlyphClass: 2
Flags: W
PickledData: "(dp1
S'org.robofab.postScriptHintData'
p2
(dp3
sS'com.typemytype.robofont.layerData'
p4
(dp5
S'b'
(dp6
S'name'
p7
S'Q'
sS'lib'
p8
(dp9
sS'unicodes'
p10
(tsS'width'
p11
I1438
sS'contours'
p12
(tsS'components'
p13
(tsS'anchors'
p14
(tsss."
LayerCount: 2
Fore
SplineSet
1160 -186 m 257
 1150 -146 l 257
 1106.15 -159.995 1069.26 -166.427 1036.56 -166.427 c 256
 937.419 -166.427 876.739 -107.302 777.083 -20.5205 c 257
 1156.08 2.6783 1331 294.704 1331 572 c 256
 1331 858 1138 1174 728 1174 c 256
 318 1174 124 859 124 572 c 256
 124 288.227 309.751 -16.0767 714.12 -21.917 c 257
 841.965 -134.223 916.389 -209.321 1033.84 -209.321 c 256
 1070.67 -209.321 1111.73 -201.937 1160 -186 c 257
728 26 m 256
 352 26 186 301 186 572 c 256
 186 832 356 1126 728 1126 c 256
 1095 1126 1270 832 1270 572 c 256
 1270 310 1095 26 728 26 c 256
EndSplineSet
EndChar

StartChar: R
Encoding: 82 82 121
Width: 1292
VWidth: 0
GlyphClass: 2
Flags: W
PickledData: "(dp1
S'org.robofab.postScriptHintData'
p2
(dp3
sS'com.typemytype.robofont.layerData'
p4
(dp5
S'b'
(dp6
S'name'
p7
S'R'
sS'lib'
p8
(dp9
sS'unicodes'
p10
(tsS'width'
p11
I1296
sS'contours'
p12
((dp13
S'points'
p14
((dp15
S'segmentType'
p16
S'line'
p17
sS'x'
I135
sS'smooth'
p18
I0
sS'y'
I0
s(dp19
g16
S'line'
p20
sS'x'
I512
sg18
I0
sS'y'
I0
s(dp21
g16
S'line'
p22
sS'x'
I512
sg18
I0
sS'y'
I58
s(dp23
g16
S'line'
p24
sS'x'
I353
sg18
I0
sS'y'
I58
s(dp25
g16
S'line'
p26
sS'x'
I353
sg18
I0
sS'y'
I539
s(dp27
g16
S'line'
p28
sS'x'
I641
sg18
I0
sS'y'
I539
s(dp29
g16
S'line'
p30
sS'x'
I961
sg18
I0
sS'y'
I0
s(dp31
g16
S'line'
p32
sS'x'
I1178
sg18
I0
sS'y'
I0
s(dp33
g16
S'line'
p34
sS'x'
I1178
sg18
I0
sS'y'
I58
s(dp35
g16
S'line'
p36
sS'x'
I1015
sg18
I0
sS'y'
I58
s(dp37
g16
S'line'
p38
sS'x'
I721
sg18
I0
sS'y'
I539
s(dp39
S'y'
I539
sS'x'
I945
sg18
I0
s(dp40
S'y'
I696
sS'x'
I1059
sg18
I0
s(dp41
g16
S'curve'
p42
sS'x'
I1059
sg18
I1
sS'y'
I848
s(dp43
S'y'
I1000
sS'x'
I1059
sg18
I0
s(dp44
S'y'
I1154
sS'x'
I945
sg18
I0
s(dp45
g16
S'curve'
p46
sS'x'
I721
sg18
I1
sS'y'
I1154
s(dp47
g16
S'line'
p48
sS'x'
I122
sg18
I0
sS'y'
I1154
s(dp49
g16
S'line'
p50
sS'x'
I122
sg18
I0
sS'y'
I1095
s(dp51
g16
S'line'
p52
sS'x'
I278
sg18
I0
sS'y'
I1095
s(dp53
g16
S'line'
p54
sS'x'
I278
sg18
I0
sS'y'
I58
s(dp55
g16
S'line'
p56
sS'x'
I135
sg18
I0
sS'y'
I58
stp57
s(dp58
g14
((dp59
g16
S'line'
p60
sS'x'
I353
sg18
I0
sS'y'
I1095
s(dp61
g16
S'line'
p62
sS'x'
I721
sg18
I1
sS'y'
I1095
s(dp63
S'y'
I1095
sS'x'
I898
sg18
I0
s(dp64
S'y'
I971
sS'x'
I985
sg18
I0
s(dp65
g16
S'curve'
p66
sS'x'
I985
sg18
I1
sS'y'
I845
s(dp67
S'y'
I723
sS'x'
I985
sg18
I0
s(dp68
S'y'
I600
sS'x'
I896
sg18
I0
s(dp69
g16
S'curve'
p70
sS'x'
I721
sg18
I1
sS'y'
I600
s(dp71
g16
S'line'
p72
sS'x'
I353
sg18
I0
sS'y'
I600
stp73
stp74
sS'components'
p75
(tsS'anchors'
p76
(tsss."
AnchorPoint: "top" 649 1152 basechar 0
AnchorPoint: "bot" 711 0 basechar 0
LayerCount: 2
Fore
SplineSet
990 0 m 257
 1200 0 l 257
 1200 45 l 257
 1031 45 l 257
 721 540 l 257
 996 545 1078 697 1078 846 c 256
 1078 997 985 1152 749 1152 c 258
 122 1152 l 257
 122 1107 l 257
 296 1107 l 257
 296 45 l 257
 122 45 l 257
 122 0 l 257
 532 0 l 257
 532 45 l 257
 358 45 l 257
 358 1107 l 257
 753 1107 l 258
 953 1107 1018 971 1018 846 c 256
 1018 730 961 583 696 583 c 258
 428 583 l 257
 428 538 l 257
 655 538 l 257
 990 0 l 257
EndSplineSet
EndChar

StartChar: S
Encoding: 83 83 127
Width: 1133
VWidth: 0
GlyphClass: 2
Flags: W
PickledData: "(dp1
S'org.robofab.postScriptHintData'
p2
(dp3
sS'com.typemytype.robofont.layerData'
p4
(dp5
S'b'
(dp6
S'name'
p7
S'S'
sS'lib'
p8
(dp9
sS'unicodes'
p10
(tsS'width'
p11
I1143
sS'contours'
p12
((dp13
S'points'
p14
((dp15
S'segmentType'
p16
S'curve'
p17
sS'x'
I636
sS'smooth'
p18
I1
sS'y'
S'-23'
p19
s(dp20
S'y'
S'-23'
p21
sS'x'
I930
sg18
I0
s(dp22
S'y'
I171
sS'x'
I1026
sg18
I0
s(dp23
g16
S'curve'
p24
sS'x'
I1026
sg18
I1
sS'y'
I295
s(dp25
S'y'
I543
sS'x'
I1026
sg18
I0
s(dp26
S'y'
I599
sS'x'
I829
sg18
I0
s(dp27
g16
S'curve'
p28
sS'x'
I606
sg18
I1
sS'y'
I622
s(dp29
S'y'
I643
sS'x'
I405
sg18
I0
s(dp30
S'y'
I667
sS'x'
I269
sg18
I0
s(dp31
g16
S'curve'
p32
sS'x'
I269
sg18
I1
sS'y'
I851
s(dp33
S'y'
I998
sS'x'
I269
sg18
I0
s(dp34
S'y'
I1104
sS'x'
I360
sg18
I0
s(dp35
g16
S'curve'
p36
sS'x'
I573
sg18
I1
sS'y'
I1104
s(dp37
S'y'
I1104
sS'x'
I719
sg18
I0
s(dp38
S'y'
I1024
sS'x'
I885
sg18
I0
s(dp39
g16
S'curve'
p40
sS'x'
I885
sg18
I1
sS'y'
I941
s(dp41
g16
S'line'
p42
sS'x'
I885
sg18
I0
sS'y'
I839
s(dp43
g16
S'line'
p44
sS'x'
I959
sg18
I0
sS'y'
I839
s(dp45
g16
S'line'
p46
sS'x'
I959
sg18
I0
sS'y'
I1152
s(dp47
g16
S'line'
p48
sS'x'
I885
sg18
I0
sS'y'
I1152
s(dp49
g16
S'line'
p50
sS'x'
I885
sg18
I0
sS'y'
I1049
s(dp51
S'y'
I1131
sS'x'
I828
sg18
I0
s(dp52
S'y'
I1172
sS'x'
I673
sg18
I0
s(dp53
g16
S'curve'
p54
sS'x'
I561
sg18
I1
sS'y'
I1172
s(dp55
S'y'
I1172
sS'x'
I360
sg18
I0
s(dp56
S'y'
I1066
sS'x'
I184
sg18
I0
s(dp57
g16
S'curve'
p58
sS'x'
I184
sg18
I1
sS'y'
I863
s(dp59
S'y'
I635
sS'x'
I184
sg18
I0
s(dp60
S'y'
I579
sS'x'
I332
sg18
I0
s(dp61
g16
S'curve'
p62
sS'x'
I584
sg18
I1
sS'y'
I553
s(dp63
S'y'
I531
sS'x'
I805
sg18
I0
s(dp64
S'y'
I488
sS'x'
I942
sg18
I0
s(dp65
g16
S'curve'
p66
sS'x'
I942
sg18
I1
sS'y'
I300
s(dp67
S'y'
I169
sS'x'
I942
sg18
I0
s(dp68
S'y'
I47
sS'x'
I831
sg18
I0
s(dp69
g16
S'curve'
p70
sS'x'
I644
sg18
I1
sS'y'
I47
s(dp71
S'y'
I47
sS'x'
I448
sg18
I0
s(dp72
S'y'
I118
sS'x'
I261
sg18
I0
s(dp73
g16
S'curve'
p74
sS'x'
I261
sg18
I1
sS'y'
I247
s(dp75
g16
S'line'
p76
sS'x'
I261
sg18
I0
sS'y'
I387
s(dp77
g16
S'line'
p78
sS'x'
I187
sg18
I0
sS'y'
I387
s(dp79
g16
S'line'
p80
sS'x'
I187
sg18
I0
sS'y'
S'-1'
p81
s(dp82
g16
S'line'
p83
sS'x'
I261
sg18
I0
sS'y'
S'-1'
p84
s(dp85
g16
S'line'
p86
sS'x'
I261
sg18
I0
sS'y'
I122
s(dp87
S'y'
I22
sS'x'
I335
sg18
I0
s(dp88
S'y'
S'-23'
p89
sS'x'
I496
sg18
I0
stp90
stp91
sS'components'
p92
(tsS'anchors'
p93
(tsss."
AnchorPoint: "top" 580 1152 basechar 0
AnchorPoint: "bot" 640 0 basechar 0
LayerCount: 2
Fore
SplineSet
636 -22 m 256
 966 -22 1025 188 1025 295 c 256
 1025 563 829 584 610 607 c 256
 409 627 232 650 232 857 c 256
 232 1006 331 1126 571 1126 c 256
 763 1126 895 1039 901 954 c 257
 900 844 l 257
 956 844 l 257
 956 1153 l 257
 900 1153 l 257
 900 1042 l 257
 849 1129 680 1174 566 1174 c 256
 349 1174 174 1074 174 859 c 256
 174 601 392 573 601 555 c 256
 822 536 966 504 966 301 c 256
 966 163 885 26 637 26 c 256
 397 26 273 92 233 235 c 257
 233 387 l 257
 176 387 l 257
 176 -1 l 257
 233 -1 l 257
 233 147 l 257
 286 24 438 -22 636 -22 c 256
EndSplineSet
EndChar

StartChar: Sigma
Encoding: 931 931 135
Width: 851
VWidth: 0
GlyphClass: 2
Flags: W
PickledData: "(dp1
S'org.robofab.postScriptHintData'
p2
(dp3
s."
LayerCount: 2
Fore
SplineSet
117 0 m 257
 821 0 l 257
 821 47 l 257
 194 47 l 257
 615 569 l 257
 210 1106 l 257
 787 1106 l 257
 787 1152 l 257
 134 1152 l 257
 134 1117 l 257
 544 569 l 257
 117 38 l 257
 117 0 l 257
EndSplineSet
EndChar

StartChar: T
Encoding: 84 84 136
Width: 1147
VWidth: 0
GlyphClass: 2
Flags: W
PickledData: "(dp1
S'org.robofab.postScriptHintData'
p2
(dp3
sS'com.typemytype.robofont.layerData'
p4
(dp5
S'b'
(dp6
S'name'
p7
S'T'
sS'lib'
p8
(dp9
sS'unicodes'
p10
(tsS'width'
p11
I1147
sS'contours'
p12
(tsS'components'
p13
(tsS'anchors'
p14
(tsss."
AnchorPoint: "top" 567 1152 basechar 0
AnchorPoint: "bot" 565 0 basechar 0
LayerCount: 2
Fore
SplineSet
52 773 m 257
 104 773 l 257
 104 1107 l 257
 535 1107 l 257
 535 45 l 257
 361 45 l 257
 361 0 l 257
 771 0 l 257
 771 45 l 257
 597 45 l 257
 597 1107 l 257
 1041 1107 l 257
 1041 773 l 257
 1096 773 l 257
 1096 1152 l 257
 52 1152 l 257
 52 773 l 257
EndSplineSet
EndChar

StartChar: Thorn
Encoding: 222 222 141
Width: 1212
VWidth: 0
GlyphClass: 2
Flags: W
PickledData: "(dp1
S'org.robofab.postScriptHintData'
p2
(dp3
sS'com.typemytype.robofont.layerData'
p4
(dp5
S'b'
(dp6
S'name'
p7
S'Thorn'
p8
sS'lib'
p9
(dp10
sS'unicodes'
p11
(tsS'width'
p12
I1226
sS'contours'
p13
(tsS'components'
p14
(tsS'anchors'
p15
(tsss."
LayerCount: 2
Fore
SplineSet
122 0 m 257
 532 0 l 257
 532 45 l 257
 358 45 l 257
 358 1107 l 257
 532 1107 l 257
 532 1152 l 257
 122 1152 l 257
 122 1107 l 257
 296 1107 l 257
 296 45 l 257
 122 45 l 257
 122 0 l 257
454 340 m 257
 734 340 l 258
 936 340 1054 454 1054 650 c 256
 1054 816 932 914 723 914 c 258
 326 914 l 257
 326 870 l 257
 723 870 l 258
 892 870 992 788 993 649 c 256
 994 481 898 383 735 383 c 258
 455 383 l 257
 454 340 l 257
EndSplineSet
EndChar

StartChar: U
Encoding: 85 85 142
Width: 1494
VWidth: 0
GlyphClass: 2
Flags: W
PickledData: "(dp1
S'org.robofab.postScriptHintData'
p2
(dp3
sS'com.typemytype.robofont.layerData'
p4
(dp5
S'b'
(dp6
S'name'
p7
S'U'
sS'lib'
p8
(dp9
sS'unicodes'
p10
(tsS'width'
p11
I1514
sS'contours'
p12
(tsS'components'
p13
(tsS'anchors'
p14
(tsss."
AnchorPoint: "top" 750 1152 basechar 0
LayerCount: 2
Fore
SplineSet
737 -22 m 256
 1049 -22 1268 134 1268 373 c 258
 1268 1107 l 257
 1426 1107 l 257
 1426 1152 l 257
 1058 1152 l 257
 1058 1107 l 257
 1209 1107 l 257
 1209 372 l 258
 1209 165 1017 27 738 27 c 256
 477 27 300 167 300 375 c 258
 300 1107 l 257
 452 1107 l 257
 452 1152 l 257
 85 1152 l 257
 85 1107 l 257
 238 1107 l 257
 238 375 l 258
 238 140 437 -22 737 -22 c 256
EndSplineSet
EndChar

StartChar: V
Encoding: 86 86 156
Width: 1242
VWidth: 0
GlyphClass: 2
Flags: W
PickledData: "(dp1
S'org.robofab.postScriptHintData'
p2
(dp3
sS'com.typemytype.robofont.layerData'
p4
(dp5
S'b'
(dp6
S'name'
p7
S'V'
sS'lib'
p8
(dp9
sS'unicodes'
p10
(tsS'width'
p11
I1228
sS'contours'
p12
(tsS'components'
p13
(tsS'anchors'
p14
(tsss."
LayerCount: 2
Fore
SplineSet
591 0 m 257
 655 0 l 257
 1075 1107 l 257
 1199 1107 l 257
 1199 1152 l 257
 847 1152 l 257
 847 1107 l 257
 1003 1107 l 257
 624 76 l 257
 242 1107 l 257
 402 1107 l 257
 402 1152 l 257
 38 1152 l 257
 38 1107 l 257
 176 1107 l 257
 591 0 l 257
EndSplineSet
EndChar

StartChar: W
Encoding: 87 87 157
Width: 1952
VWidth: 0
GlyphClass: 2
Flags: W
PickledData: "(dp1
S'org.robofab.postScriptHintData'
p2
(dp3
sS'com.typemytype.robofont.layerData'
p4
(dp5
S'b'
(dp6
S'name'
p7
S'W'
sS'lib'
p8
(dp9
sS'unicodes'
p10
(tsS'width'
p11
I1962
sS'contours'
p12
(tsS'components'
p13
(tsS'anchors'
p14
(tsss."
AnchorPoint: "top" 981 1152 basechar 0
LayerCount: 2
Fore
SplineSet
586 0 m 257
 652 0 l 257
 979 984 l 257
 1303 0 l 257
 1367 0 l 257
 1735 1107 l 257
 1880 1107 l 257
 1880 1152 l 257
 1517 1152 l 257
 1517 1107 l 257
 1673 1107 l 257
 1336 78 l 257
 1003 1094 l 257
 956 1094 l 257
 620 78 l 257
 276 1107 l 257
 437 1107 l 257
 437 1152 l 257
 72 1152 l 257
 72 1107 l 257
 210 1107 l 257
 586 0 l 257
EndSplineSet
EndChar

StartChar: X
Encoding: 88 88 162
Width: 1295
VWidth: 0
GlyphClass: 2
Flags: W
PickledData: "(dp1
S'org.robofab.postScriptHintData'
p2
(dp3
sS'com.typemytype.robofont.layerData'
p4
(dp5
S'b'
(dp6
S'name'
p7
S'X'
sS'lib'
p8
(dp9
sS'unicodes'
p10
(tsS'width'
p11
I1293
sS'contours'
p12
(tsS'components'
p13
(tsS'anchors'
p14
(tsss."
LayerCount: 2
Fore
SplineSet
110 0 m 257
 467 0 l 257
 467 44 l 257
 309 44 l 257
 643 552 l 257
 985 44 l 257
 831 44 l 257
 831 0 l 257
 1189 0 l 257
 1189 44 l 257
 1040 44 l 257
 678 585 l 257
 1021 1108 l 257
 1169 1108 l 257
 1169 1152 l 257
 807 1152 l 257
 807 1108 l 257
 963 1108 l 257
 650 629 l 257
 328 1108 l 257
 480 1108 l 257
 480 1152 l 257
 122 1152 l 257
 122 1108 l 257
 272 1108 l 257
 617 594 l 257
 249 44 l 257
 110 44 l 257
 110 0 l 257
EndSplineSet
EndChar

StartChar: Y
Encoding: 89 89 163
Width: 1260
VWidth: 0
GlyphClass: 2
Flags: W
PickledData: "(dp1
S'org.robofab.postScriptHintData'
p2
(dp3
sS'com.typemytype.robofont.layerData'
p4
(dp5
S'b'
(dp6
S'name'
p7
S'Y'
sS'lib'
p8
(dp9
sS'unicodes'
p10
(tsS'width'
p11
I1254
sS'contours'
p12
(tsS'components'
p13
(tsS'anchors'
p14
(tsss."
AnchorPoint: "top" 636 1152 basechar 0
LayerCount: 2
Fore
SplineSet
431 0 m 257
 829 0 l 257
 829 45 l 257
 660 45 l 257
 660 464 l 257
 1088 1107 l 257
 1241 1107 l 257
 1241 1152 l 257
 864 1152 l 257
 864 1107 l 257
 1024 1107 l 257
 632 516 l 257
 238 1107 l 257
 389 1107 l 257
 389 1152 l 257
 14 1152 l 257
 14 1107 l 257
 171 1107 l 257
 599 464 l 257
 599 45 l 257
 431 45 l 257
 431 0 l 257
EndSplineSet
EndChar

StartChar: Z
Encoding: 90 90 170
Width: 1232
VWidth: 0
GlyphClass: 2
Flags: W
PickledData: "(dp1
S'org.robofab.postScriptHintData'
p2
(dp3
sS'com.typemytype.robofont.layerData'
p4
(dp5
S'b'
(dp6
S'name'
p7
S'Z'
sS'lib'
p8
(dp9
sS'unicodes'
p10
(tsS'width'
p11
I1241
sS'contours'
p12
(tsS'components'
p13
(tsS'anchors'
p14
(tsss."
AnchorPoint: "top" 645 1152 basechar 0
LayerCount: 2
Fore
SplineSet
141 0 m 257
 1088 0 l 257
 1088 365 l 257
 1036 365 l 257
 1036 45 l 257
 210 45 l 257
 1061 1107 l 257
 1061 1152 l 257
 169 1152 l 257
 169 803 l 257
 221 803 l 257
 221 1107 l 257
 991 1107 l 257
 141 48 l 257
 141 0 l 257
EndSplineSet
EndChar

StartChar: a
Encoding: 97 97 174
Width: 949
VWidth: 0
GlyphClass: 2
Flags: W
PickledData: "(dp1
S'org.robofab.postScriptHintData'
p2
(dp3
sS'com.typemytype.robofont.layerData'
p4
(dp5
S'b'
(dp6
S'name'
p7
S'a'
sS'lib'
p8
(dp9
sS'unicodes'
p10
(tsS'width'
p11
I951
sS'contours'
p12
((dp13
S'points'
p14
((dp15
S'segmentType'
p16
S'curve'
p17
sS'x'
I391
sS'smooth'
p18
I1
sS'y'
S'-14'
p19
s(dp20
S'y'
S'-14'
p21
sS'x'
I507
sg18
I0
s(dp22
S'y'
I21
sS'x'
I593
sg18
I0
s(dp23
g16
S'curve'
p24
sS'x'
I687
sg18
I0
sS'y'
I91
s(dp25
g16
S'line'
p26
sS'x'
I703
sg18
I0
sS'y'
S'-1'
p27
s(dp28
g16
S'line'
p29
sS'x'
I890
sg18
I0
sS'y'
S'-1'
p30
s(dp31
g16
S'line'
p32
sS'x'
I890
sg18
I0
sS'y'
I57
s(dp33
g16
S'line'
p34
sS'x'
I764
sg18
I0
sS'y'
I57
s(dp35
g16
S'line'
p36
sS'x'
I764
sg18
I1
sS'y'
I569
s(dp37
S'y'
I672
sS'x'
I764
sg18
I0
s(dp38
S'y'
I819
sS'x'
I710
sg18
I0
s(dp39
g16
S'curve'
p40
sS'x'
I461
sg18
I1
sS'y'
I819
s(dp41
S'y'
I819
sS'x'
I332
sg18
I0
s(dp42
S'y'
I792
sS'x'
I226
sg18
I0
s(dp43
g16
S'curve'
p44
sS'x'
I155
sg18
I0
sS'y'
I724
s(dp45
g16
S'line'
p46
sS'x'
I190
sg18
I0
sS'y'
I668
s(dp47
S'y'
I726
sS'x'
I247
sg18
I0
s(dp48
S'y'
I755
sS'x'
I339
sg18
I0
s(dp49
g16
S'curve'
p50
sS'x'
I459
sg18
I1
sS'y'
I755
s(dp51
S'y'
I755
sS'x'
I600
sg18
I0
s(dp52
S'y'
I706
sS'x'
I687
sg18
I0
s(dp53
g16
S'curve'
p54
sS'x'
I687
sg18
I1
sS'y'
I551
s(dp55
g16
S'line'
p56
sS'x'
I687
sg18
I0
sS'y'
I428
s(dp57
S'y'
I443
sS'x'
I609
sg18
I0
s(dp58
S'y'
I455
sS'x'
I539
sg18
I0
s(dp59
g16
S'curve'
p60
sS'x'
I465
sg18
I1
sS'y'
I455
s(dp61
S'y'
I455
sS'x'
I295
sg18
I0
s(dp62
S'y'
I433
sS'x'
I117
sg18
I0
s(dp63
g16
S'curve'
p64
sS'x'
I117
sg18
I1
sS'y'
I222
s(dp65
S'y'
I96
sS'x'
I117
sg18
I0
s(dp66
S'y'
S'-14'
p67
sS'x'
I206
sg18
I0
stp68
s(dp69
g14
((dp70
g16
S'curve'
p71
sS'x'
I401
sg18
I1
sS'y'
I50
s(dp72
S'y'
I50
sS'x'
I246
sg18
I0
s(dp73
S'y'
I142
sS'x'
I195
sg18
I0
s(dp74
g16
S'curve'
p75
sS'x'
I195
sg18
I1
sS'y'
I220
s(dp76
S'y'
I390
sS'x'
I195
sg18
I0
s(dp77
S'y'
I393
sS'x'
I346
sg18
I0
s(dp78
g16
S'curve'
p79
sS'x'
I462
sg18
I1
sS'y'
I393
s(dp80
S'y'
I393
sS'x'
I559
sg18
I0
s(dp81
S'y'
I368
sS'x'
I687
sg18
I0
s(dp82
g16
S'curve'
p83
sS'x'
I687
sg18
I0
sS'y'
I368
s(dp84
g16
S'line'
p85
sS'x'
I687
sg18
I0
sS'y'
I151
s(dp86
S'y'
I76
sS'x'
I606
sg18
I0
s(dp87
S'y'
I50
sS'x'
I511
sg18
I0
stp88
stp89
sS'components'
p90
(tsS'anchors'
p91
(tsss."
AnchorPoint: "top" 471 805 basechar 0
LayerCount: 2
Fore
SplineSet
397 22 m 256
 259 22 182 113 182 216 c 256
 182 361 288 411 408 411 c 256
 502 411 602 391 706 375 c 257
 706 126 l 257
 574 51 493 22 397 22 c 256
396 -22 m 256
 489 -22 589 11 709 82 c 257
 709 82 722 -7 722 0 c 257
 888 0 l 257
 888 45 l 257
 765 45 l 257
 765 556 l 258
 765 675 705 826 464 826 c 256
 390 826 281 804 172 759 c 257
 190 714 l 257
 274 749 375 781 471 781 c 256
 609 781 706 705 706 538 c 258
 706 418 l 257
 607 436 502 453 406 453 c 256
 257 453 125 396 125 217 c 256
 125 74 233 -22 396 -22 c 256
EndSplineSet
Substitution2: "Single Substitution lookup 13 subtable" ordfeminine
EndChar

StartChar: acute
Encoding: 180 180 179
Width: 174
VWidth: 0
GlyphClass: 4
Flags: W
PickledData: "(dp1
S'org.robofab.postScriptHintData'
p2
(dp3
sS'com.typemytype.robofont.layerData'
p4
(dp5
S'b'
(dp6
S'name'
p7
S'acute'
p8
sS'lib'
p9
(dp10
sS'unicodes'
p11
(tsS'width'
p12
I45
sS'contours'
p13
(tsS'components'
p14
(tsS'anchors'
p15
(tsss."
AnchorPoint: "top" 29 804 mark 0
LayerCount: 2
Fore
SplineSet
109 1241 m 257
 18 989 l 257
 50 989 l 257
 169 1241 l 257
 109 1241 l 257
EndSplineSet
EndChar

StartChar: ae
Encoding: 230 230 183
Width: 1637
VWidth: 0
GlyphClass: 2
Flags: W
PickledData: "(dp1
S'org.robofab.postScriptHintData'
p2
(dp3
sS'com.typemytype.robofont.layerData'
p4
(dp5
S'b'
(dp6
S'name'
p7
S'ae'
p8
sS'lib'
p9
(dp10
sS'unicodes'
p11
(tsS'width'
p12
I1657
sS'contours'
p13
(tsS'components'
p14
(tsS'anchors'
p15
(tsss."
AnchorPoint: "top" 873 804 basechar 0
LayerCount: 2
Fore
SplineSet
431 -22 m 256
 542 -22 692 -11 825 109 c 257
 901 14 1007 -22 1136 -22 c 256
 1310 -22 1388 28 1507 141 c 257
 1486 180 l 257
 1390 77 1264 24 1137 24 c 256
 906 24 803 149 804 391 c 257
 1500 391 l 257
 1500 680 1354 826 1140 826 c 256
 968 826 831 737 790 570 c 257
 780 742 701 826 495 826 c 256
 368 826 256 783 181 713 c 257
 208 674 l 257
 271 734 373 781 495 781 c 256
 663 781 749 719 749 534 c 258
 749 431 l 257
 742 432 552 433 546 433 c 256
 315 433 144 392 144 215 c 256
 144 58 245 -22 431 -22 c 256
434 21 m 256
 275 21 200 90 200 216 c 256
 200 363 336 390 545 390 c 256
 551 390 744 389 749 389 c 257
 749 322 766 215 801 146 c 257
 710 55 592 21 434 21 c 256
1448 432 m 257
 805 433 l 257
 813 612 920 781 1140 781 c 256
 1330 781 1447 649 1448 432 c 257
EndSplineSet
EndChar

StartChar: ampersand
Encoding: 38 38 189
Width: 1116
VWidth: 0
GlyphClass: 2
Flags: W
PickledData: "(dp1
S'org.robofab.postScriptHintData'
p2
(dp3
sS'com.typemytype.robofont.layerData'
p4
(dp5
S'b'
(dp6
S'name'
p7
S'ampersand'
p8
sS'lib'
p9
(dp10
sS'unicodes'
p11
(tsS'width'
p12
I1088
sS'contours'
p13
(tsS'components'
p14
(tsS'anchors'
p15
(tsss."
LayerCount: 2
Fore
SplineSet
481 -22 m 256
 621 -22 740 26 808 108 c 257
 893 0 l 257
 1067 0 l 257
 1067 46 l 257
 921 46 l 257
 842 145 l 257
 886 212 931 355 934 411 c 257
 1067 411 l 257
 1067 456 l 257
 892 456 l 257
 890 388 851 247 814 184 c 257
 453 631 l 257
 635 704 747 827 747 967 c 256
 747 1100 651 1178 485 1178 c 256
 316 1178 218 1101 218 967 c 256
 218 870 283 768 380 649 c 257
 203 591 117 475 117 308 c 256
 117 97 250 -22 481 -22 c 256
484 27 m 256
 287 27 175 128 175 309 c 256
 175 459 251 563 408 609 c 257
 778 146 l 257
 713 68 606 27 484 27 c 256
429 668 m 257
 343 777 269 872 269 967 c 256
 269 1071 353 1132 485 1132 c 256
 617 1132 693 1072 693 966 c 256
 693 838 590 729 429 668 c 257
EndSplineSet
EndChar

StartChar: apostrophemod
Encoding: 700 700 191
Width: 600
VWidth: 0
GlyphClass: 4
Flags: W
PickledData: "(dp1
S'org.robofab.postScriptHintData'
p2
(dp3
s."
AnchorPoint: "top" 67 804 mark 0
LayerCount: 2
Fore
SplineSet
49 920 m 257
 139 920 156 992 156 1077 c 258
 157 1191 l 257
 58 1192 l 257
 58 1083 l 257
 116 1083 l 257
 116 974 103 952 49 945 c 257
 49 920 l 257
EndSplineSet
EndChar

StartChar: approxequal
Encoding: 8776 8776 192
Width: 665
VWidth: 0
GlyphClass: 2
Flags: W
PickledData: "(dp1
S'org.robofab.postScriptHintData'
p2
(dp3
s."
LayerCount: 2
Fore
SplineSet
604 727 m 257
 549 696 509 677 465 677 c 256
 430 677 394 688 339 710 c 256
 272 736 223 752 172 752 c 256
 127 752 85 739 42 706 c 257
 42 641 l 257
 84 672 123 687 162 687 c 256
 207 687 250 672 309 650 c 256
 371 624 415 613 458 613 c 256
 507 613 552 629 604 664 c 257
 604 727 l 257
604 513 m 257
 549 482 509 463 465 463 c 256
 430 463 394 474 339 496 c 256
 272 522 223 538 172 538 c 256
 127 538 85 525 42 491 c 257
 42 427 l 257
 84 458 123 473 162 473 c 256
 207 473 250 458 309 435 c 256
 371 410 415 398 458 398 c 256
 507 398 552 415 604 450 c 257
 604 513 l 257
EndSplineSet
EndChar

StartChar: asciicircum
Encoding: 94 94 195
Width: 913
VWidth: 0
GlyphClass: 2
Flags: W
PickledData: "(dp1
S'org.robofab.postScriptHintData'
p2
(dp3
sS'com.typemytype.robofont.layerData'
p4
(dp5
S'b'
(dp6
S'name'
p7
S'asciicircum'
p8
sS'lib'
p9
(dp10
sS'unicodes'
p11
(tsS'width'
p12
I911
sS'contours'
p13
(tsS'components'
p14
(tsS'anchors'
p15
(tsss."
LayerCount: 2
Fore
SplineSet
71 800 m 257
 128 800 l 257
 463 1227 l 257
 783 800 l 257
 838 800 l 257
 498 1283 l 257
 429 1283 l 257
 71 800 l 257
EndSplineSet
EndChar

StartChar: asciitilde
Encoding: 126 126 196
Width: 759
VWidth: 0
GlyphClass: 2
Flags: W
PickledData: "(dp1
S'org.robofab.postScriptHintData'
p2
(dp3
sS'com.typemytype.robofont.layerData'
p4
(dp5
S'b'
(dp6
S'name'
p7
S'asciitilde'
p8
sS'lib'
p9
(dp10
sS'unicodes'
p11
(tsS'width'
p12
I708
sS'contours'
p13
(tsS'components'
p14
(tsS'anchors'
p15
(tsss."
LayerCount: 2
Fore
SplineSet
676 637 m 257
 645 591 609 565 559 565 c 256
 435 565 340 682 204 682 c 256
 148 682 95 648 70 603 c 257
 81 558 l 257
 114 610 154 633 204 633 c 256
 323 633 410 516 558 516 c 256
 619 516 663 550 687 591 c 257
 676 637 l 257
EndSplineSet
EndChar

StartChar: asterisk
Encoding: 42 42 197
Width: 940
VWidth: 0
GlyphClass: 2
Flags: W
PickledData: "(dp1
S'org.robofab.postScriptHintData'
p2
(dp3
sS'com.typemytype.robofont.layerData'
p4
(dp5
S'b'
(dp6
S'name'
p7
S'asterisk'
p8
sS'lib'
p9
(dp10
sS'unicodes'
p11
(tsS'width'
p12
I941
sS'contours'
p13
(tsS'components'
p14
(tsS'anchors'
p15
(tsss."
LayerCount: 2
Fore
SplineSet
245 416 m 257
 470 763 l 257
 694 416 l 257
 766 470 l 257
 495 786 l 257
 894 912 l 257
 864 992 l 257
 488 818 l 257
 518 1232 l 257
 422 1232 l 257
 453 818 l 257
 75 992 l 257
 45 912 l 257
 444 786 l 257
 174 470 l 257
 245 416 l 257
EndSplineSet
EndChar

StartChar: at
Encoding: 64 64 198
Width: 1389
VWidth: 0
GlyphClass: 2
Flags: W
PickledData: "(dp1
S'org.robofab.postScriptHintData'
p2
(dp3
sS'com.typemytype.robofont.layerData'
p4
(dp5
S'b'
(dp6
S'name'
p7
S'at'
p8
sS'lib'
p9
(dp10
sS'unicodes'
p11
(tsS'width'
p12
I1379
sS'contours'
p13
(tsS'components'
p14
(tsS'anchors'
p15
(tsss."
LayerCount: 2
Fore
SplineSet
760 -29 m 256
 928 -29 1043 8 1140 78 c 257
 1121 105 l 257
 1027 42 910 9 760 9 c 256
 389 9 170 222 170 544 c 256
 170 877 414 1126 747 1126 c 256
 1086 1126 1240 909 1240 680 c 256
 1240 424 1074 274 979 283 c 256
 921 286 908 329 939 475 c 258
 1029 881 l 257
 990 881 l 257
 947 686 l 257
 948 821 856 901 733 901 c 256
 527 901 414 703 414 520 c 256
 414 340 522 247 651 247 c 256
 780 247 865 344 907 469 c 257
 850 300 907 253 963 247 c 256
 1107 232 1282 422 1282 680 c 256
 1282 922 1131 1164 751 1164 c 256
 345 1164 117 849 117 546 c 256
 117 250 323 -29 760 -29 c 256
658 284 m 256
 527 284 463 376 463 519 c 256
 463 703 566 860 728 860 c 256
 844 860 919 794 919 652 c 256
 919 480 815 284 658 284 c 256
EndSplineSet
EndChar

StartChar: b
Encoding: 98 98 200
Width: 1042
VWidth: 0
GlyphClass: 2
Flags: W
PickledData: "(dp1
S'org.robofab.postScriptHintData'
p2
(dp3
sS'com.typemytype.robofont.layerData'
p4
(dp5
S'b'
(dp6
S'name'
p7
S'b'
sS'lib'
p8
(dp9
sS'unicodes'
p10
(tsS'width'
p11
I1037
sS'contours'
p12
(tsS'components'
p13
(tsS'anchors'
p14
(tsss."
AnchorPoint: "top" 605 804 basechar 0
LayerCount: 2
Fore
SplineSet
553 -22 m 256
 810.957 -22 980.113 143.93 980.113 413.739 c 256
 980.113 668.83 819.2 826 570 826 c 256
 470.376 826 356.511 784.857 265 715.944 c 257
 265 1174 l 257
 72 1174 l 257
 72 1129 l 257
 205 1129 l 257
 205 45 l 257
 64 45 l 257
 64 0 l 257
 265 0 l 257
 265 93.4158 l 257
 344.237 20.9498 450.536 -22 553 -22 c 256
265 667.149 m 257
 358.578 738.033 470.57 780 564 780 c 256
 782 780 922 635 922 400 c 256
 922 167 776 23 549 23 c 256
 450.39 23 344.803 67.9609 265 143.55 c 257
 265 667.149 l 257
EndSplineSet
EndChar

StartChar: backslash
Encoding: 92 92 201
Width: 344
VWidth: 0
GlyphClass: 2
Flags: W
PickledData: "(dp1
S'org.robofab.postScriptHintData'
p2
(dp3
sS'com.typemytype.robofont.layerData'
p4
(dp5
S'b'
(dp6
S'name'
p7
S'backslash'
p8
sS'lib'
p9
(dp10
sS'unicodes'
p11
(tsS'width'
p12
I296
sS'contours'
p13
(tsS'components'
p14
(tsS'anchors'
p15
(tsss."
LayerCount: 2
Fore
SplineSet
303 -24 m 257
 363 -24 l 257
 25 1177 l 257
 -30 1177 l 257
 303 -24 l 257
EndSplineSet
EndChar

StartChar: bar
Encoding: 124 124 202
Width: 364
VWidth: 0
GlyphClass: 2
Flags: W
PickledData: "(dp1
S'org.robofab.postScriptHintData'
p2
(dp3
sS'com.typemytype.robofont.layerData'
p4
(dp5
S'b'
(dp6
S'name'
p7
S'bar'
p8
sS'lib'
p9
(dp10
sS'unicodes'
p11
(tsS'width'
p12
I348
sS'contours'
p13
(tsS'components'
p14
(tsS'anchors'
p15
(tsss."
LayerCount: 2
Fore
SplineSet
161 -20 m 257
 214 -20 l 257
 214 1185 l 257
 161 1185 l 257
 161 -20 l 257
EndSplineSet
EndChar

StartChar: braceleft
Encoding: 123 123 204
Width: 429
VWidth: 0
GlyphClass: 2
Flags: W
PickledData: "(dp1
S'org.robofab.postScriptHintData'
p2
(dp3
sS'com.typemytype.robofont.layerData'
p4
(dp5
S'b'
(dp6
S'name'
p7
S'braceleft'
p8
sS'lib'
p9
(dp10
sS'unicodes'
p11
(tsS'width'
p12
I404
sS'contours'
p13
(tsS'components'
p14
(tsS'anchors'
p15
(tsss."
LayerCount: 2
Fore
SplineSet
325 -9 m 258
 385 -9 l 257
 385 34 l 257
 238 34 213 60 213 214 c 256
 213 518 193 554 88 575 c 257
 196 587 213 631 213 930 c 256
 213 1091 235 1115 385 1115 c 257
 385 1160 l 257
 326 1160 l 258
 161 1160 156 1061 156 842 c 256
 156 665 158 603 16 603 c 257
 16 547 l 257
 149 547 156 492 156 332 c 256
 156 91 160 -9 325 -9 c 258
EndSplineSet
EndChar

StartChar: braceright
Encoding: 125 125 205
Width: 431
VWidth: 0
GlyphClass: 2
Flags: W
PickledData: "(dp1
S'org.robofab.postScriptHintData'
p2
(dp3
sS'com.typemytype.robofont.layerData'
p4
(dp5
S'b'
(dp6
S'name'
p7
S'braceright'
p8
sS'lib'
p9
(dp10
sS'unicodes'
p11
(tsS'width'
p12
I406
sS'contours'
p13
(tsS'components'
p14
(tsS'anchors'
p15
(tsss."
LayerCount: 2
Fore
SplineSet
50 -9 m 257
 109 -9 l 258
 274 -9 279 91 279 332 c 256
 279 492 285 547 418 547 c 257
 418 603 l 257
 277 603 279 666 279 842 c 256
 279 1062 273 1160 108 1160 c 258
 50 1160 l 257
 50 1115 l 257
 200 1115 222 1091 222 930 c 256
 222 631 238 587 346 575 c 257
 241 554 222 518 222 214 c 256
 222 60 197 34 50 34 c 257
 50 -9 l 257
EndSplineSet
EndChar

StartChar: bracketleft
Encoding: 91 91 206
Width: 355
VWidth: 0
GlyphClass: 2
Flags: W
PickledData: "(dp1
S'org.robofab.postScriptHintData'
p2
(dp3
sS'com.typemytype.robofont.layerData'
p4
(dp5
S'b'
(dp6
S'name'
p7
S'bracketleft'
p8
sS'lib'
p9
(dp10
sS'unicodes'
p11
(tsS'width'
p12
I318
sS'contours'
p13
(tsS'components'
p14
(tsS'anchors'
p15
(tsss."
LayerCount: 2
Fore
SplineSet
159 -134 m 257
 344 -134 l 257
 344 -84 l 257
 225 -84 l 257
 225 1149 l 257
 344 1149 l 257
 344 1197 l 257
 159 1197 l 257
 159 -134 l 257
EndSplineSet
EndChar

StartChar: bracketright
Encoding: 93 93 207
Width: 353
VWidth: 0
GlyphClass: 2
Flags: W
PickledData: "(dp1
S'org.robofab.postScriptHintData'
p2
(dp3
sS'com.typemytype.robofont.layerData'
p4
(dp5
S'b'
(dp6
S'name'
p7
S'bracketright'
p8
sS'lib'
p9
(dp10
sS'unicodes'
p11
(tsS'width'
p12
I316
sS'contours'
p13
(tsS'components'
p14
(tsS'anchors'
p15
(tsss."
LayerCount: 2
Fore
SplineSet
2 -134 m 257
 186 -134 l 257
 186 1197 l 257
 2 1197 l 257
 2 1149 l 257
 120 1149 l 257
 120 -84 l 257
 2 -84 l 257
 2 -134 l 257
EndSplineSet
EndChar

StartChar: breve
Encoding: 728 728 208
Width: 267
VWidth: 0
GlyphClass: 4
Flags: W
PickledData: "(dp1
S'org.robofab.postScriptHintData'
p2
(dp3
sS'com.typemytype.robofont.layerData'
p4
(dp5
S'b'
(dp6
S'name'
p7
S'breve'
p8
sS'lib'
p9
(dp10
sS'unicodes'
p11
(tsS'width'
p12
I233
sS'contours'
p13
(tsS'components'
p14
(tsS'anchors'
p15
(tsss."
AnchorPoint: "top" 139 804 mark 0
LayerCount: 2
Fore
SplineSet
137 932 m 256
 218 931 267 978 282 1069 c 257
 244 1069 l 257
 226 1005 191 974 137 974 c 256
 81 974 46 1005 29 1069 c 257
 -11 1069 l 257
 7 978 57 931 137 932 c 256
EndSplineSet
EndChar

StartChar: breveinvertedcomb
Encoding: 785 785 209
Width: 924
VWidth: 0
GlyphClass: 4
Flags: W
PickledData: "(dp1
S'org.robofab.postScriptHintData'
p2
(dp3
sS'com.typemytype.robofont.layerData'
p4
(dp5
S'b'
(dp6
S'name'
p7
S'uni0311'
p8
sS'lib'
p9
(dp10
sS'unicodes'
p11
(tsS'width'
p12
I962
sS'contours'
p13
(tsS'components'
p14
(tsS'anchors'
p15
(tsss."
AnchorPoint: "top" 468 809 mark 0
LayerCount: 2
Fore
SplineSet
317 937 m 257
 360 937 l 257
 377 999 412 1030 467 1030 c 256
 520 1030 555 999 573 937 c 257
 614 937 l 257
 599 1029 549 1076 467 1075 c 256
 386 1076 335 1029 317 937 c 257
EndSplineSet
EndChar

StartChar: brokenbar
Encoding: 166 166 210
Width: 423
VWidth: 0
GlyphClass: 2
Flags: W
PickledData: "(dp1
S'org.robofab.postScriptHintData'
p2
(dp3
sS'com.typemytype.robofont.layerData'
p4
(dp5
S'b'
(dp6
S'name'
p7
S'brokenbar'
p8
sS'lib'
p9
(dp10
sS'unicodes'
p11
(tsS'width'
p12
I418
sS'contours'
p13
(tsS'components'
p14
(tsS'anchors'
p15
(tsss."
LayerCount: 2
Fore
SplineSet
183 -46 m 257
 238 -46 l 257
 238 522 l 257
 183 522 l 257
 183 -46 l 257
183 720 m 257
 238 720 l 257
 238 1288 l 257
 183 1288 l 257
 183 720 l 257
EndSplineSet
EndChar

StartChar: bullet
Encoding: 8226 8226 211
Width: 747
VWidth: 0
GlyphClass: 2
Flags: W
PickledData: "(dp1
S'org.robofab.postScriptHintData'
p2
(dp3
sS'com.typemytype.robofont.layerData'
p4
(dp5
S'b'
(dp6
S'name'
p7
S'bullet'
p8
sS'lib'
p9
(dp10
sS'unicodes'
p11
(tsS'width'
p12
I768
sS'contours'
p13
(tsS'components'
p14
(tsS'anchors'
p15
(tsss."
LayerCount: 2
Fore
SplineSet
374 462 m 256
 513 462 625 569 625 703 c 256
 625 839 513 944 374 944 c 256
 233 944 123 838 123 703 c 256
 123 571 233 462 374 462 c 256
EndSplineSet
EndChar

StartChar: c
Encoding: 99 99 212
Width: 957
VWidth: 0
GlyphClass: 2
Flags: W
PickledData: "(dp1
S'org.robofab.postScriptHintData'
p2
(dp3
sS'com.typemytype.robofont.layerData'
p4
(dp5
S'b'
(dp6
S'name'
p7
S'c'
sS'lib'
p8
(dp9
sS'unicodes'
p10
(tsS'width'
p11
I956
sS'contours'
p12
((dp13
S'points'
p14
((dp15
S'y'
S'-14'
p16
sS'x'
I633
sS'smooth'
p17
I0
s(dp18
S'y'
I33
sS'x'
I758
sg17
I0
s(dp19
S'segmentType'
p20
S'curve'
p21
sS'x'
I868
sg17
I0
sS'y'
I142
s(dp22
g20
S'line'
p23
sS'x'
I845
sg17
I0
sS'y'
I213
s(dp24
S'y'
I105
sS'x'
I763
sg17
I0
s(dp25
S'y'
I51
sS'x'
I637
sg17
I0
s(dp26
g20
S'curve'
p27
sS'x'
I515
sg17
I1
sS'y'
I51
s(dp28
S'y'
I51
sS'x'
I316
sg17
I0
s(dp29
S'y'
I193
sS'x'
I169
sg17
I0
s(dp30
g20
S'curve'
p31
sS'x'
I169
sg17
I1
sS'y'
I406
s(dp32
S'y'
I630
sS'x'
I169
sg17
I0
s(dp33
S'y'
I755
sS'x'
I336
sg17
I0
s(dp34
g20
S'curve'
p35
sS'x'
I515
sg17
I1
sS'y'
I755
s(dp36
S'y'
I755
sS'x'
I705
sg17
I0
s(dp37
S'y'
I657
sS'x'
I768
sg17
I0
s(dp38
g20
S'curve'
p39
sS'x'
I776
sg17
I0
sS'y'
I570
s(dp40
g20
S'line'
p41
sS'x'
I840
sg17
I0
sS'y'
I570
s(dp42
g20
S'line'
p43
sS'x'
I840
sg17
I0
sS'y'
I825
s(dp44
g20
S'line'
p45
sS'x'
I767
sg17
I0
sS'y'
I825
s(dp46
g20
S'line'
p47
sS'x'
I767
sg17
I0
sS'y'
I714
s(dp48
S'y'
I764
sS'x'
I736
sg17
I0
s(dp49
S'y'
I819
sS'x'
I645
sg17
I0
s(dp50
g20
S'curve'
p51
sS'x'
I522
sg17
I1
sS'y'
I819
s(dp52
S'y'
I819
sS'x'
F268.96800000000002
sg17
I0
s(dp53
S'y'
I650
sS'x'
I90
sg17
I0
s(dp54
g20
S'curve'
p55
sS'x'
I90
sg17
I1
sS'y'
I406
s(dp56
S'y'
I145
sS'x'
I90
sg17
I0
s(dp57
S'y'
S'-14'
p58
sS'x'
I286
sg17
I0
s(dp59
g20
S'curve'
p60
sS'x'
I515
sg17
I1
sS'y'
S'-14'
p61
stp62
stp63
sS'components'
p64
(tsS'anchors'
p65
(tsss."
AnchorPoint: "top" 485 805 basechar 0
AnchorPoint: "bot" 446 0 basechar 0
LayerCount: 2
Fore
SplineSet
120 404 m 256
 120 624.718 273.746 780.009 491.422 780.009 c 256
 632.283 780.009 744.108 693.294 763 570 c 257
 812 570 l 257
 812 805 l 257
 756 805 l 257
 755 697 l 257
 715 772 603 826 488 826 c 256
 239 826 62 652 62 405 c 256
 62 155 234 -22 477 -22 c 256
 622 -22 725 23 816 120 c 257
 808 167 l 257
 711 68 620 25 481 25 c 256
 479.687 24.9876 478.376 24.9813 477.068 24.9813 c 256
 268.139 24.9813 120 183.381 120 404 c 256
EndSplineSet
EndChar

StartChar: caron
Encoding: 711 711 214
Width: 375
VWidth: 0
GlyphClass: 4
Flags: W
PickledData: "(dp1
S'org.robofab.postScriptHintData'
p2
(dp3
sS'com.typemytype.robofont.layerData'
p4
(dp5
S'b'
(dp6
S'name'
p7
S'caron'
p8
sS'lib'
p9
(dp10
sS'unicodes'
p11
(tsS'width'
p12
I351
sS'contours'
p13
(tsS'components'
p14
(tsS'anchors'
p15
(tsss."
AnchorPoint: "top" 187 804 mark 0
LayerCount: 2
Fore
SplineSet
163 928 m 257
 203 928 l 257
 375 1235 l 257
 328 1235 l 257
 183 974 l 257
 36 1235 l 257
 -12 1235 l 257
 163 928 l 257
EndSplineSet
EndChar

StartChar: caron.alt
Encoding: 65536 -1 215
Width: 600
VWidth: 0
GlyphClass: 4
Flags: W
PickledData: "(dp1
S'org.robofab.postScriptHintData'
p2
(dp3
s."
AnchorPoint: "caron.alt" 193 804 mark 0
LayerCount: 2
Fore
SplineSet
304 897 m 257
 402 896 416 976 415 1064 c 258
 415 1174 l 257
 317 1174 l 257
 317 1077 l 257
 374 1077 l 257
 374 993 372 927 304 923 c 257
 304 897 l 257
EndSplineSet
EndChar

StartChar: cedilla
Encoding: 184 184 220
Width: 586
VWidth: 0
GlyphClass: 4
Flags: W
PickledData: "(dp1
S'org.robofab.postScriptHintData'
p2
(dp3
s."
AnchorPoint: "bot" 290 0 mark 0
LayerCount: 2
Fore
SplineSet
279 -290 m 256
 338 -290 391 -265 391 -203 c 256
 391 -154 358 -110 262 -109 c 257
 300 6 l 257
 266 6 l 257
 207 -146 l 257
 299 -147 328 -169 328 -196 c 256
 328 -230 299 -248 252 -248 c 256
 229 -248 201 -243 170 -234 c 257
 170 -264 l 257
 203 -281 242 -290 279 -290 c 256
EndSplineSet
EndChar

StartChar: cent
Encoding: 162 162 221
Width: 914
VWidth: 0
GlyphClass: 2
Flags: W
PickledData: "(dp1
S'org.robofab.postScriptHintData'
p2
(dp3
sS'com.typemytype.robofont.layerData'
p4
(dp5
S'b'
(dp6
S'name'
p7
S'cent'
p8
sS'lib'
p9
(dp10
sS'unicodes'
p11
(tsS'width'
p12
I909
sS'contours'
p13
(tsS'components'
p14
(tsS'anchors'
p15
(tsss."
LayerCount: 2
Fore
SplineSet
330 -220 m 257
 644 1019 l 257
 611 1024 l 257
 297 -215 l 257
 330 -220 l 257
EndSplineSet
Refer: 212 99 N 1 0 0 1 0 0 2
EndChar

StartChar: circumflex
Encoding: 710 710 222
Width: 374
VWidth: 0
GlyphClass: 4
Flags: W
PickledData: "(dp1
S'org.robofab.postScriptHintData'
p2
(dp3
sS'com.typemytype.robofont.layerData'
p4
(dp5
S'b'
(dp6
S'name'
p7
S'circumflex'
p8
sS'lib'
p9
(dp10
sS'unicodes'
p11
(tsS'width'
p12
I347
sS'contours'
p13
(tsS'components'
p14
(tsS'anchors'
p15
(tsss."
AnchorPoint: "top" 190 804 mark 0
LayerCount: 2
Fore
SplineSet
37 928 m 257
 185 1194 l 257
 331 928 l 257
 378 928 l 257
 206 1237 l 257
 163 1237 l 257
 -12 928 l 257
 37 928 l 257
EndSplineSet
EndChar

StartChar: colon
Encoding: 58 58 223
Width: 464
VWidth: 0
GlyphClass: 2
Flags: W
PickledData: "(dp1
S'org.robofab.postScriptHintData'
p2
(dp3
sS'com.typemytype.robofont.layerData'
p4
(dp5
S'b'
(dp6
S'name'
p7
S'colon'
p8
sS'lib'
p9
(dp10
sS'unicodes'
p11
(tsS'width'
p12
I453
sS'contours'
p13
(tsS'components'
p14
(tsS'anchors'
p15
(tsss."
LayerCount: 2
Fore
SplineSet
190 253 m 257
 281 253 l 257
 281 352 l 257
 190 352 l 257
 190 253 l 257
190 718 m 257
 281 718 l 257
 281 818 l 257
 190 818 l 257
 190 718 l 257
EndSplineSet
EndChar

StartChar: comma
Encoding: 44 44 224
Width: 389
VWidth: 0
GlyphClass: 2
Flags: W
PickledData: "(dp1
S'org.robofab.postScriptHintData'
p2
(dp3
sS'com.typemytype.robofont.layerData'
p4
(dp5
S'b'
(dp6
S'name'
p7
S'comma'
p8
sS'lib'
p9
(dp10
sS'unicodes'
p11
(tsS'width'
p12
I374
sS'contours'
p13
(tsS'components'
p14
(tsS'anchors'
p15
(tsss."
LayerCount: 2
Fore
SplineSet
169 -168 m 257
 263 -168 278 -94 278 -3 c 258
 278 111 l 257
 178 111 l 257
 178 106 178 5 179 0 c 257
 235 0 l 257
 235 -112 224 -135 169 -142 c 257
 169 -168 l 257
EndSplineSet
EndChar

StartChar: commaaccent
Encoding: 806 806 225
Width: 411
VWidth: 0
GlyphClass: 4
Flags: W
PickledData: "(dp1
S'org.robofab.postScriptHintData'
p2
(dp3
sS'com.typemytype.robofont.layerData'
p4
(dp5
S'b'
(dp6
S'name'
p7
S'uni0326'
p8
sS'lib'
p9
(dp10
sS'unicodes'
p11
(tsS'width'
p12
I418
sS'contours'
p13
(tsS'components'
p14
(tsS'anchors'
p15
(tsss."
AnchorPoint: "bot" 244 0 mark 0
LayerCount: 2
Fore
SplineSet
178 -406 m 257
 276 -407 290 -326 289 -238 c 258
 289 -128 l 257
 191 -128 l 257
 191 -225 l 257
 248 -225 l 257
 248 -309 246 -375 178 -380 c 257
 178 -406 l 257
EndSplineSet
EndChar

StartChar: commaturnedabovecomb
Encoding: 786 786 226
Width: 600
VWidth: 0
GlyphClass: 4
Flags: W
PickledData: "(dp1
S'org.robofab.postScriptHintData'
p2
(dp3
s."
AnchorPoint: "top" 279 804 mark 0
LayerCount: 2
Fore
SplineSet
330 929 m 257
 330 1038 l 257
 272 1038 l 257
 272 1147 285 1169 339 1176 c 257
 339 1201 l 257
 249 1201 232 1129 232 1044 c 258
 231 930 l 257
 330 929 l 257
EndSplineSet
EndChar

StartChar: copyright
Encoding: 169 169 227
Width: 1515
VWidth: 0
GlyphClass: 2
Flags: W
PickledData: "(dp1
S'org.robofab.postScriptHintData'
p2
(dp3
sS'com.typemytype.robofont.layerData'
p4
(dp5
S'b'
(dp6
S'name'
p7
S'copyright'
p8
sS'lib'
p9
(dp10
sS'unicodes'
p11
(tsS'width'
p12
I1512
sS'contours'
p13
(tsS'components'
p14
(tsS'anchors'
p15
(tsss."
LayerCount: 2
Fore
SplineSet
760 166 m 256
 884 166 1004 214 1088 304 c 257
 1079 349 l 257
 989 257 890 209 763 208 c 256
 573 207 409 358 409 582 c 256
 409 845 609 952 772 952 c 256
 929 952 1025 875 1037 747 c 257
 1083 747 l 257
 1083 973 l 257
 1039 973 l 257
 1037 869 l 257
 986 959 885 994 769 994 c 256
 585 994 356 874 356 583 c 256
 356 331 541 166 760 166 c 256
757 -45 m 256
 1116 -45 1399 225 1399 580 c 256
 1399 933 1116 1204 757 1204 c 256
 398 1204 116 933 116 580 c 256
 116 225 398 -45 757 -45 c 256
757 -2 m 256
 429 -2 171 250 171 579 c 256
 171 909 429 1161 757 1161 c 256
 1085 1161 1343 909 1343 579 c 256
 1343 252 1085 -2 757 -2 c 256
EndSplineSet
EndChar

StartChar: currency
Encoding: 164 164 228
Width: 1113
VWidth: 0
GlyphClass: 2
Flags: W
PickledData: "(dp1
S'org.robofab.postScriptHintData'
p2
(dp3
sS'com.typemytype.robofont.layerData'
p4
(dp5
S'b'
(dp6
S'name'
p7
S'currency'
p8
sS'lib'
p9
(dp10
sS'unicodes'
p11
(tsS'width'
p12
I1124
sS'contours'
p13
(tsS'components'
p14
(tsS'anchors'
p15
(tsss."
LayerCount: 2
Fore
SplineSet
911 590 m 257
 959 635 l 257
 848 743 l 257
 913 835 947 934 947 1030 c 256
 947 1127 914 1225 848 1314 c 257
 959 1422 l 257
 911 1467 l 257
 811 1356 l 257
 719 1406 633 1432 550 1432 c 256
 471 1432 391 1407 308 1358 c 257
 208 1466 l 257
 154 1422 l 257
 262 1316 l 257
 192 1232 157 1124 157 1022 c 256
 157 920 192 817 261 741 c 257
 154 635 l 257
 208 591 l 257
 308 698 l 257
 393 648 475 625 554 625 c 256
 639 625 724 650 812 700 c 257
 911 590 l 257
552 678 m 256
 387 678 211 794 211 1029 c 256
 211 1263 388 1379 553 1379 c 256
 718 1379 900 1269 900 1029 c 256
 900 789 720 678 552 678 c 256
EndSplineSet
EndChar

StartChar: d
Encoding: 100 100 229
Width: 1017
VWidth: 0
GlyphClass: 2
Flags: W
PickledData: "(dp1
S'org.robofab.postScriptHintData'
p2
(dp3
sS'com.typemytype.robofont.layerData'
p4
(dp5
S'b'
(dp6
S'name'
p7
S'd'
sS'lib'
p8
(dp9
sS'unicodes'
p10
(tsS'width'
p11
I1011
sS'contours'
p12
(tsS'components'
p13
(tsS'anchors'
p14
(tsss."
AnchorPoint: "top" 463 804 basechar 0
AnchorPoint: "caron.alt" 840 804 basechar 0
LayerCount: 2
Fore
SplineSet
61.9605 404.684 m 256
 61.9605 152.121 242.215 -22 487 -22 c 256
 588.318 -22 703.609 21.4679 785 89.2555 c 257
 785 0 l 257
 981 0 l 257
 981 45 l 257
 844 45 l 257
 844 1174 l 257
 651 1174 l 257
 651 1129 l 257
 785 1129 l 257
 785 713.098 l 257
 698.105 781.524 572.507 826 462 826 c 256
 229.067 826 61.9605 655.047 61.9605 404.684 c 256
785 136.669 m 257
 710.355 74.8499 502.731 22.2556 488.743 22.2556 c 256
 488.252 22.2556 487.999 22.3204 487.999 22.4517 c 256
 487.999 22.7085 488.964 23.2199 491 24 c 257
 276 24 120 176 120 396 c 256
 120 624 264 780 466 780 c 256
 573.254 780 696.486 736.063 785 669.609 c 257
 785 136.669 l 257
EndSplineSet
EndChar

StartChar: dagger
Encoding: 8224 8224 230
Width: 411
VWidth: 0
GlyphClass: 2
Flags: W
PickledData: "(dp1
S'org.robofab.postScriptHintData'
p2
(dp3
sS'com.typemytype.robofont.layerData'
p4
(dp5
S'b'
(dp6
S'name'
p7
S'dagger'
p8
sS'lib'
p9
(dp10
sS'unicodes'
p11
(tsS'width'
p12
I364
sS'contours'
p13
(tsS'components'
p14
(tsS'anchors'
p15
(tsss."
LayerCount: 2
Fore
SplineSet
192 62 m 257
 220 62 l 257
 220 256 248 386 233 527 c 257
 233 644 246 700 220 833 c 257
 412 817 l 257
 412 873 l 257
 220 865 l 257
 248 1088 l 257
 164 1088 l 257
 192 865 l 257
 -4 873 l 257
 -4 817 l 257
 192 833 l 257
 167 698 179 642 179 523 c 257
 164 384 192 259 192 62 c 257
EndSplineSet
EndChar

StartChar: daggerdbl
Encoding: 8225 8225 231
Width: 516
VWidth: 0
GlyphClass: 2
Flags: W
PickledData: "(dp1
S'org.robofab.postScriptHintData'
p2
(dp3
sS'com.typemytype.robofont.layerData'
p4
(dp5
S'b'
(dp6
S'name'
p7
S'daggerdbl'
p8
sS'lib'
p9
(dp10
sS'unicodes'
p11
(tsS'width'
p12
I486
sS'contours'
p13
(tsS'components'
p14
(tsS'anchors'
p15
(tsss."
LayerCount: 2
Fore
SplineSet
211 -7 m 257
 307 -7 l 257
 278 281 l 257
 498 265 l 257
 498 335 l 257
 276 312 l 257
 285 366 292 464 292 593 c 256
 292 726 285 832 276 888 c 257
 498 866 l 257
 498 936 l 257
 278 920 l 257
 307 1208 l 257
 211 1208 l 257
 241 920 l 257
 17 936 l 257
 17 866 l 257
 243 888 l 257
 232 833 227 730 227 600 c 256
 227 469 232 367 243 312 c 257
 17 335 l 257
 17 265 l 257
 241 281 l 257
 211 -7 l 257
EndSplineSet
EndChar

StartChar: dblgravecomb
Encoding: 783 783 232
Width: 646
VWidth: 0
GlyphClass: 4
Flags: W
PickledData: "(dp1
S'org.robofab.postScriptHintData'
p2
(dp3
sS'com.typemytype.robofont.layerData'
p4
(dp5
S'b'
(dp6
S'name'
p7
S'uni030F'
p8
sS'lib'
p9
(dp10
sS'unicodes'
p11
(tsS'width'
p12
I643
sS'contours'
p13
(tsS'components'
p14
(tsS'anchors'
p15
(tsss."
AnchorPoint: "top" 335 804 mark 0
LayerCount: 2
Fore
SplineSet
205 989 m 257
 236 989 l 257
 128 1286 l 257
 68 1286 l 257
 205 989 l 257
399 989 m 257
 430 989 l 257
 322 1286 l 257
 262 1286 l 257
 399 989 l 257
EndSplineSet
EndChar

StartChar: degree
Encoding: 176 176 236
Width: 895
VWidth: 0
GlyphClass: 2
Flags: W
PickledData: "(dp1
S'org.robofab.postScriptHintData'
p2
(dp3
sS'com.typemytype.robofont.layerData'
p4
(dp5
S'b'
(dp6
S'name'
p7
S'degree'
p8
sS'lib'
p9
(dp10
sS'unicodes'
p11
(tsS'width'
p12
I922
sS'contours'
p13
(tsS'components'
p14
(tsS'anchors'
p15
(tsss."
LayerCount: 2
Fore
SplineSet
449 782 m 256
 336 782 255 860 255 963 c 257
 256 1065 336 1144 448 1144 c 256
 560 1144 642 1066 642 964 c 256
 642 861 560 782 449 782 c 256
448 734 m 256
 593 734 699 834 699 963 c 256
 699 1093 593 1193 448 1193 c 256
 303 1193 197 1093 197 963 c 256
 197 834 303 734 448 734 c 256
EndSplineSet
EndChar

StartChar: dieresis
Encoding: 168 168 237
Width: 332
VWidth: 0
GlyphClass: 4
Flags: W
PickledData: "(dp1
S'org.robofab.postScriptHintData'
p2
(dp3
sS'com.typemytype.robofont.layerData'
p4
(dp5
S'b'
(dp6
S'name'
p7
S'dieresis'
p8
sS'lib'
p9
(dp10
sS'unicodes'
p11
(tsS'width'
p12
I295
sS'contours'
p13
(tsS'components'
p14
(tsS'anchors'
p15
(tsss."
AnchorPoint: "top" 174 804 mark 0
LayerCount: 2
Fore
SplineSet
2 945 m 256
 30 945 47 962 47 989 c 256
 47 1016 30 1032 2 1032 c 256
 -26 1032 -43 1016 -43 989 c 256
 -43 962 -26 945 2 945 c 256
324 945 m 256
 352 945 369 961 370 988 c 256
 370 1015 353 1032 324 1032 c 256
 296 1032 280 1015 280 988 c 256
 280 961 296 945 324 945 c 256
EndSplineSet
EndChar

StartChar: divide
Encoding: 247 247 238
Width: 730
VWidth: 0
GlyphClass: 2
Flags: W
PickledData: "(dp1
S'org.robofab.postScriptHintData'
p2
(dp3
sS'com.typemytype.robofont.layerData'
p4
(dp5
S'b'
(dp6
S'name'
p7
S'divide'
p8
sS'lib'
p9
(dp10
sS'unicodes'
p11
(tsS'width'
p12
I339
sS'contours'
p13
(tsS'components'
p14
(tsS'anchors'
p15
(tsss."
LayerCount: 2
Fore
SplineSet
331 259 m 257
 402 259 l 257
 402 371 l 257
 331 371 l 257
 331 259 l 257
118 492 m 257
 613 492 l 257
 613 537 l 257
 118 537 l 257
 118 492 l 257
331 645 m 257
 402 645 l 257
 402 758 l 257
 331 758 l 257
 331 645 l 257
EndSplineSet
EndChar

StartChar: dollar
Encoding: 36 36 239
Width: 1132
VWidth: 0
GlyphClass: 2
Flags: W
PickledData: "(dp1
S'org.robofab.postScriptHintData'
p2
(dp3
s."
LayerCount: 2
Fore
SplineSet
572 -181 m 257
 611 -181 l 257
 611 1329 l 257
 572 1329 l 257
 572 -181 l 257
EndSplineSet
Refer: 127 83 N 1 0 0 1 -6 0 2
EndChar

StartChar: dotaboverightcomb
Encoding: 856 856 240
Width: 573
VWidth: 0
GlyphClass: 4
Flags: W
PickledData: "(dp1
S'org.robofab.postScriptHintData'
p2
(dp3
s."
AnchorPoint: "top" 242 804 mark 0
LayerCount: 2
Fore
SplineSet
243 1014 m 256
 276 1014 299 1035 299 1065 c 256
 299 1093 276 1115 243 1115 c 256
 212 1115 189 1093 189 1065 c 256
 189 1035 212 1014 243 1014 c 256
EndSplineSet
EndChar

StartChar: dotaccent
Encoding: 729 729 241
Width: 479
VWidth: 0
GlyphClass: 4
Flags: W
PickledData: "(dp1
S'org.robofab.postScriptHintData'
p2
(dp3
s."
AnchorPoint: "top" 243 804 mark 0
LayerCount: 2
Fore
SplineSet
243 1014 m 256
 276 1014 299 1035 299 1065 c 256
 299 1093 276 1115 243 1115 c 256
 212 1115 189 1093 189 1065 c 256
 189 1035 212 1014 243 1014 c 256
EndSplineSet
EndChar

StartChar: dotlessi
Encoding: 305 305 243
Width: 550
VWidth: 0
GlyphClass: 2
Flags: W
PickledData: "(dp1
S'org.robofab.postScriptHintData'
p2
(dp3
sS'com.typemytype.robofont.layerData'
p4
(dp5
S'b'
(dp6
S'name'
p7
S'dotlessi'
p8
sS'lib'
p9
(dp10
sS'unicodes'
p11
(tsS'width'
p12
I513
sS'contours'
p13
(tsS'components'
p14
(tsS'anchors'
p15
(tsss."
AnchorPoint: "top" 290 804 basechar 0
LayerCount: 2
Fore
SplineSet
100 0 m 257
 508 0 l 257
 508 45 l 257
 337 45 l 257
 337 643 l 257
 337 804 l 257
 103 804 l 257
 103 759 l 257
 278 759 l 257
 278 45 l 257
 100 45 l 257
 100 0 l 257
EndSplineSet
EndChar

StartChar: dotlessj
Encoding: 567 567 244
Width: 414
VWidth: 0
GlyphClass: 2
Flags: W
PickledData: "(dp1
S'org.robofab.postScriptHintData'
p2
(dp3
sS'com.typemytype.robofont.layerData'
p4
(dp5
S'b'
(dp6
S'name'
p7
S'uni0237'
p8
sS'lib'
p9
(dp10
sS'unicodes'
p11
(tsS'width'
p12
I398
sS'contours'
p13
(tsS'components'
p14
(tsS'anchors'
p15
(tsss."
AnchorPoint: "top" 235 805 basechar 0
LayerCount: 2
Fore
SplineSet
21 -250 m 257
 96 -250 l 258
 304 -250 284 -109 284 -26 c 258
 284 805 l 257
 64 805 l 257
 64 763 l 257
 222 763 l 257
 222 -36 l 258
 222 -150 226 -206 87 -206 c 258
 21 -206 l 257
 21 -250 l 257
EndSplineSet
EndChar

StartChar: e
Encoding: 101 101 247
Width: 971
VWidth: 0
GlyphClass: 2
Flags: W
PickledData: "(dp1
S'org.robofab.postScriptHintData'
p2
(dp3
sS'com.typemytype.robofont.layerData'
p4
(dp5
S'b'
(dp6
S'name'
p7
S'e'
sS'lib'
p8
(dp9
sS'unicodes'
p10
(tsS'width'
p11
I975
sS'contours'
p12
((dp13
S'points'
p14
((dp15
S'segmentType'
p16
S'line'
p17
sS'x'
I171
sS'smooth'
p18
I0
sS'y'
I442
s(dp19
S'y'
I592
sS'x'
I182
sg18
I0
s(dp20
S'y'
I755
sS'x'
I296
sg18
I0
s(dp21
g16
S'curve'
p22
sS'x'
I507
sg18
I1
sS'y'
I755
s(dp23
S'y'
I755
sS'x'
I699
sg18
I0
s(dp24
S'y'
I616
sS'x'
I803
sg18
I0
s(dp25
g16
S'curve'
p26
sS'x'
I820
sg18
I0
sS'y'
I442
stp27
s(dp28
g14
((dp29
g16
S'line'
p30
sS'x'
I890
sg18
I0
sS'y'
I383
s(dp31
S'y'
I601
sS'x'
I889
sg18
I0
s(dp32
S'y'
I819
sS'x'
F778.76800000000003
sg18
I0
s(dp33
g16
S'curve'
p34
sS'x'
I502
sg18
I1
sS'y'
I819
s(dp35
S'y'
I819
sS'x'
I232
sg18
I0
s(dp36
S'y'
I618
sS'x'
I90
sg18
I0
s(dp37
g16
S'curve'
p38
sS'x'
I90
sg18
I1
sS'y'
I403
s(dp39
S'y'
I150
sS'x'
I90
sg18
I0
s(dp40
S'y'
S'-14'
p41
sS'x'
I284
sg18
I0
s(dp42
g16
S'curve'
p43
sS'x'
I511
sg18
I1
sS'y'
S'-14'
p44
s(dp45
S'y'
S'-14'
p46
sS'x'
I657
sg18
I0
s(dp47
S'y'
I34
sS'x'
I761
sg18
I0
s(dp48
g16
S'curve'
p49
sS'x'
I868
sg18
I0
sS'y'
I139
s(dp50
g16
S'line'
p51
sS'x'
I836
sg18
I0
sS'y'
I197
s(dp52
S'y'
I103
sS'x'
I747
sg18
I0
s(dp53
S'y'
I50
sS'x'
I652
sg18
I0
s(dp54
g16
S'curve'
p55
sS'x'
I515
sg18
I1
sS'y'
I50
s(dp56
S'y'
I50
sS'x'
I347
sg18
I0
s(dp57
S'y'
I162
sS'x'
I182
sg18
I0
s(dp58
g16
S'curve'
p59
sS'x'
I169
sg18
I0
sS'y'
I383
stp60
stp61
sS'components'
p62
(tsS'anchors'
p63
(tsss."
AnchorPoint: "top" 487 804 basechar 0
AnchorPoint: "bot" 500 0 basechar 0
LayerCount: 2
Fore
SplineSet
121 430 m 257
 129 644 282 781 468 781 c 256
 633 781 783 670 806 430 c 257
 121 430 l 257
486 -22 m 256
 610 -22 742 28 843 129 c 257
 824 174 l 257
 754 91 615 24 487 24 c 256
 311 24 132 149 122 387 c 257
 862 387 l 257
 855 710 649 826 468 826 c 256
 265 826 61 683 61 403 c 256
 61 135 265 -22 486 -22 c 256
EndSplineSet
EndChar

StartChar: eight
Encoding: 56 56 257
Width: 979
VWidth: 0
GlyphClass: 2
Flags: W
PickledData: "(dp1
S'org.robofab.postScriptHintData'
p2
(dp3
sS'com.typemytype.robofont.layerData'
p4
(dp5
S'b'
(dp6
S'name'
p7
S'eight'
p8
sS'lib'
p9
(dp10
sS'unicodes'
p11
(tsS'width'
p12
I964
sS'contours'
p13
(tsS'components'
p14
(tsS'anchors'
p15
(tsss."
LayerCount: 2
Fore
SplineSet
489 -22 m 256
 722 -22 866 103 866 296 c 256
 866 455 777 571 612 603 c 257
 762 629 828 746 828 885 c 256
 828 1063 697 1175 490 1174 c 256
 283 1175 152 1062 152 885 c 256
 152 750 210 662 359 613 c 257
 190 588 113 454 113 296 c 256
 113 103 256 -22 489 -22 c 256
489 25 m 256
 295 25 172 131 172 297 c 256
 172 470 253 567 411 591 c 257
 709 575 806 472 806 297 c 256
 806 130 684 25 489 25 c 256
582 624 m 257
 311 635 211 723 211 883 c 256
 211 1033 318 1127 490 1127 c 256
 663 1127 770 1032 770 883 c 256
 770 717 699 658 582 624 c 257
EndSplineSet
EndChar

StartChar: emdash
Encoding: 8212 8212 261
Width: 934
VWidth: 0
GlyphClass: 2
Flags: W
PickledData: "(dp1
S'org.robofab.postScriptHintData'
p2
(dp3
sS'com.typemytype.robofont.layerData'
p4
(dp5
S'b'
(dp6
S'name'
p7
S'emdash'
p8
sS'lib'
p9
(dp10
sS'unicodes'
p11
(tsS'width'
p12
I1309
sS'contours'
p13
(tsS'components'
p14
(tsS'anchors'
p15
(tsss."
LayerCount: 2
Fore
SplineSet
0 454 m 257
 934 454 l 257
 934 500 l 257
 0 500 l 257
 0 454 l 257
EndSplineSet
EndChar

StartChar: emptyset
Encoding: 8709 8709 262
Width: 1347
VWidth: 0
GlyphClass: 2
Flags: W
PickledData: "(dp1
S'org.robofab.postScriptHintData'
p2
(dp3
s."
LayerCount: 2
Fore
SplineSet
231 -44 m 257
 343 88 l 257
 435 19 549 -22 673 -22 c 256
 975 -22 1222 223 1222 525 c 256
 1222 681 1156 822 1051 922 c 257
 1172 1065 l 257
 1142 1093 l 257
 1020 949 l 257
 925 1026 804 1073 673 1073 c 256
 371 1073 126 830 126 525 c 256
 126 360 197 213 311 114 c 257
 201 -16 l 257
 231 -44 l 257
341 149 m 257
 237 240 172 375 172 525 c 256
 172 803 396 1028 673 1028 c 256
 793 1028 904 985 990 914 c 257
 341 149 l 257
673 23 m 256
 560 23 456 60 373 123 c 257
 1021 887 l 257
 1116 795 1175 666 1175 525 c 256
 1175 249 950 23 673 23 c 256
EndSplineSet
EndChar

StartChar: endash
Encoding: 8211 8211 263
Width: 675
VWidth: 0
GlyphClass: 2
Flags: W
PickledData: "(dp1
S'org.robofab.postScriptHintData'
p2
(dp3
sS'com.typemytype.robofont.layerData'
p4
(dp5
S'b'
(dp6
S'name'
p7
S'endash'
p8
sS'lib'
p9
(dp10
sS'unicodes'
p11
(tsS'width'
p12
I1113
sS'contours'
p13
(tsS'components'
p14
(tsS'anchors'
p15
(tsss."
LayerCount: 2
Fore
SplineSet
0 451 m 257
 675 451 l 257
 675 497 l 257
 0 497 l 257
 0 451 l 257
EndSplineSet
EndChar

StartChar: eng
Encoding: 331 331 264
Width: 1017
VWidth: 0
GlyphClass: 2
Flags: W
PickledData: "(dp1
S'org.robofab.postScriptHintData'
p2
(dp3
s."
LayerCount: 2
Fore
SplineSet
35 0 m 257
 443 0 l 257
 443 45 l 257
 272 45 l 257
 272 643 l 257
 272 804 l 257
 38 804 l 257
 38 759 l 257
 213 759 l 257
 213 45 l 257
 35 45 l 257
 35 0 l 257
479 -367 m 257
 713 -367 858 -257 858 -10 c 258
 858 578 l 258
 858 732 761 826 612 826 c 256
 510 826 366 772 236 689 c 257
 236 646 l 257
 379 727 521 778 602 778 c 256
 723 778 799 708 799 594 c 258
 799 -24 l 258
 799 -209 699 -322 482 -322 c 257
 479 -367 l 257
EndSplineSet
EndChar

StartChar: equal
Encoding: 61 61 266
Width: 764
VWidth: 0
GlyphClass: 2
Flags: W
PickledData: "(dp1
S'org.robofab.postScriptHintData'
p2
(dp3
sS'com.typemytype.robofont.layerData'
p4
(dp5
S'b'
(dp6
S'name'
p7
S'equal'
p8
sS'lib'
p9
(dp10
sS'unicodes'
p11
(tsS'width'
p12
I715
sS'contours'
p13
(tsS'components'
p14
(tsS'anchors'
p15
(tsss."
LayerCount: 2
Fore
SplineSet
176 305 m 257
 591 305 l 257
 591 356 l 257
 176 356 l 257
 176 305 l 257
176 550 m 257
 591 550 l 257
 591 599 l 257
 176 599 l 257
 176 550 l 257
EndSplineSet
EndChar

StartChar: estimated
Encoding: 8494 8494 267
Width: 652
VWidth: 0
GlyphClass: 2
Flags: W
PickledData: "(dp1
S'org.robofab.postScriptHintData'
p2
(dp3
s."
LayerCount: 2
Fore
SplineSet
528 -15 m 256
 675 -15 791 50 879 137 c 257
 851 169 l 257
 778 88 668 31 535 31 c 256
 345 32 210 183 202 394 c 257
 879 394 l 257
 879 645 720 820 505 820 c 256
 269 820 109 645 109 405 c 256
 109 161 287 -15 528 -15 c 256
203 433 m 257
 210 639 334 786 512 786 c 256
 677 786 813 638 824 433 c 257
 203 433 l 257
EndSplineSet
EndChar

StartChar: eth
Encoding: 240 240 268
Width: 900
VWidth: 0
GlyphClass: 2
Flags: W
PickledData: "(dp1
S'org.robofab.postScriptHintData'
p2
(dp3
sS'com.typemytype.robofont.layerData'
p4
(dp5
S'b'
(dp6
S'name'
p7
S'eth'
p8
sS'lib'
p9
(dp10
sS'unicodes'
p11
(tsS'width'
p12
I886
sS'contours'
p13
(tsS'components'
p14
(tsS'anchors'
p15
(tsss."
LayerCount: 2
Fore
SplineSet
442 -23 m 256
 649 -23 830 125 830 396 c 256
 830 811 384 1156 154 1356 c 257
 120 1320 l 257
 308 1163 565 963 689 698 c 257
 618 764 513 805 431 805 c 256
 216 805 45 629 45 435 c 256
 45 205 169 -23 442 -23 c 256
442 30 m 256
 207 30 106 228 106 412 c 256
 106 648 278 757 436 757 c 256
 597 757 772 651 772 405 c 256
 772 224 679 30 442 30 c 256
175 913 m 257
 730 1152 l 257
 705 1195 l 257
 150 958 l 257
 175 913 l 257
EndSplineSet
EndChar

StartChar: exclam
Encoding: 33 33 270
Width: 185
VWidth: 0
GlyphClass: 2
Flags: W
PickledData: "(dp1
S'org.robofab.postScriptHintData'
p2
(dp3
sS'com.typemytype.robofont.layerData'
p4
(dp5
S'b'
(dp6
S'name'
p7
S'exclam'
p8
sS'lib'
p9
(dp10
sS'unicodes'
p11
(tsS'width'
p12
I150
sS'contours'
p13
(tsS'components'
p14
(tsS'anchors'
p15
(tsss."
LayerCount: 2
Fore
SplineSet
82 330 m 257
 106 330 l 257
 125 748 l 257
 125 1163 l 257
 62 1163 l 257
 62 748 l 257
 82 330 l 257
94 -15 m 256
 127 -15 150 6 150 36 c 256
 150 65 127 86 94 86 c 256
 63 86 41 65 41 36 c 256
 41 6 63 -15 94 -15 c 256
EndSplineSet
EndChar

StartChar: f
Encoding: 102 102 272
Width: 675
VWidth: 0
GlyphClass: 2
Flags: W
PickledData: "(dp1
S'org.robofab.postScriptHintData'
p2
(dp3
sS'com.typemytype.robofont.layerData'
p4
(dp5
S'b'
(dp6
S'name'
p7
S'f'
sS'lib'
p8
(dp9
sS'unicodes'
p10
(tsS'width'
p11
I671
sS'contours'
p12
(tsS'components'
p13
(tsS'anchors'
p14
(tsss."
AnchorPoint: "top" 380 1082 basechar 0
LayerCount: 2
Fore
SplineSet
110 0 m 257
 518 0 l 257
 518 45 l 257
 324 45 l 257
 324 759 l 257
 558 759 l 257
 558 804 l 257
 324 804 l 257
 324 1027 l 258
 324 1107 369 1149 434 1149 c 256
 499 1149 537 1113 546 1040 c 257
 591 1058 l 257
 583 1147 523 1195 431 1195 c 256
 325 1195 261 1133 261 1028 c 258
 261 804 l 257
 106 804 l 257
 106 759 l 257
 261 759 l 257
 261 45 l 257
 110 45 l 257
 110 0 l 257
EndSplineSet
EndChar

StartChar: fi
Encoding: 64257 64257 274
Width: 1062
VWidth: 0
GlyphClass: 3
Flags: W
PickledData: "(dp1
S'org.robofab.postScriptHintData'
p2
(dp3
sS'com.typemytype.robofont.layerData'
p4
(dp5
S'b'
(dp6
S'name'
p7
S'fi'
p8
sS'lib'
p9
(dp10
sS'unicodes'
p11
(tsS'width'
p12
I1044
sS'contours'
p13
(tsS'components'
p14
(tsS'anchors'
p15
(tsss."
LayerCount: 2
Fore
SplineSet
113 0 m 257
 534 0 l 257
 534 45 l 257
 336 45 l 257
 336 759 l 257
 837 759 l 257
 837 45 l 257
 684 45 l 257
 684 0 l 257
 1050 0 l 257
 1050 45 l 257
 896 45 l 257
 896 804 l 257
 336 804 l 257
 336 947 l 258
 336 1086 456 1168 645 1168 c 256
 710 1168 810 1153 833 1103 c 257
 807 1097 796 1075 796 1054 c 256
 796 1024 823 1004 860 1004 c 256
 896 1004 917 1029 917 1065 c 256
 917 1155 809 1211 648 1211 c 256
 423 1211 276 1113 276 945 c 258
 276 804 l 257
 108 804 l 257
 108 759 l 257
 276 759 l 257
 276 45 l 257
 113 45 l 257
 113 0 l 257
EndSplineSet
Ligature2: "ligaStandardLigatureslookup16 subtable" f i
Ligature2: "dligDiscretionaryLigatureslooku subtable" f i
EndChar

StartChar: five
Encoding: 53 53 275
Width: 973
VWidth: 0
GlyphClass: 2
Flags: W
PickledData: "(dp1
S'org.robofab.postScriptHintData'
p2
(dp3
sS'com.typemytype.robofont.layerData'
p4
(dp5
S'b'
(dp6
S'name'
p7
S'five'
p8
sS'lib'
p9
(dp10
sS'unicodes'
p11
(tsS'width'
p12
I964
sS'contours'
p13
(tsS'components'
p14
(tsS'anchors'
p15
(tsss."
LayerCount: 2
Fore
SplineSet
479 -22 m 256
 751 -22 903 113 903 353 c 256
 903 594 759 729 501 729 c 256
 380 729 279 686 220 609 c 257
 222 1106 l 257
 776 1106 l 257
 776 911 l 257
 833 911 l 257
 833 1152 l 257
 165 1152 l 257
 163 579 l 257
 219 556 l 257
 292 638 404 679 500 679 c 256
 721 679 844 563 844 352 c 256
 844 144 714 27 479 27 c 256
 342 27 223 92 141 210 c 257
 106 169 l 257
 198 47 330 -22 479 -22 c 256
EndSplineSet
EndChar

StartChar: fj
Encoding: 65537 -1 276
Width: 1060
VWidth: 0
GlyphClass: 3
Flags: W
PickledData: "(dp1
S'org.robofab.postScriptHintData'
p2
(dp3
s."
LayerCount: 2
Fore
SplineSet
636 -250 m 257
 710 -250 l 258
 919 -250 899 -109 899 -26 c 258
 899 804 l 257
 336 804 l 257
 336 947 l 258
 336 1086 456 1168 645 1168 c 256
 710 1168 810 1153 833 1103 c 257
 807 1097 796 1075 796 1054 c 256
 796 1024 823 1004 860 1004 c 256
 896 1004 917 1029 917 1065 c 256
 917 1155 809 1211 648 1211 c 256
 423 1211 276 1113 276 945 c 258
 276 804 l 257
 108 804 l 257
 108 759 l 257
 276 759 l 257
 276 45 l 257
 113 45 l 257
 113 0 l 257
 534 0 l 257
 534 45 l 257
 336 45 l 257
 336 759 l 257
 837 759 l 257
 837 -36 l 258
 837 -150 840 -206 701 -206 c 258
 636 -206 l 257
 636 -250 l 257
EndSplineSet
Ligature2: "dligDiscretionaryLigatureslooku subtable" f j
EndChar

StartChar: fl
Encoding: 64258 64258 277
Width: 1225
VWidth: 0
GlyphClass: 3
Flags: W
PickledData: "(dp1
S'org.robofab.postScriptHintData'
p2
(dp3
sS'com.typemytype.robofont.layerData'
p4
(dp5
S'b'
(dp6
S'name'
p7
S'fl'
p8
sS'lib'
p9
(dp10
sS'unicodes'
p11
(tsS'width'
p12
I1223
sS'contours'
p13
(tsS'components'
p14
(tsS'anchors'
p15
(tsss."
LayerCount: 2
Fore
SplineSet
113 0 m 257
 534 0 l 257
 534 45 l 257
 336 45 l 257
 336 759 l 257
 549 759 l 257
 549 804 l 257
 336 804 l 257
 336 965 l 258
 336 1107 463 1194 653 1194 c 256
 788 1194 874 1165 874 1119 c 258
 874 45 l 258
 874 38 880 0 887 0 c 258
 1135 0 l 257
 1135 45 l 257
 933 45 l 257
 933 1118 l 258
 933 1195 823 1242 654 1242 c 256
 429 1242 276 1136 276 957 c 258
 276 804 l 257
 108 804 l 257
 108 759 l 257
 276 759 l 257
 276 45 l 257
 113 45 l 257
 113 0 l 257
EndSplineSet
Ligature2: "ligaStandardLigatureslookup16 subtable" f l
Ligature2: "dligDiscretionaryLigatureslooku subtable" f l
EndChar

StartChar: florin
Encoding: 402 402 278
Width: 751
VWidth: 0
GlyphClass: 2
Flags: W
PickledData: "(dp1
S'org.robofab.postScriptHintData'
p2
(dp3
s."
LayerCount: 2
Fore
SplineSet
424 1022 m 258
 383 802 l 257
 209 802 l 257
 203 763 l 257
 377 763 l 257
 250 58 l 258
 229 -69 179 -78 89 -74 c 257
 89 -110 l 257
 190 -116 277 -111 305 58 c 258
 434 763 l 257
 652 763 l 257
 657 802 l 257
 439 802 l 257
 481 1020 l 258
 502 1137 548 1169 609 1166 c 256
 658 1163 679 1125 683 1068 c 257
 723 1068 734 1094 735 1114 c 256
 735 1164 676 1196 616 1198 c 256
 511 1202 447 1146 424 1022 c 258
EndSplineSet
EndChar

StartChar: foundryicon
Encoding: 65538 -1 279
Width: 1347
VWidth: 0
GlyphClass: 2
Flags: W
PickledData: "(dp1
S'org.robofab.postScriptHintData'
p2
(dp3
sS'com.typemytype.robofont.layerData'
p4
(dp5
S'b'
(dp6
S'name'
p7
S'foundryicon'
p8
sS'lib'
p9
(dp10
sS'unicodes'
p11
(tsS'width'
p12
I313
sS'contours'
p13
(tsS'components'
p14
(tsS'anchors'
p15
(tsss."
LayerCount: 2
Fore
SplineSet
485 405 m 257
 485 672 l 257
 591 672 l 257
 761 523 l 257
 761 672 l 257
 867 672 l 257
 867 405 l 257
 761 405 l 257
 591 552 l 257
 591 405 l 257
 485 405 l 257
280 2 m 257
 669 278 l 257
 1066 2 l 257
 922 461 l 257
 1313 755 l 257
 828 755 l 257
 669 1215 l 257
 519 755 l 257
 34 755 l 257
 423 461 l 257
 280 2 l 257
EndSplineSet
EndChar

StartChar: four
Encoding: 52 52 280
Width: 965
VWidth: 0
GlyphClass: 2
Flags: W
PickledData: "(dp1
S'org.robofab.postScriptHintData'
p2
(dp3
sS'com.typemytype.robofont.layerData'
p4
(dp5
S'b'
(dp6
S'name'
p7
S'four'
p8
sS'lib'
p9
(dp10
sS'unicodes'
p11
(tsS'width'
p12
I964
sS'contours'
p13
(tsS'components'
p14
(tsS'anchors'
p15
(tsss."
LayerCount: 2
Fore
SplineSet
442 0 m 257
 788 0 l 257
 788 45 l 257
 644 45 l 257
 644 366 l 257
 860 366 l 257
 860 411 l 257
 644 411 l 257
 644 1152 l 257
 577 1152 l 257
 105 417 l 257
 115 366 l 257
 586 366 l 257
 586 45 l 257
 442 45 l 257
 442 0 l 257
165 411 m 257
 586 1083 l 257
 586 411 l 257
 165 411 l 257
EndSplineSet
Substitution2: "supsSuperscriptlookup10 subtable" foursuperior
EndChar

StartChar: foursuperior
Encoding: 8308 8308 281
Width: 744
VWidth: 0
GlyphClass: 2
Flags: W
PickledData: "(dp1
S'org.robofab.postScriptHintData'
p2
(dp3
sS'com.typemytype.robofont.layerData'
p4
(dp5
S'b'
(dp6
S'name'
p7
S'uni2074'
p8
sS'lib'
p9
(dp10
sS'unicodes'
p11
(tsS'width'
p12
I718
sS'contours'
p13
(tsS'components'
p14
(tsS'anchors'
p15
(tsss."
LayerCount: 2
Fore
SplineSet
316 548 m 257
 606 548 l 257
 606 589 l 257
 484 589 l 257
 484 780 l 257
 674 780 l 257
 674 821 l 257
 484 821 l 257
 484 1324 l 257
 427 1324 l 257
 56 819 l 257
 69 780 l 257
 437 780 l 257
 437 589 l 257
 316 589 l 257
 316 548 l 257
115 821 m 257
 437 1265 l 257
 437 821 l 257
 115 821 l 257
EndSplineSet
EndChar

StartChar: fraction
Encoding: 8260 8260 282
Width: 374
VWidth: 0
GlyphClass: 2
Flags: W
PickledData: "(dp1
S'org.robofab.postScriptHintData'
p2
(dp3
sS'com.typemytype.robofont.layerData'
p4
(dp5
S'b'
(dp6
S'name'
p7
S'fraction'
p8
sS'lib'
p9
(dp10
sS'unicodes'
p11
(tsS'width'
p12
I337
sS'contours'
p13
(tsS'components'
p14
(tsS'anchors'
p15
(tsss."
LayerCount: 2
Fore
SplineSet
-44 -28 m 257
 17 -28 l 257
 407 1285 l 257
 351 1285 l 257
 -44 -28 l 257
EndSplineSet
EndChar

StartChar: g
Encoding: 103 103 283
Width: 1018
VWidth: 0
GlyphClass: 2
Flags: W
PickledData: "(dp1
S'org.robofab.postScriptHintData'
p2
(dp3
sS'com.typemytype.robofont.layerData'
p4
(dp5
S'b'
(dp6
S'name'
p7
S'g'
sS'lib'
p8
(dp9
sS'unicodes'
p10
(tsS'width'
p11
I1013
sS'contours'
p12
((dp13
S'points'
p14
((dp15
S'segmentType'
p16
S'curve'
p17
sS'x'
I510
sS'smooth'
p18
I1
sS'y'
S'-333'
p19
s(dp20
S'y'
S'-333'
p21
sS'x'
I722
sg18
I0
s(dp22
S'y'
S'-225'
p23
sS'x'
I880
sg18
I0
s(dp24
g16
S'curve'
p25
sS'x'
I880
sg18
I0
sS'y'
I15
s(dp26
g16
S'line'
p27
sS'x'
I880
sg18
I0
sS'y'
I735
s(dp28
g16
S'line'
p29
sS'x'
I1005
sg18
I0
sS'y'
I735
s(dp30
g16
S'line'
p31
sS'x'
I1005
sg18
I0
sS'y'
I789
s(dp32
g16
S'line'
p33
sS'x'
I804
sg18
I0
sS'y'
I789
s(dp34
g16
S'line'
p35
sS'x'
I804
sg18
I0
sS'y'
I673
s(dp36
S'y'
I673
sS'x'
I804
sg18
I0
s(dp37
S'y'
S'-2'
p38
sS'x'
I804
sg18
I0
s(dp39
g16
S'curve'
p40
sS'x'
I804
sg18
I1
sS'y'
S'-2'
p41
s(dp42
S'y'
S'-173'
p43
sS'x'
I804
sg18
I0
s(dp44
S'y'
S'-271'
p45
sS'x'
I695
sg18
I0
s(dp46
g16
S'curve'
p47
sS'x'
I515
sg18
I1
sS'y'
S'-271'
p48
s(dp49
S'y'
S'-271'
p50
sS'x'
I444
sg18
I0
s(dp51
S'y'
S'-255'
p52
sS'x'
I362
sg18
I0
s(dp53
g16
S'curve'
p54
sS'x'
I272
sg18
I0
sS'y'
S'-224'
p55
s(dp56
g16
S'line'
p57
sS'x'
I257
sg18
I0
sS'y'
S'-289'
p58
s(dp59
S'y'
S'-318'
p60
sS'x'
I345
sg18
I0
s(dp61
S'y'
S'-333'
p62
sS'x'
I431
sg18
I0
stp63
stp64
sS'components'
p65
(tsS'anchors'
p66
(tsss."
AnchorPoint: "top" 489 804 basechar 0
LayerCount: 2
Fore
SplineSet
62.9605 411.59 m 256
 62.9605 164.003 243.256 -6.55957 488 -6.55957 c 256
 593.113 -6.55957 713.264 39.2896 795 110.034 c 257
 795 -31 l 258
 795 -216 693 -329 480 -329 c 256
 404 -329 313 -315 201 -283 c 257
 191 -329 l 257
 295 -357 393 -376 478 -376 c 256
 711 -376 855 -264 855 -17 c 258
 855 759 l 257
 991 759 l 257
 991 804 l 257
 795 804 l 257
 795 706.692 l 257
 707.936 777.781 577.384 824.48 463 824.48 c 256
 230.067 824.48 62.9605 656.946 62.9605 411.59 c 256
795 664.426 m 257
 795 156.44 l 257
 712.03 85.3488 593.632 38.5195 492 38.5195 c 256
 277 38.5195 121 187.48 121 403.08 c 256
 121 626.52 265 779.4 467 779.4 c 256
 577.94 779.4 705.974 733.332 795 664.426 c 257
EndSplineSet
EndChar

StartChar: germandbls
Encoding: 223 223 290
Width: 1193
VWidth: 0
GlyphClass: 2
Flags: W
PickledData: "(dp1
S'org.robofab.postScriptHintData'
p2
(dp3
sS'com.typemytype.robofont.layerData'
p4
(dp5
S'b'
(dp6
S'name'
p7
S'germandbls'
p8
sS'lib'
p9
(dp10
sS'unicodes'
p11
(tsS'width'
p12
I1198
sS'contours'
p13
(tsS'components'
p14
(tsS'anchors'
p15
(tsss."
LayerCount: 2
Fore
SplineSet
103 0 m 257
 440 0 l 257
 440 50 l 257
 319 50 l 257
 319 877 l 258
 319 1085 409 1215 603 1215 c 256
 797 1215 888 1124 888 980 c 256
 888 814 789 707 600 697 c 257
 600 662 l 257
 875 661 1038 545 1038 355 c 256
 1038 157 849 50 579 50 c 257
 579 0 l 257
 902 0 1097 141 1097 355 c 256
 1097 530 987 663 723 686 c 257
 859 717 946 827 946 981 c 256
 946 1166 822 1261 603 1261 c 256
 377 1261 257 1125 257 872 c 258
 257 50 l 257
 103 50 l 257
 103 0 l 257
EndSplineSet
EndChar

StartChar: grave
Encoding: 96 96 291
Width: 164
VWidth: 0
GlyphClass: 4
Flags: W
PickledData: "(dp1
S'org.robofab.postScriptHintData'
p2
(dp3
sS'com.typemytype.robofont.layerData'
p4
(dp5
S'b'
(dp6
S'name'
p7
S'grave'
p8
sS'lib'
p9
(dp10
sS'unicodes'
p11
(tsS'width'
p12
I50
sS'contours'
p13
(tsS'components'
p14
(tsS'anchors'
p15
(tsss."
AnchorPoint: "top" 145 804 mark 0
LayerCount: 2
Fore
SplineSet
123 989 m 257
 155 989 l 257
 65 1241 l 257
 5 1241 l 257
 123 989 l 257
EndSplineSet
EndChar

StartChar: greater
Encoding: 62 62 292
Width: 914
VWidth: 0
GlyphClass: 2
Flags: W
PickledData: "(dp1
S'org.robofab.postScriptHintData'
p2
(dp3
sS'com.typemytype.robofont.layerData'
p4
(dp5
S'b'
(dp6
S'name'
p7
S'greater'
p8
sS'lib'
p9
(dp10
sS'unicodes'
p11
(tsS'width'
p12
I896
sS'contours'
p13
(tsS'components'
p14
(tsS'anchors'
p15
(tsss."
LayerCount: 2
Fore
SplineSet
142 -99 m 257
 958 553 l 257
 958 584 l 257
 142 1244 l 257
 142 1159 l 257
 891 569 l 257
 142 -18 l 257
 142 -99 l 257
EndSplineSet
EndChar

StartChar: greaterequal
Encoding: 8805 8805 293
Width: 639
VWidth: 0
GlyphClass: 2
Flags: W
PickledData: "(dp1
S'org.robofab.postScriptHintData'
p2
(dp3
sS'com.typemytype.robofont.layerData'
p4
(dp5
S'b'
(dp6
S'name'
p7
S'greaterequal'
p8
sS'lib'
p9
(dp10
sS'unicodes'
p11
(tsS'width'
p12
I595
sS'contours'
p13
(tsS'components'
p14
(tsS'anchors'
p15
(tsss."
LayerCount: 2
Fore
SplineSet
12 185 m 257
 650 515 l 257
 650 545 l 257
 12 878 l 257
 12 823 l 257
 563 529 l 257
 12 237 l 257
 12 185 l 257
12 0 m 257
 650 0 l 257
 650 44 l 257
 12 44 l 257
 12 0 l 257
EndSplineSet
EndChar

StartChar: guillemotleft
Encoding: 171 171 296
Width: 765
VWidth: 0
GlyphClass: 2
Flags: W
PickledData: "(dp1
S'org.robofab.postScriptHintData'
p2
(dp3
sS'com.typemytype.robofont.layerData'
p4
(dp5
S'b'
(dp6
S'name'
p7
S'guillemotleft'
p8
sS'lib'
p9
(dp10
sS'unicodes'
p11
(tsS'width'
p12
I744
sS'contours'
p13
(tsS'components'
p14
(tsS'anchors'
p15
(tsss."
LayerCount: 2
Fore
SplineSet
328 292 m 257
 369 292 l 257
 156 673 l 257
 369 1049 l 257
 328 1049 l 257
 59 673 l 257
 328 292 l 257
582 292 m 257
 623 292 l 257
 409 673 l 257
 623 1049 l 257
 582 1049 l 257
 313 673 l 257
 582 292 l 257
EndSplineSet
EndChar

StartChar: guillemotright
Encoding: 187 187 297
Width: 765
VWidth: 0
GlyphClass: 2
Flags: W
PickledData: "(dp1
S'org.robofab.postScriptHintData'
p2
(dp3
sS'com.typemytype.robofont.layerData'
p4
(dp5
S'b'
(dp6
S'name'
p7
S'guillemotright'
p8
sS'lib'
p9
(dp10
sS'unicodes'
p11
(tsS'width'
p12
I744
sS'contours'
p13
(tsS'components'
p14
(tsS'anchors'
p15
(tsss."
LayerCount: 2
Fore
SplineSet
142 292 m 257
 183 292 l 257
 452 673 l 257
 183 1049 l 257
 142 1049 l 257
 355 673 l 257
 142 292 l 257
395 292 m 257
 436 292 l 257
 706 673 l 257
 436 1049 l 257
 395 1049 l 257
 609 673 l 257
 395 292 l 257
EndSplineSet
EndChar

StartChar: guilsinglleft
Encoding: 8249 8249 298
Width: 426
VWidth: 0
GlyphClass: 2
Flags: W
PickledData: "(dp1
S'org.robofab.postScriptHintData'
p2
(dp3
sS'com.typemytype.robofont.layerData'
p4
(dp5
S'b'
(dp6
S'name'
p7
S'guilsinglleft'
p8
sS'lib'
p9
(dp10
sS'unicodes'
p11
(tsS'width'
p12
I405
sS'contours'
p13
(tsS'components'
p14
(tsS'anchors'
p15
(tsss."
LayerCount: 2
Fore
SplineSet
277 292 m 257
 318 292 l 257
 105 673 l 257
 318 1049 l 257
 277 1049 l 257
 9 673 l 257
 277 292 l 257
EndSplineSet
EndChar

StartChar: guilsinglright
Encoding: 8250 8250 299
Width: 426
VWidth: 0
GlyphClass: 2
Flags: W
PickledData: "(dp1
S'org.robofab.postScriptHintData'
p2
(dp3
sS'com.typemytype.robofont.layerData'
p4
(dp5
S'b'
(dp6
S'name'
p7
S'guilsinglright'
p8
sS'lib'
p9
(dp10
sS'unicodes'
p11
(tsS'width'
p12
I405
sS'contours'
p13
(tsS'components'
p14
(tsS'anchors'
p15
(tsss."
LayerCount: 2
Fore
SplineSet
109 292 m 257
 149 292 l 257
 418 673 l 257
 149 1049 l 257
 109 1049 l 257
 321 673 l 257
 109 292 l 257
EndSplineSet
EndChar

StartChar: h
Encoding: 104 104 300
Width: 979
VWidth: 0
GlyphClass: 2
Flags: W
PickledData: "(dp1
S'org.robofab.postScriptHintData'
p2
(dp3
sS'com.typemytype.robofont.layerData'
p4
(dp5
S'b'
(dp6
S'name'
p7
S'h'
sS'lib'
p8
(dp9
sS'unicodes'
p10
(tsS'width'
p11
I965
sS'contours'
p12
(tsS'components'
p13
(tsS'anchors'
p14
(tsss."
AnchorPoint: "top" 516 1013 basechar 0
LayerCount: 2
Fore
SplineSet
27 0 m 257
 383 0 l 257
 383 45 l 257
 236 45 l 257
 236 666.721 l 257
 366.417 735.601 490.234 778 565 778 c 256
 686 778 762 708 762 594 c 258
 762 45 l 257
 588 45 l 257
 588 0 l 257
 974 0 l 257
 974 45 l 257
 821 45 l 257
 821 578 l 258
 821 732 723 826 575 826 c 256
 482.782 826 356.234 781.861 236 712.058 c 257
 236 1174 l 257
 35 1174 l 257
 35 1129 l 257
 177 1129 l 257
 177 45 l 257
 27 45 l 257
 27 0 l 257
EndSplineSet
EndChar

StartChar: hungarumlaut
Encoding: 733 733 305
Width: 396
VWidth: 0
GlyphClass: 4
Flags: W
PickledData: "(dp1
S'org.robofab.postScriptHintData'
p2
(dp3
sS'com.typemytype.robofont.layerData'
p4
(dp5
S'b'
(dp6
S'name'
p7
S'hungarumlaut'
p8
sS'lib'
p9
(dp10
sS'unicodes'
p11
(tsS'width'
p12
I356
sS'contours'
p13
(tsS'components'
p14
(tsS'anchors'
p15
(tsss."
AnchorPoint: "top" 150 804 mark 0
LayerCount: 2
Fore
SplineSet
357 1286 m 257
 248 989 l 257
 280 989 l 257
 417 1286 l 257
 357 1286 l 257
163 1286 m 257
 54 989 l 257
 86 989 l 257
 223 1286 l 257
 163 1286 l 257
EndSplineSet
EndChar

StartChar: hyphen
Encoding: 45 45 306
Width: 886
VWidth: 0
GlyphClass: 2
Flags: W
PickledData: "(dp1
S'org.robofab.postScriptHintData'
p2
(dp3
sS'com.typemytype.robofont.layerData'
p4
(dp5
S'b'
(dp6
S'name'
p7
S'hyphen'
p8
sS'lib'
p9
(dp10
sS'unicodes'
p11
(tsS'width'
p12
I915
sS'contours'
p13
(tsS'components'
p14
(tsS'anchors'
p15
(tsss."
LayerCount: 2
Fore
SplineSet
183 429 m 257
 701 429 l 257
 701 475 l 257
 183 475 l 257
 183 429 l 257
EndSplineSet
EndChar

StartChar: i
Encoding: 105 105 307
Width: 550
VWidth: 0
GlyphClass: 2
Flags: W
PickledData: "(dp1
S'org.robofab.postScriptHintData'
p2
(dp3
sS'com.typemytype.robofont.layerData'
p4
(dp5
S'b'
(dp6
S'name'
p7
S'i'
sS'lib'
p8
(dp9
sS'unicodes'
p10
(tsS'width'
p11
I531
sS'contours'
p12
(tsS'components'
p13
(tsS'anchors'
p14
(tsss."
LayerCount: 2
Fore
SplineSet
291 1014 m 256
 324 1014 347 1035 347 1065 c 256
 347 1093 324 1115 291 1115 c 256
 260 1115 237 1093 237 1065 c 256
 237 1035 260 1014 291 1014 c 256
100 0 m 257
 508 0 l 257
 508 45 l 257
 337 45 l 257
 337 804 l 257
 103 804 l 257
 103 759 l 257
 278 759 l 257
 278 45 l 257
 100 45 l 257
 100 0 l 257
EndSplineSet
Substitution2: "sub_single_locllatn_12 subtable" idotaccent
Substitution2: "sub_single_locllatn_10 subtable" idotaccent
Substitution2: "sub_single_locllatn_8 subtable" idotaccent
Substitution2: "sub_single_locllatn_6 subtable" idotaccent
Substitution2: "sub_single_locllatn_4 subtable" idotaccent
EndChar

StartChar: idotaccent
Encoding: 65539 -1 314
Width: 550
VWidth: 0
GlyphClass: 2
Flags: W
PickledData: "(dp1
S'org.robofab.postScriptHintData'
p2
(dp3
s."
LayerCount: 2
Fore
SplineSet
100 0 m 257
 508 0 l 257
 508 45 l 257
 337 45 l 257
 337 643 l 257
 337 804 l 257
 103 804 l 257
 103 759 l 257
 278 759 l 257
 278 45 l 257
 100 45 l 257
 100 0 l 257
291 1014 m 256
 324 1014 347 1035 347 1065 c 256
 347 1093 324 1115 291 1115 c 256
 260 1115 237 1093 237 1065 c 256
 237 1035 260 1014 291 1014 c 256
EndSplineSet
EndChar

StartChar: infinity
Encoding: 8734 8734 319
Width: 1280
VWidth: 0
GlyphClass: 2
Flags: W
PickledData: "(dp1
S'org.robofab.postScriptHintData'
p2
(dp3
sS'com.typemytype.robofont.layerData'
p4
(dp5
S'b'
(dp6
S'name'
p7
S'infinity'
p8
sS'lib'
p9
(dp10
sS'unicodes'
p11
(tsS'width'
p12
I1244
sS'contours'
p13
(tsS'components'
p14
(tsS'anchors'
p15
(tsss."
LayerCount: 2
Fore
SplineSet
898 270 m 256
 1014 270 1141 364 1141 544 c 256
 1141 731 1019 820 899 820 c 256
 788 820 701 752 638 636 c 257
 570 771 462 823 385 823 c 256
 232 823 138 694 138 549 c 256
 138 400 216 275 385 275 c 256
 477 275 571 328 644 463 c 257
 714 316 805 270 898 270 c 256
378 318 m 256
 261 318 201 419 201 548 c 256
 201 655 255 780 376 780 c 256
 474 780 554 696 617 549 c 257
 542 387 467 318 378 318 c 256
902 315 m 256
 800 315 735 379 661 544 c 257
 732 697 804 775 901 775 c 256
 1008 775 1078 675 1078 546 c 256
 1078 405 1006 315 902 315 c 256
EndSplineSet
EndChar

StartChar: integral
Encoding: 8747 8747 320
Width: 635
VWidth: 0
GlyphClass: 2
Flags: W
PickledData: "(dp1
S'org.robofab.postScriptHintData'
p2
(dp3
s."
LayerCount: 2
Fore
SplineSet
76 -110 m 256
 185 -110 223 -35 242 71 c 258
 412 1020 l 258
 431 1135 479 1169 540 1166 c 256
 589 1163 610 1125 614 1068 c 257
 654 1068 665 1094 666 1114 c 256
 666 1164 607 1196 547 1198 c 256
 442 1202 377 1144 355 1022 c 258
 185 69 l 258
 169 -29 146 -77 84 -77 c 256
 35 -77 13 -38 10 21 c 257
 -31 21 -42 -4 -42 -25 c 256
 -43 -75 16 -110 76 -110 c 256
EndSplineSet
EndChar

StartChar: j
Encoding: 106 106 323
Width: 414
VWidth: 0
GlyphClass: 2
Flags: W
PickledData: "(dp1
S'org.robofab.postScriptHintData'
p2
(dp3
sS'com.typemytype.robofont.layerData'
p4
(dp5
S'b'
(dp6
S'name'
p7
S'j'
sS'lib'
p8
(dp9
sS'unicodes'
p10
(tsS'width'
p11
I398
sS'contours'
p12
(tsS'components'
p13
(tsS'anchors'
p14
(tsss."
LayerCount: 2
Fore
SplineSet
235 1015 m 256
 268 1015 291 1036 291 1066 c 256
 291 1094 268 1116 235 1116 c 256
 204 1116 181 1094 181 1066 c 256
 181 1036 204 1015 235 1015 c 256
21 -250 m 257
 96 -250 l 258
 270.452 -250 284.52 -150.816 284.52 -69.8528 c 256
 284.52 -54.283 284 -39.3871 284 -26 c 258
 284 805 l 257
 64 805 l 257
 64 763 l 257
 222 763 l 257
 222 -36 l 258
 222 -42.2041 222.012 -48.2364 222.012 -54.0972 c 256
 222.012 -155.929 218.435 -206 87 -206 c 258
 21 -206 l 257
 21 -250 l 257
EndSplineSet
EndChar

StartChar: k
Encoding: 107 107 326
Width: 979
VWidth: 0
GlyphClass: 2
Flags: W
PickledData: "(dp1
S'org.robofab.postScriptHintData'
p2
(dp3
sS'com.typemytype.robofont.guides'
p4
((dp5
S'y'
I421
sS'x'
I474
sS'magnetic'
p6
I5
sS'angle'
p7
I0
sS'isGlobal'
p8
I0
stp9
sS'com.typemytype.robofont.layerData'
p10
(dp11
S'b'
(dp12
S'name'
p13
S'k'
sS'lib'
p14
(dp15
sS'unicodes'
p16
(tsS'width'
p17
I927
sS'contours'
p18
(tsS'components'
p19
(tsS'anchors'
p20
(tsss."
AnchorPoint: "top" 572 998 basechar 0
AnchorPoint: "bot" 533 0 basechar 0
LayerCount: 2
Fore
SplineSet
727 0 m 257
 935 0 l 257
 935 45 l 257
 754 45 l 257
 342 419 l 257
 780 759 l 257
 930 759 l 257
 930 804 l 257
 546 804 l 257
 546 759 l 257
 712 759 l 257
 270 423.518 l 257
 270 1174 l 257
 69 1174 l 257
 69 1129 l 257
 211 1129 l 257
 211 45 l 257
 61 45 l 257
 61 0 l 257
 417 0 l 257
 417 45 l 257
 270 45 l 257
 270 420.161 l 257
 727 0 l 257
EndSplineSet
EndChar

StartChar: kgreenlandic
Encoding: 312 312 329
Width: 947
VWidth: 0
GlyphClass: 2
Flags: W
PickledData: "(dp1
S'org.robofab.postScriptHintData'
p2
(dp3
sS'com.typemytype.robofont.layerData'
p4
(dp5
S'b'
(dp6
S'name'
p7
S'kgreenlandic'
p8
sS'lib'
p9
(dp10
sS'unicodes'
p11
(tsS'width'
p12
I927
sS'contours'
p13
(tsS'components'
p14
(tsS'anchors'
p15
(tsss."
LayerCount: 2
Fore
SplineSet
701 0 m 257
 901 0 l 257
 901 45 l 257
 732 45 l 257
 371 410 l 257
 753 759 l 257
 895 759 l 257
 895 804 l 257
 530 804 l 257
 530 759 l 257
 680 759 l 257
 297 411 l 257
 701 0 l 257
73 0 m 257
 409 0 l 257
 409 45 l 257
 273 45 l 257
 273 804 l 257
 80 804 l 257
 80 759 l 257
 214 759 l 257
 214 45 l 257
 73 45 l 257
 73 0 l 257
EndSplineSet
EndChar

StartChar: l
Encoding: 108 108 330
Width: 458
VWidth: 0
GlyphClass: 2
Flags: W
PickledData: "(dp1
S'org.robofab.postScriptHintData'
p2
(dp3
sS'com.typemytype.robofont.layerData'
p4
(dp5
S'b'
(dp6
S'name'
p7
S'l'
sS'lib'
p8
(dp9
sS'unicodes'
p10
(tsS'width'
p11
I563
sS'contours'
p12
(tsS'components'
p13
(tsS'anchors'
p14
(tsss."
AnchorPoint: "top" 235 1152 basechar 0
AnchorPoint: "bot" 238 0 basechar 0
LayerCount: 2
Fore
SplineSet
56 0 m 257
 412 0 l 257
 412 45 l 257
 265 45 l 257
 265 1174 l 257
 64 1174 l 257
 64 1129 l 257
 206 1129 l 257
 206 45 l 257
 56 45 l 257
 56 0 l 257
EndSplineSet
EndChar

StartChar: less
Encoding: 60 60 335
Width: 914
VWidth: 0
GlyphClass: 2
Flags: W
PickledData: "(dp1
S'org.robofab.postScriptHintData'
p2
(dp3
sS'com.typemytype.robofont.layerData'
p4
(dp5
S'b'
(dp6
S'name'
p7
S'less'
p8
sS'lib'
p9
(dp10
sS'unicodes'
p11
(tsS'width'
p12
I896
sS'contours'
p13
(tsS'components'
p14
(tsS'anchors'
p15
(tsss."
LayerCount: 2
Fore
SplineSet
774 -99 m 257
 774 -18 l 257
 25 569 l 257
 774 1159 l 257
 774 1244 l 257
 -43 581 l 257
 -43 556 l 257
 774 -99 l 257
EndSplineSet
EndChar

StartChar: lessequal
Encoding: 8804 8804 336
Width: 637
VWidth: 0
GlyphClass: 2
Flags: W
PickledData: "(dp1
S'org.robofab.postScriptHintData'
p2
(dp3
sS'com.typemytype.robofont.layerData'
p4
(dp5
S'b'
(dp6
S'name'
p7
S'lessequal'
p8
sS'lib'
p9
(dp10
sS'unicodes'
p11
(tsS'width'
p12
I593
sS'contours'
p13
(tsS'components'
p14
(tsS'anchors'
p15
(tsss."
LayerCount: 2
Fore
SplineSet
637 185 m 257
 637 237 l 257
 86 529 l 257
 637 823 l 257
 637 878 l 257
 -1 545 l 257
 -1 515 l 257
 637 185 l 257
-1 0 m 257
 637 0 l 257
 637 44 l 257
 -1 44 l 257
 -1 0 l 257
EndSplineSet
EndChar

StartChar: logicalnot
Encoding: 172 172 338
Width: 857
VWidth: 0
GlyphClass: 2
Flags: W
PickledData: "(dp1
S'org.robofab.postScriptHintData'
p2
(dp3
sS'com.typemytype.robofont.layerData'
p4
(dp5
S'b'
(dp6
S'name'
p7
S'logicalnot'
p8
sS'lib'
p9
(dp10
sS'unicodes'
p11
(tsS'width'
p12
I827
sS'contours'
p13
(tsS'components'
p14
(tsS'anchors'
p15
(tsss."
LayerCount: 2
Fore
SplineSet
711 307 m 257
 757 307 l 257
 757 661 l 257
 92 661 l 257
 92 615 l 257
 711 615 l 257
 711 307 l 257
EndSplineSet
EndChar

StartChar: lozenge
Encoding: 9674 9674 340
Width: 967
VWidth: 0
GlyphClass: 2
Flags: W
PickledData: "(dp1
S'org.robofab.postScriptHintData'
p2
(dp3
sS'com.typemytype.robofont.layerData'
p4
(dp5
S'b'
(dp6
S'name'
p7
S'lozenge'
p8
sS'lib'
p9
(dp10
sS'unicodes'
p11
(tsS'width'
p12
I948
sS'contours'
p13
(tsS'components'
p14
(tsS'anchors'
p15
(tsss."
LayerCount: 2
Fore
SplineSet
462 -29 m 257
 506 -29 l 257
 928 626 l 257
 506 1282 l 257
 462 1282 l 257
 38 624 l 257
 462 -29 l 257
486 22 m 257
 116 626 l 257
 486 1228 l 257
 856 626 l 257
 486 22 l 257
EndSplineSet
EndChar

StartChar: lslash
Encoding: 322 322 341
Width: 456
VWidth: 0
GlyphClass: 2
Flags: W
PickledData: "(dp1
S'org.robofab.postScriptHintData'
p2
(dp3
sS'com.typemytype.robofont.layerData'
p4
(dp5
S'b'
(dp6
S'name'
p7
S'lslash'
p8
sS'lib'
p9
(dp10
sS'unicodes'
p11
(tsS'width'
p12
I506
sS'contours'
p13
(tsS'components'
p14
(tsS'anchors'
p15
(tsss."
LayerCount: 2
Fore
SplineSet
52 450 m 257
 409 672 l 257
 409 732 l 257
 52 508 l 257
 52 450 l 257
EndSplineSet
Refer: 330 108 N 1 0 0 1 0 0 2
EndChar

StartChar: m
Encoding: 109 109 342
Width: 1577
VWidth: 0
GlyphClass: 2
Flags: W
PickledData: "(dp1
S'org.robofab.postScriptHintData'
p2
(dp3
sS'com.typemytype.robofont.layerData'
p4
(dp5
S'b'
(dp6
S'name'
p7
S'm'
sS'lib'
p8
(dp9
sS'unicodes'
p10
(tsS'width'
p11
I1571
sS'contours'
p12
(tsS'components'
p13
(tsS'anchors'
p14
(tsss."
AnchorPoint: "top" 810 804 basechar 0
LayerCount: 2
Fore
SplineSet
35 0 m 257
 443 0 l 257
 443 45 l 257
 272 45 l 257
 272 674.027 l 257
 388.766 734.222 580.289 778.713 588.26 778.713 c 258
 588.26 778.713 588.451 778.479 587 778 c 257
 708 778 784 708 784 594 c 258
 784 45 l 257
 610 45 l 257
 610 0 l 257
 996 0 l 257
 996 45 l 257
 843 45 l 257
 843 578 l 258
 843 609.862 838.805 639.155 830.841 665.579 c 257
 962.049 735.132 1086.82 778 1162 778 c 256
 1283 778 1359 708 1359 594 c 258
 1359 45 l 257
 1185 45 l 257
 1185 0 l 257
 1571 0 l 257
 1571 45 l 257
 1418 45 l 257
 1418 578 l 258
 1418 732 1320 826 1172 826 c 256
 1075.55 826 941.542 777.715 816.485 702.284 c 257
 777.851 781.008 699.392 826 597 826 c 256
 508.355 826 387.987 785.215 272 720.054 c 257
 272 804 l 257
 38 804 l 257
 38 759 l 257
 213 759 l 257
 213 45 l 257
 35 45 l 257
 35 0 l 257
EndSplineSet
EndChar

StartChar: macron
Encoding: 175 175 343
Width: 323
VWidth: 0
GlyphClass: 4
Flags: W
PickledData: "(dp1
S'org.robofab.postScriptHintData'
p2
(dp3
sS'com.typemytype.robofont.layerData'
p4
(dp5
S'b'
(dp6
S'name'
p7
S'macron'
p8
sS'lib'
p9
(dp10
sS'unicodes'
p11
(tsS'width'
p12
I316
sS'contours'
p13
(tsS'components'
p14
(tsS'anchors'
p15
(tsss."
AnchorPoint: "top" 168 804 mark 0
LayerCount: 2
Fore
SplineSet
-23 922 m 257
 355 922 l 257
 355 962 l 257
 -23 962 l 257
 -23 922 l 257
EndSplineSet
EndChar

StartChar: minus
Encoding: 8722 8722 345
Width: 914
VWidth: 0
GlyphClass: 2
Flags: W
PickledData: "(dp1
S'org.robofab.postScriptHintData'
p2
(dp3
sS'com.typemytype.robofont.layerData'
p4
(dp5
S'b'
(dp6
S'name'
p7
S'minus'
p8
sS'lib'
p9
(dp10
sS'unicodes'
p11
(tsS'width'
p12
I912
sS'contours'
p13
(tsS'components'
p14
(tsS'anchors'
p15
(tsss."
LayerCount: 2
Fore
SplineSet
100 555 m 257
 814 555 l 257
 814 612 l 257
 100 612 l 257
 100 555 l 257
EndSplineSet
EndChar

StartChar: mu
Encoding: 956 956 346
Width: 1028
VWidth: 0
GlyphClass: 2
Flags: W
PickledData: "(dp1
S'org.robofab.postScriptHintData'
p2
(dp3
s."
LayerCount: 2
Fore
SplineSet
193 -308 m 257
 253 -308 l 257
 253 381 l 257
 193 381 l 257
 193 -308 l 257
EndSplineSet
Refer: 448 117 N 1 0 0 1 0 0 2
EndChar

StartChar: multiply
Encoding: 215 215 347
Width: 568
VWidth: 0
GlyphClass: 2
Flags: W
PickledData: "(dp1
S'org.robofab.postScriptHintData'
p2
(dp3
sS'com.typemytype.robofont.layerData'
p4
(dp5
S'b'
(dp6
S'name'
p7
S'multiply'
p8
sS'lib'
p9
(dp10
sS'unicodes'
p11
(tsS'width'
p12
I520
sS'contours'
p13
(tsS'components'
p14
(tsS'anchors'
p15
(tsss."
LayerCount: 2
Fore
SplineSet
498 362 m 257
 532 397 l 257
 326 606 l 257
 533 815 l 257
 499 851 l 257
 289 642 l 257
 82 848 l 257
 46 813 l 257
 254 605 l 257
 46 398 l 257
 80 363 l 257
 289 571 l 257
 498 362 l 257
EndSplineSet
EndChar

StartChar: n
Encoding: 110 110 348
Width: 1017
VWidth: 0
GlyphClass: 2
Flags: W
PickledData: "(dp1
S'org.robofab.postScriptHintData'
p2
(dp3
sS'com.typemytype.robofont.layerData'
p4
(dp5
S'b'
(dp6
S'name'
p7
S'n'
sS'lib'
p8
(dp9
sS'unicodes'
p10
(tsS'width'
p11
I1010
sS'contours'
p12
(tsS'components'
p13
(tsS'anchors'
p14
(tsss."
AnchorPoint: "top" 595 804 basechar 0
AnchorPoint: "bot" 548 0 basechar 0
LayerCount: 2
Fore
SplineSet
35 0 m 257
 443 0 l 257
 443 45 l 257
 272 45 l 257
 272 666.193 l 257
 393.885 730.676 594.994 778.782 603.356 778.782 c 257
 603.356 778.782 603.55 778.525 602 778 c 257
 723 778 799 708 799 594 c 258
 799 45 l 257
 625 45 l 257
 625 0 l 257
 1011 0 l 257
 1011 45 l 257
 858 45 l 257
 858 578 l 258
 858 732 760 826 612 826 c 256
 519.526 826 392.532 781.616 272 711.476 c 257
 272 804 l 257
 38 804 l 257
 38 759 l 257
 213 759 l 257
 213 45 l 257
 35 45 l 257
 35 0 l 257
EndSplineSet
EndChar

StartChar: nine
Encoding: 57 57 355
Width: 846
VWidth: 0
GlyphClass: 2
Flags: W
PickledData: "(dp1
S'org.robofab.postScriptHintData'
p2
(dp3
sS'com.typemytype.robofont.layerData'
p4
(dp5
S'b'
(dp6
S'name'
p7
S'nine'
p8
sS'lib'
p9
(dp10
sS'unicodes'
p11
(tsS'width'
p12
I830
sS'contours'
p13
(tsS'components'
p14
(tsS'anchors'
p15
(tsss."
LayerCount: 2
Fore
SplineSet
343 -79 m 257
 706 539 l 258
 743 600 794 704 794 839 c 256
 794 1036 645 1174 436 1174 c 256
 209 1174 68 1038 68 825 c 256
 68 613 210 480 425 480 c 256
 497 480 607 511 662 570 c 257
 290 -50 l 257
 343 -79 l 257
428 523 m 256
 241 523 124 641 124 826 c 256
 124 1012 244 1130 436 1130 c 256
 614 1130 735 1008 735 838 c 256
 735 637 582 523 428 523 c 256
EndSplineSet
EndChar

StartChar: notequal
Encoding: 8800 8800 357
Width: 828
VWidth: 0
GlyphClass: 2
Flags: W
PickledData: "(dp1
S'org.robofab.postScriptHintData'
p2
(dp3
sS'com.typemytype.robofont.layerData'
p4
(dp5
S'b'
(dp6
S'name'
p7
S'notequal'
p8
sS'lib'
p9
(dp10
sS'unicodes'
p11
(tsS'width'
p12
I570
sS'contours'
p13
(tsS'components'
p14
(tsS'anchors'
p15
(tsss."
LayerCount: 2
Fore
SplineSet
306 79 m 257
 349 79 l 257
 398 263 l 257
 752 263 l 257
 752 302 l 257
 408 302 l 257
 469 532 l 257
 742 532 l 257
 742 575 l 257
 479 575 l 257
 528 757 l 257
 489 757 l 257
 439 575 l 257
 84 575 l 257
 84 532 l 257
 427 532 l 257
 366 302 l 257
 94 302 l 257
 94 263 l 257
 355 263 l 257
 306 79 l 257
EndSplineSet
EndChar

StartChar: numbersign
Encoding: 35 35 359
Width: 948
VWidth: 0
GlyphClass: 2
Flags: W
PickledData: "(dp1
S'org.robofab.postScriptHintData'
p2
(dp3
sS'com.typemytype.robofont.layerData'
p4
(dp5
S'b'
(dp6
S'name'
p7
S'numbersign'
p8
sS'lib'
p9
(dp10
sS'unicodes'
p11
(tsS'width'
p12
I917
sS'contours'
p13
(tsS'components'
p14
(tsS'anchors'
p15
(tsss."
LayerCount: 2
Fore
SplineSet
187 -1 m 257
 251 -1 l 257
 283 383 l 257
 628 383 l 257
 594 -1 l 257
 658 -1 l 257
 690 383 l 257
 856 383 l 257
 857 426 l 257
 694 426 l 257
 724 780 l 257
 892 780 l 257
 894 823 l 257
 725 823 l 257
 752 1156 l 257
 689 1156 l 257
 662 823 l 257
 316 823 l 257
 345 1156 l 257
 280 1156 l 257
 253 823 l 257
 97 823 l 257
 96 780 l 257
 251 780 l 257
 223 426 l 257
 61 426 l 257
 58 383 l 257
 219 383 l 257
 187 -1 l 257
285 426 m 257
 315 780 l 257
 660 780 l 257
 630 426 l 257
 285 426 l 257
EndSplineSet
EndChar

StartChar: o
Encoding: 111 111 360
Width: 985
VWidth: 0
GlyphClass: 2
Flags: W
PickledData: "(dp1
S'org.robofab.postScriptHintData'
p2
(dp3
sS'com.typemytype.robofont.layerData'
p4
(dp5
S'b'
(dp6
S'name'
p7
S'o'
sS'lib'
p8
(dp9
sS'unicodes'
p10
(tsS'width'
p11
I986
sS'contours'
p12
(tsS'components'
p13
(tsS'anchors'
p14
(tsss."
AnchorPoint: "top" 488 805 basechar 0
LayerCount: 2
Fore
SplineSet
490 -22 m 256
 744 -22 923 156 923 408 c 256
 923 653 744 826 491 826 c 256
 239 826 61 652 61 407 c 256
 61 155 239 -22 490 -22 c 256
490 24 m 256
 273 24 120 183 120 407 c 256
 120 626 273 780 490 780 c 256
 709 780 865 626 865 408 c 256
 865 183 709 24 490 24 c 256
EndSplineSet
Substitution2: "Single Substitution lookup 14 subtable" ordmasculine
EndChar

StartChar: oe
Encoding: 339 339 368
Width: 1783
VWidth: 0
GlyphClass: 2
Flags: W
PickledData: "(dp1
S'org.robofab.postScriptHintData'
p2
(dp3
sS'com.typemytype.robofont.layerData'
p4
(dp5
S'b'
(dp6
S'name'
p7
S'oe'
p8
sS'lib'
p9
(dp10
sS'unicodes'
p11
(tsS'width'
p12
I1961
sS'contours'
p13
(tsS'components'
p14
(tsS'anchors'
p15
(tsss."
LayerCount: 2
Fore
SplineSet
494 -22 m 256
 689 -22 840 86 896 251 c 257
 956 76 1120 -22 1293 -22 c 256
 1417 -22 1548 26 1649 129 c 257
 1627 172 l 257
 1558 89 1419 23 1294 23 c 256
 1115 23 938 148 928 387 c 257
 1669 387 l 257
 1661 708 1461 826 1275 826 c 256
 1117 826 956 737 898 559 c 257
 840 721 689 826 494 826 c 256
 243 826 66 651 66 406 c 256
 66 155 242 -22 494 -22 c 256
494 23 m 256
 276 23 123 182 123 406 c 256
 123 626 276 780 494 780 c 256
 714 780 868 626 868 407 c 256
 868 182 714 23 494 23 c 256
927 429 m 257
 935 644 1087 781 1275 781 c 256
 1443 781 1591 670 1614 429 c 257
 927 429 l 257
EndSplineSet
EndChar

StartChar: ogonek
Encoding: 731 731 369
Width: 400
VWidth: 0
GlyphClass: 2
Flags: W
PickledData: "(dp1
S'org.robofab.postScriptHintData'
p2
(dp3
sS'com.typemytype.robofont.layerData'
p4
(dp5
S'b'
(dp6
S'name'
p7
S'ogonek'
p8
sS'lib'
p9
(dp10
sS'unicodes'
p11
(tsS'width'
p12
I390
sS'contours'
p13
(tsS'components'
p14
(tsS'anchors'
p15
(tsss."
LayerCount: 2
Fore
SplineSet
241 -313 m 256
 279 -313 319 -300 354 -275 c 257
 354 -233 l 257
 324 -256 290 -268 258 -268 c 256
 206 -268 165 -236 165 -172 c 256
 165 -123 201 -59 267 1 c 257
 227 1 l 257
 150 -63 109 -133 109 -191 c 256
 109 -269 170 -313 241 -313 c 256
EndSplineSet
EndChar

StartChar: one
Encoding: 49 49 374
Width: 575
VWidth: 0
GlyphClass: 2
Flags: W
PickledData: "(dp1
S'org.robofab.postScriptHintData'
p2
(dp3
sS'com.typemytype.robofont.layerData'
p4
(dp5
S'b'
(dp6
S'name'
p7
S'one'
p8
sS'lib'
p9
(dp10
sS'unicodes'
p11
(tsS'width'
p12
I559
sS'contours'
p13
(tsS'components'
p14
(tsS'anchors'
p15
(tsss."
LayerCount: 2
Fore
SplineSet
126 0 m 257
 510 0 l 257
 510 45 l 257
 350 45 l 257
 350 1154 l 257
 131 1092 l 257
 143 1048 l 257
 291 1092 l 257
 291 45 l 257
 126 45 l 257
 126 0 l 257
EndSplineSet
Substitution2: "supsSuperscriptlookup10 subtable" onesuperior
EndChar

StartChar: onehalf
Encoding: 189 189 375
Width: 1698
VWidth: 0
GlyphClass: 3
Flags: W
PickledData: "(dp1
S'org.robofab.postScriptHintData'
p2
(dp3
s."
LayerCount: 2
Fore
SplineSet
1082 0 m 257
 1603 0 l 257
 1602 187 l 257
 1559 187 l 257
 1560 41 l 257
 1146 41 l 257
 1420 302 l 258
 1522 399 1581 475 1581 585 c 256
 1581 727 1470 799 1330 799 c 256
 1155 799 1072 686 1072 552 c 256
 1072 527 1075 502 1081 476 c 257
 1128 476 l 257
 1122 501 1119 525 1119 549 c 256
 1119 663 1187 758 1330 758 c 256
 1451 758 1532 695 1532 586 c 256
 1532 485 1493 434 1392 338 c 258
 1082 41 l 257
 1082 0 l 257
126 363 m 257
 416 363 l 257
 416 403 l 257
 295 403 l 257
 295 1152 l 257
 125 1148 l 257
 126 1108 l 257
 247 1109 l 257
 247 403 l 257
 126 403 l 257
 126 363 l 257
373 -5 m 257
 424 -5 l 257
 1203 1162 l 257
 1155 1162 l 257
 373 -5 l 257
EndSplineSet
Ligature2: "fracDiagonalFractionslookup11 subtable" one slash two
EndChar

StartChar: onequarter
Encoding: 188 188 376
Width: 1465
VWidth: 0
GlyphClass: 3
Flags: W
PickledData: "(dp1
S'org.robofab.postScriptHintData'
p2
(dp3
sS'com.typemytype.robofont.layerData'
p4
(dp5
S'b'
(dp6
S'name'
p7
S'onequarter'
p8
sS'lib'
p9
(dp10
sS'unicodes'
p11
(tsS'width'
p12
I1395
sS'contours'
p13
(tsS'components'
p14
(tsS'anchors'
p15
(tsss."
LayerCount: 2
Fore
SplineSet
1129 0 m 257
 1403 0 l 257
 1403 41 l 257
 1296 41 l 257
 1296 260 l 257
 1404 260 l 257
 1404 300 l 257
 1296 300 l 257
 1296 805 l 257
 1239 805 l 257
 882 293 l 257
 895 260 l 257
 1248 260 l 257
 1248 41 l 257
 1129 41 l 257
 1129 0 l 257
125 363 m 257
 415 363 l 257
 415 403 l 257
 294 403 l 257
 294 1152 l 257
 124 1148 l 257
 125 1108 l 257
 246 1109 l 257
 246 403 l 257
 125 403 l 257
 125 363 l 257
363 -5 m 257
 413 -5 l 257
 1192 1162 l 257
 1145 1162 l 257
 363 -5 l 257
939 300 m 257
 1248 748 l 257
 1248 300 l 257
 939 300 l 257
EndSplineSet
Ligature2: "fracDiagonalFractionslookup11 subtable" one slash four
EndChar

StartChar: onesuperior
Encoding: 185 185 377
Width: 576
VWidth: 0
GlyphClass: 2
Flags: W
PickledData: "(dp1
S'org.robofab.postScriptHintData'
p2
(dp3
sS'com.typemytype.robofont.layerData'
p4
(dp5
S'b'
(dp6
S'name'
p7
S'uni00B9'
p8
sS'lib'
p9
(dp10
sS'unicodes'
p11
(tsS'width'
p12
I531
sS'contours'
p13
(tsS'components'
p14
(tsS'anchors'
p15
(tsss."
LayerCount: 2
Fore
SplineSet
143 548 m 257
 441 548 l 257
 441 589 l 257
 321 589 l 257
 321 1312 l 257
 147 1277 l 257
 157 1235 l 257
 267 1258 l 257
 267 589 l 257
 143 589 l 257
 143 548 l 257
EndSplineSet
EndChar

StartChar: ordfeminine
Encoding: 170 170 379
Width: 799
VWidth: 0
GlyphClass: 2
Flags: W
PickledData: "(dp1
S'org.robofab.postScriptHintData'
p2
(dp3
sS'com.typemytype.robofont.layerData'
p4
(dp5
S'b'
(dp6
S'name'
p7
S'ordfeminine'
p8
sS'lib'
p9
(dp10
sS'unicodes'
p11
(tsS'width'
p12
I801
sS'contours'
p13
(tsS'components'
p14
(tsS'anchors'
p15
(tsss."
LayerCount: 2
Fore
SplineSet
328 562 m 256
 405 562 499 593 550 635 c 257
 552 571 l 257
 709 571 l 257
 709 614 l 257
 605 614 l 257
 605 984 l 258
 605 1060 567 1174 377 1174 c 256
 296 1174 216 1157 149 1107 c 257
 173 1067 l 257
 231 1112 306 1129 380 1129 c 256
 495 1129 549 1078 549 973 c 258
 549 890 l 257
 495 899 428 907 364 907 c 256
 238 907 122 873 122 737 c 256
 122 645 186 562 328 562 c 256
330 605 m 256
 228 605 177 659 177 737 c 256
 177 841 264 866 374 866 c 256
 431 866 492 859 549 853 c 257
 549 681 l 257
 492 631 408 605 330 605 c 256
EndSplineSet
EndChar

StartChar: ordmasculine
Encoding: 186 186 380
Width: 820
VWidth: 0
GlyphClass: 2
Flags: W
PickledData: "(dp1
S'org.robofab.postScriptHintData'
p2
(dp3
sS'com.typemytype.robofont.layerData'
p4
(dp5
S'b'
(dp6
S'name'
p7
S'ordmasculine'
p8
sS'lib'
p9
(dp10
sS'unicodes'
p11
(tsS'width'
p12
I809
sS'contours'
p13
(tsS'components'
p14
(tsS'anchors'
p15
(tsss."
LayerCount: 2
Fore
SplineSet
410 553 m 256
 574 553 716 656 716 864 c 256
 716 1070 574 1174 410 1174 c 256
 247 1174 105 1070 105 864 c 256
 105 656 247 553 410 553 c 256
410 598 m 256
 283 598 161 678 161 863 c 256
 161 1048 283 1129 410 1129 c 256
 538 1129 659 1048 659 864 c 256
 659 678 538 598 410 598 c 256
EndSplineSet
EndChar

StartChar: oslash
Encoding: 248 248 381
Width: 1018
VWidth: 0
GlyphClass: 2
Flags: W
PickledData: "(dp1
S'org.robofab.postScriptHintData'
p2
(dp3
sS'com.typemytype.robofont.layerData'
p4
(dp5
S'b'
(dp6
S'name'
p7
S'oslash'
p8
sS'lib'
p9
(dp10
sS'unicodes'
p11
(tsS'width'
p12
I1023
sS'contours'
p13
(tsS'components'
p14
(tsS'anchors'
p15
(tsss."
LayerCount: 2
Fore
SplineSet
196 -186 m 257
 880 970 l 257
 853 989 l 257
 169 -166 l 257
 196 -186 l 257
EndSplineSet
Refer: 360 111 N 1 0 0 1 0 0 2
EndChar

StartChar: p
Encoding: 112 112 384
Width: 1039
VWidth: 0
GlyphClass: 2
Flags: W
PickledData: "(dp1
S'org.robofab.postScriptHintData'
p2
(dp3
sS'com.typemytype.robofont.layerData'
p4
(dp5
S'b'
(dp6
S'name'
p7
S'p'
sS'lib'
p8
(dp9
sS'unicodes'
p10
(tsS'width'
p11
I1037
sS'contours'
p12
(tsS'components'
p13
(tsS'anchors'
p14
(tsss."
AnchorPoint: "top" 564 805 basechar 0
LayerCount: 2
Fore
SplineSet
550 -22 m 256
 807.957 -22 977.113 143.93 977.113 413.739 c 256
 977.113 668.83 816.2 826 567 826 c 256
 467.141 826 352.973 784.663 261.352 715.455 c 257
 260 804 l 257
 76 804 l 257
 76 759 l 257
 202 759 l 257
 202 -272 l 257
 61 -272 l 257
 61 -316 l 257
 399 -316 l 257
 399 -272 l 257
 261 -272 l 257
 261.387 93.9772 l 257
 340.688 21.1717 447.271 -22 550 -22 c 256
261.44 144.081 m 257
 261.994 667.145 l 257
 355.573 738.031 467.568 780 561 780 c 256
 779 780 919 635 919 400 c 256
 919 167 773 23 546 23 c 256
 447.159 23 341.309 68.1716 261.44 144.081 c 257
EndSplineSet
EndChar

StartChar: paragraph
Encoding: 182 182 385
Width: 973
VWidth: 0
GlyphClass: 2
Flags: W
PickledData: "(dp1
S'org.robofab.postScriptHintData'
p2
(dp3
sS'com.typemytype.robofont.layerData'
p4
(dp5
S'b'
(dp6
S'name'
p7
S'paragraph'
p8
sS'lib'
p9
(dp10
sS'unicodes'
p11
(tsS'width'
p12
I953
sS'contours'
p13
(tsS'components'
p14
(tsS'anchors'
p15
(tsss."
LayerCount: 2
Fore
SplineSet
490 -17 m 257
 862 -17 l 257
 862 29 l 257
 722 29 l 257
 722 1112 l 257
 882 1112 l 257
 882 1152 l 257
 418 1152 l 258
 210 1152 116 1020 116 916 c 256
 116 803 210 663 421 664 c 258
 663 664 l 257
 663 29 l 257
 490 29 l 257
 490 -17 l 257
484 721 m 257
 484 1112 l 257
 663 1112 l 257
 663 721 l 257
 484 721 l 257
EndSplineSet
EndChar

StartChar: parenleft
Encoding: 40 40 386
Width: 510
VWidth: 0
GlyphClass: 2
Flags: W
PickledData: "(dp1
S'org.robofab.postScriptHintData'
p2
(dp3
sS'com.typemytype.robofont.layerData'
p4
(dp5
S'b'
(dp6
S'name'
p7
S'parenleft'
p8
sS'lib'
p9
(dp10
sS'unicodes'
p11
(tsS'width'
p12
I500
sS'contours'
p13
(tsS'components'
p14
(tsS'anchors'
p15
(tsss."
LayerCount: 2
Fore
SplineSet
478 -115 m 257
 480 -79 l 257
 266 12 160 271 160 531 c 256
 160 790 266 1049 480 1139 c 257
 478 1174 l 257
 224 1083 97 805 97 528 c 256
 97 251 224 -26 478 -115 c 257
EndSplineSet
EndChar

StartChar: parenright
Encoding: 41 41 387
Width: 510
VWidth: 0
GlyphClass: 2
Flags: W
PickledData: "(dp1
S'org.robofab.postScriptHintData'
p2
(dp3
sS'com.typemytype.robofont.layerData'
p4
(dp5
S'b'
(dp6
S'name'
p7
S'parenright'
p8
sS'lib'
p9
(dp10
sS'unicodes'
p11
(tsS'width'
p12
I501
sS'contours'
p13
(tsS'components'
p14
(tsS'anchors'
p15
(tsss."
LayerCount: 2
Fore
SplineSet
88 -115 m 257
 343 -26 471 251 471 528 c 256
 471 805 343 1083 88 1174 c 257
 86 1139 l 257
 300 1049 408 790 408 531 c 256
 408 271 300 12 86 -79 c 257
 88 -115 l 257
EndSplineSet
EndChar

StartChar: partialdiff
Encoding: 8706 8706 388
Width: 1017
VWidth: 0
GlyphClass: 2
Flags: W
PickledData: "(dp1
S'org.robofab.postScriptHintData'
p2
(dp3
s."
LayerCount: 2
Fore
SplineSet
401 -22 m 256
 737 -22 848 344 848 635 c 256
 848 963 732 1173 496 1173 c 256
 354 1173 263 1110 263 1024 c 256
 263 979 284 967 312 967 c 257
 312 1087 400 1131 507 1131 c 256
 682 1131 815 989 812 538 c 257
 823 543 l 257
 808 616 714 701 561 701 c 256
 257 701 137 415 137 240 c 256
 137 102 203 -22 401 -22 c 256
418 17 m 256
 250 17 199 124 199 239 c 256
 199 381 289 661 566 661 c 256
 701 661 782 602 805 509 c 257
 780 264 646 17 418 17 c 256
EndSplineSet
EndChar

StartChar: percent
Encoding: 37 37 390
Width: 1594
VWidth: 0
GlyphClass: 2
Flags: W
PickledData: "(dp1
S'org.robofab.postScriptHintData'
p2
(dp3
sS'com.typemytype.robofont.layerData'
p4
(dp5
S'b'
(dp6
S'name'
p7
S'percent'
p8
sS'lib'
p9
(dp10
sS'unicodes'
p11
(tsS'width'
p12
I1578
sS'contours'
p13
(tsS'components'
p14
(tsS'anchors'
p15
(tsss."
LayerCount: 2
Fore
SplineSet
393 673 m 256
 258 673 162 770 162 904 c 256
 162 1038 258 1133 393 1133 c 256
 529 1133 626 1038 626 904 c 256
 626 770 529 673 393 673 c 256
393 630 m 256
 560 630 677 744 677 904 c 256
 677 1062 560 1174 393 1174 c 256
 229 1174 111 1062 111 904 c 256
 111 744 229 630 393 630 c 256
313 -39 m 257
 1335 1199 l 257
 1304 1224 l 257
 278 -8 l 257
 313 -39 l 257
1216 21 m 256
 1081 21 985 117 985 252 c 256
 985 386 1081 481 1216 481 c 256
 1352 481 1449 386 1449 252 c 256
 1449 117 1352 21 1216 21 c 256
1216 -22 m 256
 1382 -22 1500 92 1500 252 c 256
 1500 409 1382 522 1216 522 c 256
 1051 522 934 409 934 252 c 256
 934 92 1051 -22 1216 -22 c 256
EndSplineSet
EndChar

StartChar: period
Encoding: 46 46 391
Width: 462
VWidth: 0
GlyphClass: 2
Flags: W
PickledData: "(dp1
S'org.robofab.postScriptHintData'
p2
(dp3
sS'com.typemytype.robofont.layerData'
p4
(dp5
S'b'
(dp6
S'name'
p7
S'period'
p8
sS'lib'
p9
(dp10
sS'unicodes'
p11
(tsS'width'
p12
I452
sS'contours'
p13
(tsS'components'
p14
(tsS'anchors'
p15
(tsss."
LayerCount: 2
Fore
SplineSet
193 0 m 257
 281 0 l 257
 281 99 l 257
 193 99 l 257
 193 0 l 257
EndSplineSet
EndChar

StartChar: periodcentered
Encoding: 183 183 392
Width: 465
VWidth: 0
GlyphClass: 2
Flags: W
PickledData: "(dp1
S'org.robofab.postScriptHintData'
p2
(dp3
sS'com.typemytype.robofont.layerData'
p4
(dp5
S'b'
(dp6
S'name'
p7
S'periodcentered'
p8
sS'lib'
p9
(dp10
sS'unicodes'
p11
(tsS'width'
p12
I453
sS'contours'
p13
(tsS'components'
p14
(tsS'anchors'
p15
(tsss."
LayerCount: 2
Fore
SplineSet
242 503 m 256
 275 503 298 524 298 554 c 256
 298 583 275 604 242 604 c 256
 211 604 189 583 189 554 c 256
 189 524 211 503 242 503 c 256
EndSplineSet
EndChar

StartChar: perthousand
Encoding: 8240 8240 393
Width: 2292
VWidth: 0
GlyphClass: 2
Flags: W
PickledData: "(dp1
S'org.robofab.postScriptHintData'
p2
(dp3
s."
LayerCount: 2
Fore
SplineSet
1920 -22 m 256
 2087 -22 2204 92 2204 252 c 256
 2204 409 2087 522 1920 522 c 256
 1756 522 1638 409 1638 252 c 256
 1638 92 1756 -22 1920 -22 c 256
1920 21 m 256
 1785 21 1689 117 1689 252 c 256
 1689 386 1785 481 1920 481 c 256
 2056 481 2153 386 2153 252 c 256
 2153 117 2056 21 1920 21 c 256
EndSplineSet
Refer: 390 37 N 1 0 0 1 0 0 2
EndChar

StartChar: pi
Encoding: 960 960 394
Width: 1119
VWidth: 0
GlyphClass: 2
Flags: W
PickledData: "(dp1
S'org.robofab.postScriptHintData'
p2
(dp3
s."
LayerCount: 2
Fore
SplineSet
901 -11 m 256
 929 -11 968 -3 1003 11 c 257
 1003 49 l 257
 974 40 949 35 926 35 c 256
 832 35 784 106 784 245 c 256
 784 349 830 580 867 753 c 257
 1032 753 l 257
 1032 804 l 257
 303 804 l 258
 196 804 167 717 167 622 c 257
 206 622 l 257
 207 721 243 753 296 753 c 258
 391 753 l 257
 316 243 l 258
 295 106 271 35 124 35 c 257
 124 -4 l 257
 320 -4 358 60 378 238 c 258
 437 753 l 257
 825 753 l 257
 781 598 725 360 725 234 c 256
 725 67 788 -11 901 -11 c 256
EndSplineSet
EndChar

StartChar: plus
Encoding: 43 43 395
Width: 725
VWidth: 0
GlyphClass: 2
Flags: W
PickledData: "(dp1
S'org.robofab.postScriptHintData'
p2
(dp3
sS'com.typemytype.robofont.layerData'
p4
(dp5
S'b'
(dp6
S'name'
p7
S'plus'
p8
sS'lib'
p9
(dp10
sS'unicodes'
p11
(tsS'width'
p12
I690
sS'contours'
p13
(tsS'components'
p14
(tsS'anchors'
p15
(tsss."
LayerCount: 2
Fore
SplineSet
340 150 m 257
 389 150 l 257
 389 549 l 257
 727 549 l 257
 727 602 l 257
 389 602 l 257
 389 985 l 257
 340 985 l 257
 340 602 l 257
 -1 602 l 257
 -1 549 l 257
 340 549 l 257
 340 150 l 257
EndSplineSet
EndChar

StartChar: plusminus
Encoding: 177 177 396
Width: 691
VWidth: 0
GlyphClass: 2
Flags: W
PickledData: "(dp1
S'org.robofab.postScriptHintData'
p2
(dp3
sS'com.typemytype.robofont.layerData'
p4
(dp5
S'b'
(dp6
S'name'
p7
S'plusminus'
p8
sS'lib'
p9
(dp10
sS'unicodes'
p11
(tsS'width'
p12
I659
sS'contours'
p13
(tsS'components'
p14
(tsS'anchors'
p15
(tsss."
LayerCount: 2
Fore
SplineSet
323 98 m 257
 371 98 l 257
 371 497 l 257
 720 497 l 257
 720 549 l 257
 371 549 l 257
 371 933 l 257
 323 933 l 257
 323 549 l 257
 -26 549 l 257
 -26 497 l 257
 323 497 l 257
 323 98 l 257
-29 0 m 257
 718 0 l 257
 718 49 l 257
 -29 49 l 257
 -29 0 l 257
EndSplineSet
EndChar

StartChar: product
Encoding: 8719 8719 397
Width: 1322
VWidth: 0
GlyphClass: 2
Flags: W
PickledData: "(dp1
S'org.robofab.postScriptHintData'
p2
(dp3
sS'com.typemytype.robofont.layerData'
p4
(dp5
S'b'
(dp6
S'name'
p7
S'product'
p8
sS'lib'
p9
(dp10
sS'unicodes'
p11
(tsS'width'
p12
I1305
sS'contours'
p13
(tsS'components'
p14
(tsS'anchors'
p15
(tsss."
LayerCount: 2
Fore
SplineSet
116 0 m 257
 473 0 l 257
 473 47 l 257
 325 47 l 257
 325 1107 l 257
 998 1107 l 257
 998 47 l 257
 849 47 l 257
 849 0 l 257
 1206 0 l 257
 1206 47 l 257
 1057 47 l 257
 1057 1107 l 257
 1206 1107 l 257
 1206 1152 l 257
 116 1152 l 257
 116 1107 l 257
 265 1107 l 257
 265 47 l 257
 116 47 l 257
 116 0 l 257
EndSplineSet
EndChar

StartChar: q
Encoding: 113 113 398
Width: 1054
VWidth: 0
GlyphClass: 2
Flags: W
PickledData: "(dp1
S'org.robofab.postScriptHintData'
p2
(dp3
sS'com.typemytype.robofont.layerData'
p4
(dp5
S'b'
(dp6
S'name'
p7
S'q'
sS'lib'
p8
(dp9
sS'unicodes'
p10
(tsS'width'
p11
I1049
sS'contours'
p12
(tsS'components'
p13
(tsS'anchors'
p14
(tsss."
LayerCount: 2
Fore
SplineSet
61.9605 404.684 m 256
 61.9605 152.121 242.215 -22 487 -22 c 256
 588.734 -22 704.555 21.8253 786 90.091 c 257
 786 -285 l 257
 648 -285 l 257
 648 -330 l 257
 985 -330 l 257
 985 -285 l 257
 846 -285 l 257
 846 759 l 257
 977 759 l 257
 977 804 l 257
 792 804 l 257
 787.286 711.285 l 257
 700.317 780.737 573.48 826 462 826 c 256
 229.067 826 61.9605 655.047 61.9605 404.684 c 256
786 668.856 m 257
 786 137.5 l 257
 703.536 68.8015 589.408 24 491 24 c 256
 276 24 120 176 120 396 c 256
 120 624 264 780 466 780 c 256
 573.659 780 697.416 735.731 786 668.856 c 257
EndSplineSet
EndChar

StartChar: question
Encoding: 63 63 399
Width: 651
VWidth: 0
GlyphClass: 2
Flags: W
PickledData: "(dp1
S'org.robofab.postScriptHintData'
p2
(dp3
sS'com.typemytype.robofont.layerData'
p4
(dp5
S'b'
(dp6
S'name'
p7
S'question'
p8
sS'lib'
p9
(dp10
sS'unicodes'
p11
(tsS'width'
p12
I629
sS'contours'
p13
(tsS'components'
p14
(tsS'anchors'
p15
(tsss."
LayerCount: 2
Fore
SplineSet
273 285 m 257
 305 285 l 257
 365 693 626 617 626 908 c 256
 626 1075 513 1180 320 1180 c 256
 148 1180 28 1118 12 943 c 257
 57 943 l 257
 85 1087 168 1134 320 1134 c 256
 483 1134 575 1047 575 908 c 256
 575 645 309 715 273 285 c 257
287 -21 m 256
 321 -21 346 2 346 34 c 256
 346 64 321 87 287 87 c 256
 254 87 230 64 230 34 c 256
 230 2 254 -21 287 -21 c 256
EndSplineSet
EndChar

StartChar: quotedbl
Encoding: 34 34 401
Width: 543
VWidth: 0
GlyphClass: 2
Flags: W
PickledData: "(dp1
S'org.robofab.postScriptHintData'
p2
(dp3
sS'com.typemytype.robofont.layerData'
p4
(dp5
S'b'
(dp6
S'name'
p7
S'quotedbl'
p8
sS'lib'
p9
(dp10
sS'unicodes'
p11
(tsS'width'
p12
I514
sS'contours'
p13
(tsS'components'
p14
(tsS'anchors'
p15
(tsss."
LayerCount: 2
Fore
SplineSet
185 894 m 257
 214 894 l 257
 228 1255 l 257
 163 1255 l 257
 185 894 l 257
336 894 m 257
 365 894 l 257
 389 1255 l 257
 323 1255 l 257
 336 894 l 257
EndSplineSet
EndChar

StartChar: quotedblbase
Encoding: 8222 8222 402
Width: 677
VWidth: 0
GlyphClass: 2
Flags: W
PickledData: "(dp1
S'org.robofab.postScriptHintData'
p2
(dp3
sS'com.typemytype.robofont.layerData'
p4
(dp5
S'b'
(dp6
S'name'
p7
S'quotedblbase'
p8
sS'lib'
p9
(dp10
sS'unicodes'
p11
(tsS'width'
p12
I652
sS'contours'
p13
(tsS'components'
p14
(tsS'anchors'
p15
(tsss."
LayerCount: 2
Fore
SplineSet
188 -166 m 257
 276 -165 301 -89 301 -8 c 258
 301 91 l 257
 200 91 l 257
 200 -7 l 257
 248 -7 l 257
 247 -85 249 -110 188 -132 c 257
 188 -166 l 257
397 -166 m 257
 484 -165 510 -89 510 -8 c 258
 510 91 l 257
 408 91 l 257
 408 -7 l 257
 455 -7 l 257
 454 -86 457 -110 397 -132 c 257
 397 -166 l 257
EndSplineSet
EndChar

StartChar: quotedblleft
Encoding: 8220 8220 403
Width: 662
VWidth: 0
GlyphClass: 2
Flags: W
PickledData: "(dp1
S'org.robofab.postScriptHintData'
p2
(dp3
sS'com.typemytype.robofont.layerData'
p4
(dp5
S'b'
(dp6
S'name'
p7
S'quotedblleft'
p8
sS'lib'
p9
(dp10
sS'unicodes'
p11
(tsS'width'
p12
I642
sS'contours'
p13
(tsS'components'
p14
(tsS'anchors'
p15
(tsss."
LayerCount: 2
Fore
SplineSet
172 1026 m 257
 273 1026 l 257
 273 1124 l 257
 227 1124 l 257
 227 1203 225 1226 286 1250 c 257
 286 1283 l 257
 198 1282 172 1207 172 1126 c 258
 172 1026 l 257
367 1026 m 257
 468 1026 l 257
 468 1124 l 257
 422 1124 l 257
 422 1203 421 1226 481 1250 c 257
 481 1283 l 257
 393 1282 367 1207 367 1126 c 258
 367 1026 l 257
EndSplineSet
EndChar

StartChar: quotedblright
Encoding: 8221 8221 404
Width: 668
VWidth: 0
GlyphClass: 2
Flags: W
PickledData: "(dp1
S'org.robofab.postScriptHintData'
p2
(dp3
sS'com.typemytype.robofont.layerData'
p4
(dp5
S'b'
(dp6
S'name'
p7
S'quotedblright'
p8
sS'lib'
p9
(dp10
sS'unicodes'
p11
(tsS'width'
p12
I649
sS'contours'
p13
(tsS'components'
p14
(tsS'anchors'
p15
(tsss."
LayerCount: 2
Fore
SplineSet
189 1004 m 257
 276 1005 303 1081 302 1161 c 258
 302 1261 l 257
 201 1261 l 257
 201 1165 l 257
 248 1165 l 257
 247 1086 249 1060 189 1039 c 257
 189 1004 l 257
383 1004 m 257
 471 1005 497 1081 497 1161 c 258
 497 1261 l 257
 396 1261 l 257
 396 1165 l 257
 442 1165 l 257
 442 1086 443 1060 383 1039 c 257
 383 1004 l 257
EndSplineSet
EndChar

StartChar: quoteleft
Encoding: 8216 8216 405
Width: 410
VWidth: 0
GlyphClass: 2
Flags: W
PickledData: "(dp1
S'org.robofab.postScriptHintData'
p2
(dp3
sS'com.typemytype.robofont.layerData'
p4
(dp5
S'b'
(dp6
S'name'
p7
S'quoteleft'
p8
sS'lib'
p9
(dp10
sS'unicodes'
p11
(tsS'width'
p12
I399
sS'contours'
p13
(tsS'components'
p14
(tsS'anchors'
p15
(tsss."
LayerCount: 2
Fore
SplineSet
134 1026 m 257
 235 1026 l 257
 235 1124 l 257
 188 1124 l 257
 188 1203 187 1226 248 1250 c 257
 248 1283 l 257
 160 1282 134 1207 134 1126 c 258
 134 1026 l 257
EndSplineSet
EndChar

StartChar: quoteright
Encoding: 8217 8217 406
Width: 419
VWidth: 0
GlyphClass: 2
Flags: W
PickledData: "(dp1
S'org.robofab.postScriptHintData'
p2
(dp3
sS'com.typemytype.robofont.layerData'
p4
(dp5
S'b'
(dp6
S'name'
p7
S'quoteright'
p8
sS'lib'
p9
(dp10
sS'unicodes'
p11
(tsS'width'
p12
I409
sS'contours'
p13
(tsS'components'
p14
(tsS'anchors'
p15
(tsss."
LayerCount: 2
Fore
SplineSet
174 1004 m 257
 262 1005 288 1081 288 1161 c 258
 288 1261 l 257
 187 1261 l 257
 187 1165 l 257
 233 1165 l 257
 233 1086 235 1060 174 1039 c 257
 174 1004 l 257
EndSplineSet
EndChar

StartChar: quotesinglbase
Encoding: 8218 8218 407
Width: 414
VWidth: 0
GlyphClass: 2
Flags: W
PickledData: "(dp1
S'org.robofab.postScriptHintData'
p2
(dp3
sS'com.typemytype.robofont.layerData'
p4
(dp5
S'b'
(dp6
S'name'
p7
S'quotesinglbase'
p8
sS'lib'
p9
(dp10
sS'unicodes'
p11
(tsS'width'
p12
I403
sS'contours'
p13
(tsS'components'
p14
(tsS'anchors'
p15
(tsss."
LayerCount: 2
Fore
SplineSet
179 -166 m 257
 268 -165 293 -89 292 -8 c 258
 292 91 l 257
 191 91 l 257
 191 -7 l 257
 239 -7 l 257
 238 -85 239 -110 179 -132 c 257
 179 -166 l 257
EndSplineSet
EndChar

StartChar: quotesingle
Encoding: 39 39 408
Width: 263
VWidth: 0
GlyphClass: 2
Flags: W
PickledData: "(dp1
S'org.robofab.postScriptHintData'
p2
(dp3
sS'com.typemytype.robofont.layerData'
p4
(dp5
S'b'
(dp6
S'name'
p7
S'quotesingle'
p8
sS'lib'
p9
(dp10
sS'unicodes'
p11
(tsS'width'
p12
I239
sS'contours'
p13
(tsS'components'
p14
(tsS'anchors'
p15
(tsss."
LayerCount: 2
Fore
SplineSet
124 894 m 257
 154 894 l 257
 168 1255 l 257
 102 1255 l 257
 124 894 l 257
EndSplineSet
EndChar

StartChar: r
Encoding: 114 114 409
Width: 775
VWidth: 0
GlyphClass: 2
Flags: W
PickledData: "(dp1
S'org.robofab.postScriptHintData'
p2
(dp3
sS'com.typemytype.robofont.layerData'
p4
(dp5
S'b'
(dp6
S'name'
p7
S'r'
sS'lib'
p8
(dp9
sS'unicodes'
p10
(tsS'width'
p11
I773
sS'contours'
p12
((dp13
S'points'
p14
((dp15
S'segmentType'
p16
S'line'
p17
sS'x'
I338
sS'smooth'
p18
I0
sS'y'
I449
s(dp19
S'y'
I643
sS'x'
I338
sg18
I0
s(dp20
S'y'
I756
sS'x'
I441
sg18
I0
s(dp21
g16
S'curve'
p22
sS'x'
I570
sg18
I1
sS'y'
I756
s(dp23
S'y'
I756
sS'x'
I614
sg18
I0
s(dp24
S'y'
I742
sS'x'
I651
sg18
I0
s(dp25
g16
S'curve'
p26
sS'x'
I704
sg18
I0
sS'y'
I716
s(dp27
g16
S'line'
p28
sS'x'
I722
sg18
I0
sS'y'
I784
s(dp29
S'y'
I810
sS'x'
I664
sg18
I0
s(dp30
S'y'
I820
sS'x'
I622
sg18
I0
s(dp31
g16
S'curve'
p32
sS'x'
I575
sg18
I1
sS'y'
I820
s(dp33
S'y'
I820
sS'x'
I467
sg18
I0
s(dp34
S'y'
I769
sS'x'
I381
sg18
I0
s(dp35
g16
S'curve'
p36
sS'x'
I316
sg18
I0
sS'y'
I582
stp37
stp38
sS'components'
p39
(tsS'anchors'
p40
(tsss."
AnchorPoint: "top" 497 805 basechar 0
AnchorPoint: "bot" 328 0 basechar 0
LayerCount: 2
Fore
SplineSet
351 462 m 257
 351 659 450 776 559 776 c 256
 613 776 649 762 692 738 c 257
 705 785 l 257
 659 811 613 824 558 824 c 256
 477.078 824 394.819 777.231 350 647.647 c 257
 350 804 l 257
 116 804 l 257
 116 759 l 257
 291 759 l 257
 291 45 l 257
 113 45 l 257
 113 0 l 257
 521 0 l 257
 521 45 l 257
 350 45 l 257
 350 465.44 l 257
 351 462 l 257
EndSplineSet
EndChar

StartChar: radical
Encoding: 8730 8730 411
Width: 1123
VWidth: 0
GlyphClass: 2
Flags: W
PickledData: "(dp1
S'org.robofab.postScriptHintData'
p2
(dp3
sS'com.typemytype.robofont.layerData'
p4
(dp5
S'b'
(dp6
S'name'
p7
S'radical'
p8
sS'lib'
p9
(dp10
sS'unicodes'
p11
(tsS'width'
p12
I1118
sS'contours'
p13
(tsS'components'
p14
(tsS'anchors'
p15
(tsss."
LayerCount: 2
Fore
SplineSet
506 -14 m 257
 539 -14 l 257
 993 1363 l 257
 945 1363 l 257
 526 87 l 257
 290 628 l 257
 51 628 l 257
 51 585 l 257
 238 585 l 257
 506 -14 l 257
EndSplineSet
EndChar

StartChar: registered
Encoding: 174 174 415
Width: 1515
VWidth: 0
GlyphClass: 2
Flags: W
PickledData: "(dp1
S'org.robofab.postScriptHintData'
p2
(dp3
sS'com.typemytype.robofont.layerData'
p4
(dp5
S'b'
(dp6
S'name'
p7
S'registered'
p8
sS'lib'
p9
(dp10
sS'unicodes'
p11
(tsS'width'
p12
I1512
sS'contours'
p13
(tsS'components'
p14
(tsS'anchors'
p15
(tsss."
LayerCount: 2
Fore
SplineSet
429 226 m 257
 669 226 l 257
 669 262 l 257
 571 262 l 257
 571 579 l 257
 754 579 l 257
 952 226 l 257
 1086 226 l 257
 1086 264 l 257
 983 264 l 257
 802 583 l 257
 937 589 1012 654 1012 764 c 256
 1012 892 934 964 796 964 c 258
 422 964 l 257
 422 928 l 257
 525 928 l 257
 525 262 l 257
 429 262 l 257
 429 226 l 257
571 618 m 257
 571 928 l 257
 796 928 l 258
 904 928 967 869 967 764 c 256
 967 670 904 618 797 618 c 258
 571 618 l 257
732 23 m 256
 352 23 181 301 181 575 c 256
 181 838 355 1133 732 1133 c 256
 1104 1133 1283 838 1283 575 c 256
 1283 310 1104 23 732 23 c 256
732 -22 m 256
 1147 -22 1337 284 1337 574 c 256
 1337 863 1144 1178 732 1178 c 256
 321 1178 128 864 128 574 c 256
 128 286 317 -23 732 -22 c 256
EndSplineSet
EndChar

StartChar: ring
Encoding: 730 730 416
Width: 335
VWidth: 0
GlyphClass: 4
Flags: W
PickledData: "(dp1
S'org.robofab.postScriptHintData'
p2
(dp3
sS'com.typemytype.robofont.layerData'
p4
(dp5
S'b'
(dp6
S'name'
p7
S'ring'
p8
sS'lib'
p9
(dp10
sS'unicodes'
p11
(tsS'width'
p12
I317
sS'contours'
p13
(tsS'components'
p14
(tsS'anchors'
p15
(tsss."
AnchorPoint: "top" 164 804 mark 0
AnchorPoint: "top" 165 1075 basechar 0
LayerCount: 2
Fore
SplineSet
165 886 m 256
 241 886 284 931 284 1004 c 256
 284 1075 240 1118 164 1118 c 256
 89 1118 45 1075 44 1004 c 256
 45 931 89 886 165 886 c 256
165 918 m 256
 113 918 82 950 82 1003 c 256
 82 1054 113 1085 165 1085 c 256
 216 1085 247 1054 247 1003 c 256
 247 950 216 918 165 918 c 256
EndSplineSet
EndChar

StartChar: s
Encoding: 115 115 418
Width: 914
VWidth: 0
GlyphClass: 2
Flags: W
PickledData: "(dp1
S'org.robofab.postScriptHintData'
p2
(dp3
sS'com.typemytype.robofont.layerData'
p4
(dp5
S'b'
(dp6
S'name'
p7
S's'
sS'lib'
p8
(dp9
sS'unicodes'
p10
(tsS'width'
p11
I919
sS'contours'
p12
(tsS'components'
p13
(tsS'anchors'
p14
(tsss."
AnchorPoint: "top" 455 805 basechar 0
AnchorPoint: "bot" 471 0 basechar 0
LayerCount: 2
Fore
SplineSet
482 -22 m 256
 640 -22 797 45 798 194 c 256
 798 367 686 394 514 432 c 258
 380 461 l 258
 285.478 481.894 207.994 518.296 207.994 607.5 c 256
 207.994 727.446 327.489 781 445 781 c 256
 537 781 656 736 699 675 c 257
 706 543 l 257
 755 543 l 257
 755 805 l 257
 702 805 l 257
 702 731 l 257
 639 791 535 826 441 826 c 256
 289 826 150 759 150 604 c 256
 150 489 237 437 366 409 c 257
 499 382 l 258
 668.178 346.963 743.007 316.908 743.007 192.595 c 256
 743.007 89.3879 633.301 22 479 22 c 256
 363 22 261 59 197 134 c 257
 193 240 l 257
 144 240 l 257
 144 0 l 257
 196 0 l 257
 196 82 l 257
 246 25 359 -22 482 -22 c 256
EndSplineSet
EndChar

StartChar: section
Encoding: 167 167 426
Width: 948
VWidth: 0
GlyphClass: 2
Flags: W
PickledData: "(dp1
S'org.robofab.postScriptHintData'
p2
(dp3
s."
LayerCount: 2
Fore
SplineSet
500 -136 m 256
 692 -136 780 -43 780 100 c 256
 780 182 756 224 720 260 c 257
 794 308 831 386 828 476 c 256
 825 590 738 645 528 764 c 256
 353 863 284 889 284 1020 c 256
 284 1128 357 1204 501 1204 c 256
 651 1204 706 1124 716 1007 c 257
 744 1007 754 1022 754 1052 c 256
 754 1139 690 1240 502 1240 c 256
 329 1240 232 1145 232 1018 c 256
 232 916 276 858 351 809 c 257
 265 789 196 726 196 628 c 256
 196 506 256 461 454 360 c 256
 696 238 733 206 733 94 c 256
 733 -25 666 -101 502 -101 c 256
 356 -101 268 -65 265 72 c 257
 244 72 224 64 224 25 c 256
 224 -82 316 -136 500 -136 c 256
698 281 m 257
 648 319 568 359 482 404 c 256
 308 496 248 521 248 632 c 256
 248 705 292 764 373 791 c 257
 379 788 501 721 509 717 c 256
 715 605 778 552 778 464 c 256
 778 391 759 329 698 281 c 257
EndSplineSet
EndChar

StartChar: semicolon
Encoding: 59 59 427
Width: 317
VWidth: 0
GlyphClass: 2
Flags: W
PickledData: "(dp1
S'org.robofab.postScriptHintData'
p2
(dp3
sS'com.typemytype.robofont.layerData'
p4
(dp5
S'b'
(dp6
S'name'
p7
S'semicolon'
p8
sS'lib'
p9
(dp10
sS'unicodes'
p11
(tsS'width'
p12
I294
sS'contours'
p13
(tsS'components'
p14
(tsS'anchors'
p15
(tsss."
LayerCount: 2
Fore
SplineSet
84 90 m 257
 174 91 199 169 199 251 c 258
 199 355 l 257
 97 355 l 257
 97 255 l 257
 143 255 l 257
 143 174 146 147 84 126 c 257
 84 90 l 257
104 718 m 257
 195 718 l 257
 195 818 l 257
 104 818 l 257
 104 718 l 257
EndSplineSet
EndChar

StartChar: seven
Encoding: 55 55 428
Width: 967
VWidth: 0
GlyphClass: 2
Flags: W
PickledData: "(dp1
S'org.robofab.postScriptHintData'
p2
(dp3
sS'com.typemytype.robofont.layerData'
p4
(dp5
S'b'
(dp6
S'name'
p7
S'seven'
p8
sS'lib'
p9
(dp10
sS'unicodes'
p11
(tsS'width'
p12
I964
sS'contours'
p13
(tsS'components'
p14
(tsS'anchors'
p15
(tsss."
LayerCount: 2
Fore
SplineSet
415 0 m 257
 475 0 l 257
 475 0 684 673 857 1109 c 257
 857 1152 l 257
 125 1152 l 257
 125 849 l 257
 183 849 l 257
 183 1107 l 257
 793 1107 l 257
 566 508 415 0 415 0 c 257
EndSplineSet
EndChar

StartChar: six
Encoding: 54 54 429
Width: 845
VWidth: 0
GlyphClass: 2
Flags: W
PickledData: "(dp1
S'org.robofab.postScriptHintData'
p2
(dp3
sS'com.typemytype.robofont.layerData'
p4
(dp5
S'b'
(dp6
S'name'
p7
S'six'
p8
sS'lib'
p9
(dp10
sS'unicodes'
p11
(tsS'width'
p12
I829
sS'contours'
p13
(tsS'components'
p14
(tsS'anchors'
p15
(tsss."
LayerCount: 2
Fore
SplineSet
416 -22 m 256
 644 -22 785 114 785 328 c 256
 785 539 644 673 429 673 c 256
 357 673 245 641 190 583 c 257
 563 1202 l 257
 509 1231 l 257
 147 613 l 258
 110 553 59 448 59 313 c 256
 59 116 208 -22 416 -22 c 256
417 22 m 256
 239 22 118 144 118 314 c 256
 118 515 271 629 424 629 c 256
 611 629 728 512 728 326 c 256
 728 141 609 22 417 22 c 256
EndSplineSet
EndChar

StartChar: slash
Encoding: 47 47 430
Width: 339
VWidth: 0
GlyphClass: 2
Flags: W
PickledData: "(dp1
S'org.robofab.postScriptHintData'
p2
(dp3
sS'com.typemytype.robofont.layerData'
p4
(dp5
S'b'
(dp6
S'name'
p7
S'slash'
p8
sS'lib'
p9
(dp10
sS'unicodes'
p11
(tsS'width'
p12
I295
sS'contours'
p13
(tsS'components'
p14
(tsS'anchors'
p15
(tsss."
LayerCount: 2
Fore
SplineSet
-31 -23 m 257
 23 -26 l 257
 358 1176 l 257
 308 1180 l 257
 -31 -23 l 257
EndSplineSet
EndChar

StartChar: sterling
Encoding: 163 163 433
Width: 1047
VWidth: 0
GlyphClass: 2
Flags: W
PickledData: "(dp1
S'org.robofab.postScriptHintData'
p2
(dp3
s."
LayerCount: 2
Fore
SplineSet
288 -22 m 256
 406 -22 492 49 533 141 c 257
 611 50 708 -6 805 -6 c 256
 965 -6 1039 102 1040 249 c 256
 1040 262 1039 277 1037 291 c 257
 996 291 l 257
 995 146 942 44 803 44 c 256
 716 44 617 108 553 187 c 257
 588 291 594 403 532 562 c 257
 905 562 l 257
 905 606 l 257
 511 606 l 257
 450 723 378 825 378 939 c 256
 378 1098 502 1205 667 1205 c 256
 853 1205 930 1100 930 960 c 257
 982 960 l 257
 982 1141 874 1253 666 1253 c 256
 473 1253 321 1128 321 936 c 256
 321 830 397 705 449 606 c 257
 203 606 l 257
 203 562 l 257
 472 562 l 257
 542 407 536 291 515 221 c 257
 469 280 373 330 292 330 c 256
 157 330 74 257 74 147 c 256
 74 45 155 -22 288 -22 c 256
288 22 m 256
 188 22 125 71 125 148 c 256
 125 232 189 285 292 285 c 256
 356 285 443 240 498 174 c 257
 474 78 372 22 288 22 c 256
EndSplineSet
EndChar

StartChar: summation
Encoding: 8721 8721 434
Width: 1222
VWidth: 0
GlyphClass: 2
Flags: W
PickledData: "(dp1
S'org.robofab.postScriptHintData'
p2
(dp3
sS'com.typemytype.robofont.layerData'
p4
(dp5
S'b'
(dp6
S'name'
p7
S'summation'
p8
sS'lib'
p9
(dp10
sS'unicodes'
p11
(tsS'width'
p12
I1212
sS'contours'
p13
(tsS'components'
p14
(tsS'anchors'
p15
(tsss."
LayerCount: 2
Fore
SplineSet
120 0 m 257
 1070 0 l 257
 1070 361 l 257
 1018 361 l 257
 1018 45 l 257
 326 45 l 257
 719 583 l 257
 719 618 l 257
 336 1107 l 257
 994 1107 l 257
 994 797 l 257
 1045 797 l 257
 1045 1152 l 257
 120 1152 l 257
 120 1107 l 257
 275 1107 l 257
 670 597 l 257
 267 45 l 257
 120 45 l 257
 120 0 l 257
EndSplineSet
EndChar

StartChar: t
Encoding: 116 116 435
Width: 578
VWidth: 0
GlyphClass: 2
Flags: W
PickledData: "(dp1
S'org.robofab.postScriptHintData'
p2
(dp3
sS'com.typemytype.robofont.layerData'
p4
(dp5
S'b'
(dp6
S'name'
p7
S't'
sS'lib'
p8
(dp9
sS'unicodes'
p10
(tsS'width'
p11
I572
sS'contours'
p12
(tsS'components'
p13
(tsS'anchors'
p14
(tsss."
AnchorPoint: "top" 222 1000 basechar 0
AnchorPoint: "bot" 393 9 basechar 0
LayerCount: 2
Fore
SplineSet
443 0 m 258
 527 0 l 257
 527 45 l 257
 447 45 l 258
 309 45 251 91 251 223 c 258
 251 759 l 257
 487 759 l 257
 488 804 l 257
 251 804 l 257
 251 1102 l 257
 192 1083 l 257
 192 804 l 257
 41 804 l 257
 41 759 l 257
 192 759 l 257
 192 219 l 258
 192 50 297 0 443 0 c 258
EndSplineSet
EndChar

StartChar: thorn
Encoding: 254 254 440
Width: 1036
VWidth: 0
GlyphClass: 2
Flags: W
PickledData: "(dp1
S'org.robofab.postScriptHintData'
p2
(dp3
sS'com.typemytype.robofont.layerData'
p4
(dp5
S'b'
(dp6
S'name'
p7
S'thorn'
p8
sS'lib'
p9
(dp10
sS'unicodes'
p11
(tsS'width'
p12
I1069
sS'contours'
p13
(tsS'components'
p14
(tsS'anchors'
p15
(tsss."
LayerCount: 2
Fore
SplineSet
546 -1 m 256
 800 -1 969 161 973 423 c 256
 978 685 816 847 563 847 c 256
 451 847 321 795 225 710 c 257
 227 663 l 257
 326 749 453 801 557 801 c 256
 775 801 915 656 915 421 c 256
 915 188 769 44 542 44 c 256
 430 44 309 102 227 197 c 257
 226 147 l 257
 307 55 429 -1 546 -1 c 256
22 -378 m 257
 252 -378 l 257
 256 1152 l 257
 41 1152 l 257
 41 1104 l 257
 193 1104 l 257
 193 -332 l 257
 22 -332 l 257
 22 -378 l 257
EndSplineSet
EndChar

StartChar: three
Encoding: 51 51 441
Width: 974
VWidth: 0
GlyphClass: 2
Flags: W
PickledData: "(dp1
S'org.robofab.postScriptHintData'
p2
(dp3
sS'com.typemytype.robofont.layerData'
p4
(dp5
S'b'
(dp6
S'name'
p7
S'three'
p8
sS'lib'
p9
(dp10
sS'unicodes'
p11
(tsS'width'
p12
I964
sS'contours'
p13
(tsS'components'
p14
(tsS'anchors'
p15
(tsss."
LayerCount: 2
Fore
SplineSet
474 -20 m 256
 723 -20 864 107 864 331 c 256
 864 487 759 585 575 606 c 257
 751 626 850 722 850 874 c 256
 850 1065 709 1174 461 1174 c 256
 281 1174 149 1090 94 943 c 257
 139 922 l 257
 192 1053 307 1126 461 1126 c 256
 673 1126 793 1035 793 874 c 256
 793 717 663 629 418 629 c 257
 418 583 l 257
 669 583 805 495 805 330 c 256
 806 137 687 28 474 28 c 256
 325 28 207 101 143 233 c 257
 99 203 l 257
 160 61 296 -20 474 -20 c 256
EndSplineSet
Substitution2: "supsSuperscriptlookup10 subtable" threesuperior
EndChar

StartChar: threequarters
Encoding: 190 190 442
Width: 1570
VWidth: 0
GlyphClass: 3
Flags: W
PickledData: "(dp1
S'org.robofab.postScriptHintData'
p2
(dp3
s."
LayerCount: 2
Fore
SplineSet
344 365 m 256
 516 365 623 449 623 581 c 256
 623 687 545 762 420 779 c 257
 535 794 607 863 607 960 c 256
 607 1090 508 1174 353 1174 c 256
 237 1174 137 1120 94 1033 c 257
 131 1011 l 257
 170 1086 254 1132 350 1132 c 256
 476 1132 555 1065 555 959 c 256
 555 860 467 799 317 799 c 257
 319 756 l 257
 475 756 570 689 571 579 c 256
 571 474 484 408 345 408 c 256
 240 408 154 457 118 534 c 257
 80 508 l 257
 118 420 220 365 344 365 c 256
1265 0 m 257
 1538 0 l 257
 1538 41 l 257
 1431 41 l 257
 1431 260 l 257
 1540 260 l 257
 1540 300 l 257
 1431 300 l 257
 1431 805 l 257
 1374 805 l 257
 1006 293 l 257
 1019 260 l 257
 1384 260 l 257
 1384 41 l 257
 1265 41 l 257
 1265 0 l 257
501 -5 m 257
 551 -5 l 257
 1330 1162 l 257
 1283 1162 l 257
 501 -5 l 257
1063 300 m 257
 1384 748 l 257
 1384 300 l 257
 1063 300 l 257
EndSplineSet
Ligature2: "fracDiagonalFractionslookup11 subtable" three slash four
EndChar

StartChar: threesuperior
Encoding: 179 179 443
Width: 965
VWidth: 0
GlyphClass: 2
Flags: W
PickledData: "(dp1
S'org.robofab.postScriptHintData'
p2
(dp3
s."
LayerCount: 2
Fore
SplineSet
481 529 m 256
 651 529 759 613 759 744 c 256
 759 848 680 932 552 943 c 257
 668 957 743 1028 743 1124 c 256
 743 1256 644 1338 488 1338 c 256
 373 1338 273 1284 230 1197 c 257
 267 1175 l 257
 306 1250 390 1297 487 1297 c 256
 612 1297 691 1229 691 1124 c 256
 691 1025 603 964 453 964 c 257
 455 921 l 257
 629 921 706 854 707 745 c 256
 707 638 620 572 481 572 c 256
 376 572 290 621 254 699 c 257
 216 673 l 257
 254 585 356 529 481 529 c 256
EndSplineSet
EndChar

StartChar: tilde
Encoding: 732 732 444
Width: 450
VWidth: 0
GlyphClass: 4
Flags: W
PickledData: "(dp1
S'org.robofab.postScriptHintData'
p2
(dp3
sS'com.typemytype.robofont.layerData'
p4
(dp5
S'b'
(dp6
S'name'
p7
S'tilde'
p8
sS'lib'
p9
(dp10
sS'unicodes'
p11
(tsS'width'
p12
I429
sS'contours'
p13
(tsS'components'
p14
(tsS'anchors'
p15
(tsss."
AnchorPoint: "top" 231 791 mark 0
LayerCount: 2
Fore
SplineSet
346 937 m 256
 414 937 430 981 438 1062 c 257
 410 1062 l 257
 394 989 377 980 343 980 c 256
 284 980 196 1066 118 1066 c 256
 58 1066 32 1018 23 940 c 257
 52 940 l 257
 67 1007 80 1022 113 1022 c 256
 177 1022 256 937 346 937 c 256
EndSplineSet
EndChar

StartChar: trademark
Encoding: 8482 8482 445
Width: 1606
VWidth: 0
GlyphClass: 2
Flags: W
PickledData: "(dp1
S'org.robofab.postScriptHintData'
p2
(dp3
sS'com.typemytype.robofont.layerData'
p4
(dp5
S'b'
(dp6
S'name'
p7
S'trademark'
p8
sS'lib'
p9
(dp10
sS'unicodes'
p11
(tsS'width'
p12
I1581
sS'contours'
p13
(tsS'components'
p14
(tsS'anchors'
p15
(tsss."
LayerCount: 2
Fore
SplineSet
800 574 m 257
 990 574 l 257
 990 612 l 257
 914 612 l 257
 914 1037 l 257
 1126 624 l 257
 1132 624 l 257
 1333 1034 l 257
 1333 612 l 257
 1259 612 l 257
 1259 574 l 257
 1447 574 l 257
 1447 612 l 257
 1376 612 l 257
 1376 1114 l 257
 1447 1114 l 257
 1447 1152 l 257
 1344 1152 l 257
 1129 694 l 257
 903 1152 l 257
 800 1152 l 257
 800 1114 l 257
 871 1114 l 257
 871 612 l 257
 800 612 l 257
 800 574 l 257
292 574 m 257
 483 574 l 257
 483 610 l 257
 408 610 l 257
 408 1110 l 257
 604 1110 l 257
 604 953 l 257
 648 953 l 257
 648 1152 l 257
 133 1152 l 257
 133 953 l 257
 177 953 l 257
 177 1110 l 257
 366 1110 l 257
 366 610 l 257
 292 610 l 257
 292 574 l 257
EndSplineSet
EndChar

StartChar: two
Encoding: 50 50 446
Width: 971
VWidth: 0
GlyphClass: 2
Flags: W
PickledData: "(dp1
S'org.robofab.postScriptHintData'
p2
(dp3
sS'com.typemytype.robofont.layerData'
p4
(dp5
S'b'
(dp6
S'name'
p7
S'two'
p8
sS'lib'
p9
(dp10
sS'unicodes'
p11
(tsS'width'
p12
I964
sS'contours'
p13
(tsS'components'
p14
(tsS'anchors'
p15
(tsss."
LayerCount: 2
Fore
SplineSet
120 0 m 257
 831 0 l 257
 831 256 l 257
 783 256 l 257
 783 46 l 257
 191 46 l 257
 567 422 l 258
 742 597 829 726 829 852 c 256
 829 1050 697 1174 484 1174 c 256
 268 1174 133 1047 133 846 c 256
 133 815 139 773 150 734 c 257
 204 734 l 257
 195 779 189 820 189 843 c 256
 189 1018 303 1125 484 1125 c 256
 663 1125 771 1017 771 852 c 256
 772 741 693 622 528 458 c 258
 120 49 l 257
 120 0 l 257
EndSplineSet
Substitution2: "supsSuperscriptlookup10 subtable" twosuperior
EndChar

StartChar: twosuperior
Encoding: 178 178 447
Width: 905
VWidth: 0
GlyphClass: 2
Flags: W
PickledData: "(dp1
S'org.robofab.postScriptHintData'
p2
(dp3
sS'com.typemytype.robofont.layerData'
p4
(dp5
S'b'
(dp6
S'name'
p7
S'uni00B2'
p8
sS'lib'
p9
(dp10
sS'unicodes'
p11
(tsS'width'
p12
I897
sS'contours'
p13
(tsS'components'
p14
(tsS'anchors'
p15
(tsss."
LayerCount: 2
Fore
SplineSet
196 581 m 257
 196 540 l 257
 715 540 l 257
 714 727 l 257
 670 727 l 257
 671 581 l 257
 259 581 l 257
 533 841 l 258
 634 939 694 1014 694 1124 c 256
 694 1267 584 1338 443 1338 c 256
 270 1338 188 1226 188 1093 c 256
 188 1068 191 1042 197 1016 c 257
 244 1016 l 257
 238 1041 235 1066 235 1089 c 256
 235 1201 304 1296 443 1296 c 256
 564 1296 644 1234 645 1126 c 256
 645 1025 603 975 503 878 c 258
 196 581 l 257
EndSplineSet
EndChar

StartChar: u
Encoding: 117 117 448
Width: 1028
VWidth: 0
GlyphClass: 2
Flags: W
PickledData: "(dp1
S'org.robofab.postScriptHintData'
p2
(dp3
sS'com.typemytype.robofont.layerData'
p4
(dp5
S'b'
(dp6
S'name'
p7
S'u'
sS'lib'
p8
(dp9
sS'unicodes'
p10
(tsS'width'
p11
I1025
sS'contours'
p12
(tsS'components'
p13
(tsS'anchors'
p14
(tsss."
AnchorPoint: "top" 488 804 basechar 0
LayerCount: 2
Fore
SplineSet
441 -22 m 256
 565 -22 674 29 776 101 c 257
 782 0 l 257
 984 0 l 257
 984 43 l 257
 833 43 l 257
 833 804 l 257
 623 804 l 257
 623 759 l 257
 773 759 l 257
 773 145 l 257
 671 75 577 25 445 25 c 256
 310 25 253 116 253 213 c 258
 253 804 l 257
 37 804 l 257
 37 759 l 257
 193 759 l 257
 193 210 l 258
 193 126 238 -22 441 -22 c 256
EndSplineSet
EndChar

StartChar: underscore
Encoding: 95 95 459
Width: 815
VWidth: 0
GlyphClass: 2
Flags: W
PickledData: "(dp1
S'org.robofab.postScriptHintData'
p2
(dp3
sS'com.typemytype.robofont.layerData'
p4
(dp5
S'b'
(dp6
S'name'
p7
S'underscore'
p8
sS'lib'
p9
(dp10
sS'unicodes'
p11
(tsS'width'
p12
I1126
sS'contours'
p13
(tsS'components'
p14
(tsS'anchors'
p15
(tsss."
LayerCount: 2
Fore
SplineSet
61 -129 m 257
 754 -129 l 257
 754 -86 l 257
 61 -86 l 257
 61 -129 l 257
EndSplineSet
EndChar

StartChar: uni00B5
Encoding: 181 181 466
Width: 1028
VWidth: 0
GlyphClass: 2
Flags: W
PickledData: "(dp1
S'org.robofab.postScriptHintData'
p2
(dp3
sS'com.typemytype.robofont.layerData'
p4
(dp5
S'b'
(dp6
S'name'
p7
S'uni00B5'
p8
sS'lib'
p9
(dp10
sS'unicodes'
p11
(tsS'width'
p12
I1025
sS'contours'
p13
(tsS'components'
p14
(tsS'anchors'
p15
(tsss."
AnchorPoint: "top" 488 804 basechar 0
LayerCount: 2
Fore
SplineSet
984 0 m 257
 984 43 l 257
 833 43 l 257
 833 804 l 257
 623 804 l 257
 623 759 l 257
 773 759 l 257
 773 145 l 257
 671 75 577 25 445 25 c 256
 310 25 253 116 253 213 c 258
 253 804 l 257
 37 804 l 257
 37 759 l 257
 193 759 l 257
 193 -263 l 257
 253 -263 l 257
 253 57 l 257
 286 14 344 -22 441 -22 c 256
 565 -22 674 29 776 101 c 257
 782 0 l 257
 984 0 l 257
EndSplineSet
EndChar

StartChar: uni0237
Encoding: 567 567 532
Width: 398
VWidth: 0
GlyphClass: 2
Flags: W
PickledData: "(dp1
S'org.robofab.postScriptHintData'
p2
(dp3
sS'com.typemytype.robofont.layerData'
p4
(dp5
S'b'
(dp6
S'name'
p7
S'uni0237'
p8
sS'lib'
p9
(dp10
sS'unicodes'
p11
(tsS'width'
p12
I398
sS'contours'
p13
(tsS'components'
p14
(tsS'anchors'
p15
(tsss."
AnchorPoint: "top" 228 804 basechar 0
LayerCount: 2
Fore
SplineSet
23 -240 m 257
 95 -240 l 258
 290 -240 265 -101 265 -34 c 258
 265 804 l 257
 48 804 l 257
 48 770 l 257
 221 770 l 257
 221 -39 l 258
 221 -152 228 -208 85 -208 c 258
 23 -208 l 257
 23 -240 l 257
EndSplineSet
EndChar

StartChar: uni02C9
Encoding: 713 713 533
Width: 600
VWidth: 0
GlyphClass: 2
Flags: W
PickledData: "(dp1
S'org.robofab.postScriptHintData'
p2
(dp3
s."
LayerCount: 2
Fore
SplineSet
113 908 m 257
 491 908 l 257
 491 963 l 257
 113 963 l 257
 113 908 l 257
EndSplineSet
EndChar

StartChar: uni0307
Encoding: 775 775 534
Width: 361
VWidth: 0
GlyphClass: 4
Flags: W
PickledData: "(dp1
S'org.robofab.postScriptHintData'
p2
(dp3
sS'com.typemytype.robofont.layerData'
p4
(dp5
S'b'
(dp6
S'name'
p7
S'uni0307'
p8
sS'lib'
p9
(dp10
sS'unicodes'
p11
(tsS'width'
p12
I342
sS'contours'
p13
(tsS'components'
p14
(tsS'anchors'
p15
(tsss."
AnchorPoint: "top" 182 805 mark 0
LayerCount: 2
Fore
SplineSet
180 973 m 256
 222 973 242 1003 242 1029 c 256
 242 1056 224 1086 180 1086 c 256
 137 1086 120 1057 119 1029 c 256
 119 1004 137 973 180 973 c 256
EndSplineSet
EndChar

StartChar: uni0311
Encoding: 785 785 535
Width: 962
VWidth: 0
GlyphClass: 4
Flags: W
PickledData: "(dp1
S'org.robofab.postScriptHintData'
p2
(dp3
sS'com.typemytype.robofont.layerData'
p4
(dp5
S'b'
(dp6
S'name'
p7
S'uni0311'
p8
sS'lib'
p9
(dp10
sS'unicodes'
p11
(tsS'width'
p12
I962
sS'contours'
p13
(tsS'components'
p14
(tsS'anchors'
p15
(tsss."
AnchorPoint: "top" 488 804 mark 0
LayerCount: 2
Fore
SplineSet
352 934 m 257
 382 934 l 257
 400 996 434 1026 487 1026 c 256
 539 1026 573 996 591 934 c 257
 619 934 l 257
 604 1019 561 1060 487 1059 c 256
 415 1060 371 1019 352 934 c 257
EndSplineSet
EndChar

StartChar: uni2113
Encoding: 8467 8467 554
Width: 566
VWidth: 0
GlyphClass: 2
Flags: W
PickledData: "(dp1
S'org.robofab.postScriptHintData'
p2
(dp3
s."
LayerCount: 2
Fore
SplineSet
386 -12 m 257
 396 27 l 257
 245 27 190 42 225 264 c 258
 375 1215 l 257
 136 1215 l 257
 135 1168 l 257
 320 1168 l 257
 171 259 l 258
 137 54 168 -14 386 -12 c 257
EndSplineSet
EndChar

StartChar: uni2126
Encoding: 8486 8486 555
Width: 1426
VWidth: 0
GlyphClass: 2
Flags: W
PickledData: "(dp1
S'org.robofab.postScriptHintData'
p2
(dp3
s."
LayerCount: 2
Fore
SplineSet
182 0 m 257
 557 0 l 257
 557 48 l 257
 334 182 224 421 224 634 c 256
 224 893 388 1126 713 1126 c 256
 1038 1126 1202 893 1202 634 c 256
 1202 421 1092 182 869 48 c 257
 869 0 l 257
 1244 0 l 257
 1244 45 l 257
 927 45 l 257
 1152 177 1261 412 1261 628 c 256
 1261 912 1073 1174 713 1174 c 256
 354 1174 165 912 165 628 c 256
 165 412 274 177 499 45 c 257
 182 45 l 257
 182 0 l 257
EndSplineSet
EndChar

StartChar: uni2206
Encoding: 8710 8710 556
Width: 727
VWidth: 0
GlyphClass: 2
Flags: W
PickledData: "(dp1
S'org.robofab.postScriptHintData'
p2
(dp3
sS'com.typemytype.robofont.layerData'
p4
(dp5
S'b'
(dp6
S'name'
p7
S'uni2206'
p8
sS'lib'
p9
(dp10
sS'unicodes'
p11
(tsS'width'
p12
I679
sS'contours'
p13
(tsS'components'
p14
(tsS'anchors'
p15
(tsss."
LayerCount: 2
Fore
SplineSet
61 0 m 257
 688 0 l 257
 688 52 l 257
 391 1006 l 257
 356 1006 l 257
 61 54 l 257
 61 0 l 257
100 55 m 257
 100 55 366 921 368 929 c 257
 369 921 634 55 634 55 c 257
 100 55 l 257
EndSplineSet
EndChar

StartChar: uniFB00
Encoding: 64256 64256 559
Width: 1342
VWidth: 0
GlyphClass: 3
Flags: W
PickledData: "(dp1
S'org.robofab.postScriptHintData'
p2
(dp3
s."
LayerCount: 2
Fore
SplineSet
1119 760 m 257
 1119 805 l 257
 886 805 l 257
 886 1030 l 258
 886 1106 939 1147 986 1147 c 256
 1035 1147 1091 1133 1102 1040 c 257
 1145 1058 l 257
 1133 1167 1056 1195 985 1195 c 256
 909 1195 827 1137 827 1025 c 258
 827 805 l 257
 324 804 l 257
 324 1027 l 258
 324 1107 363 1149 428 1149 c 256
 493 1149 528 1113 537 1040 c 257
 582 1058 l 257
 574 1147 518 1195 426 1195 c 256
 320 1195 261 1133 261 1028 c 258
 261 804 l 257
 106 804 l 257
 106 759 l 257
 261 759 l 257
 261 45 l 257
 111 45 l 257
 111 0 l 257
 513 0 l 257
 513 45 l 257
 324 45 l 257
 324 759 l 257
 827 760 l 257
 827 45 l 257
 674 45 l 257
 674 0 l 257
 1078 0 l 257
 1078 45 l 257
 886 45 l 257
 886 760 l 257
 1119 760 l 257
EndSplineSet
Ligature2: "dligDiscretionaryLigatureslooku subtable" f f
EndChar

StartChar: uniFB03
Encoding: 64259 64259 560
Width: 1876
VWidth: 0
GlyphClass: 3
Flags: W
PickledData: "(dp1
S'org.robofab.postScriptHintData'
p2
(dp3
sS'com.typemytype.robofont.layerData'
p4
(dp5
S'b'
(dp6
S'name'
p7
S'uniFB03'
p8
sS'lib'
p9
(dp10
sS'unicodes'
p11
(tsS'width'
p12
I1855
sS'contours'
p13
(tsS'components'
p14
(tsS'anchors'
p15
(tsss."
LayerCount: 2
Fore
SplineSet
194 0 m 257
 599 0 l 257
 599 45 l 257
 408 45 l 257
 408 759 l 257
 845 759 l 257
 845 804 l 257
 408 804 l 257
 408 1007 l 258
 408 1106 507 1167 663 1167 c 256
 761 1167 886 1127 988 1062 c 257
 1024 1087 l 257
 915 1165 773 1211 657 1211 c 256
 471 1211 348 1132 348 1002 c 258
 348 804 l 257
 190 804 l 257
 190 759 l 257
 348 759 l 257
 348 45 l 257
 194 45 l 257
 194 0 l 257
EndSplineSet
Refer: 274 64257 N 1 0 0 1 667 0 2
Ligature2: "ligaStandardLigatureslookup16 subtable" f f i
Ligature2: "dligDiscretionaryLigatureslooku subtable" f f i
EndChar

StartChar: uniFB04
Encoding: 64260 64260 561
Width: 1780
VWidth: 0
GlyphClass: 3
Flags: W
PickledData: "(dp1
S'org.robofab.postScriptHintData'
p2
(dp3
s."
LayerCount: 2
Fore
SplineSet
97 0 m 257
 494 0 l 257
 494 45 l 257
 308 45 l 257
 308 759 l 257
 739 759 l 257
 739 804 l 257
 308 804 l 257
 308 1004 l 258
 308 1105 408 1166 564 1166 c 256
 663 1166 790 1126 890 1061 c 257
 918 1095 l 257
 810 1167 671 1211 558 1211 c 256
 371 1211 248 1132 248 1000 c 258
 248 804 l 257
 92 804 l 257
 92 759 l 257
 248 759 l 257
 248 45 l 257
 97 45 l 257
 97 0 l 257
680 0 m 257
 1101 0 l 257
 1101 45 l 257
 903 45 l 257
 903 759 l 257
 1116 759 l 257
 1116 804 l 257
 903 804 l 257
 903 965 l 258
 903 1107 1030 1194 1220 1194 c 256
 1355 1194 1441 1165 1441 1119 c 258
 1441 45 l 258
 1441 38 1447 0 1454 0 c 258
 1702 0 l 257
 1702 45 l 257
 1500 45 l 257
 1500 1118 l 258
 1500 1195 1390 1242 1221 1242 c 256
 996 1242 843 1136 843 957 c 258
 843 804 l 257
 675 804 l 257
 675 759 l 257
 843 759 l 257
 843 45 l 257
 680 45 l 257
 680 0 l 257
EndSplineSet
Ligature2: "ligaStandardLigatureslookup16 subtable" f f l
Ligature2: "dligDiscretionaryLigatureslooku subtable" f f l
EndChar

StartChar: v
Encoding: 118 118 565
Width: 1054
VWidth: 0
GlyphClass: 2
Flags: W
PickledData: "(dp1
S'org.robofab.postScriptHintData'
p2
(dp3
sS'com.typemytype.robofont.layerData'
p4
(dp5
S'b'
(dp6
S'name'
p7
S'v'
sS'lib'
p8
(dp9
sS'unicodes'
p10
(tsS'width'
p11
I1054
sS'contours'
p12
(tsS'components'
p13
(tsS'anchors'
p14
(tsss."
LayerCount: 2
Fore
SplineSet
498 0 m 257
 566 0 l 257
 894 760 l 257
 1036 760 l 257
 1036 805 l 257
 663 805 l 257
 663 760 l 257
 831 760 l 257
 534 48 l 257
 227 760 l 257
 397 760 l 257
 397 805 l 257
 17 805 l 257
 17 760 l 257
 164 760 l 257
 498 0 l 257
EndSplineSet
EndChar

StartChar: w
Encoding: 119 119 566
Width: 1558
VWidth: 0
GlyphClass: 2
Flags: W
PickledData: "(dp1
S'org.robofab.postScriptHintData'
p2
(dp3
sS'com.typemytype.robofont.layerData'
p4
(dp5
S'b'
(dp6
S'name'
p7
S'w'
sS'lib'
p8
(dp9
sS'unicodes'
p10
(tsS'width'
p11
I1574
sS'contours'
p12
(tsS'components'
p13
(tsS'anchors'
p14
(tsss."
AnchorPoint: "top" 777 804 basechar 0
LayerCount: 2
Fore
SplineSet
440 0 m 257
 513 0 l 257
 776 708 l 257
 1040 0 l 257
 1110 0 l 257
 1373 760 l 257
 1509 760 l 257
 1509 805 l 257
 1175 805 l 257
 1175 760 l 257
 1315 760 l 257
 1074 47 l 257
 807 760 l 257
 955 760 l 257
 955 805 l 257
 597 805 l 257
 597 760 l 257
 742 760 l 257
 479 45 l 257
 226 760 l 257
 380 760 l 257
 380 805 l 257
 33 805 l 257
 33 760 l 257
 165 760 l 257
 440 0 l 257
EndSplineSet
EndChar

StartChar: x
Encoding: 120 120 571
Width: 1080
VWidth: 0
GlyphClass: 2
Flags: W
PickledData: "(dp1
S'org.robofab.postScriptHintData'
p2
(dp3
sS'com.typemytype.robofont.layerData'
p4
(dp5
S'b'
(dp6
S'name'
p7
S'x'
sS'lib'
p8
(dp9
sS'unicodes'
p10
(tsS'width'
p11
I1088
sS'contours'
p12
(tsS'components'
p13
(tsS'anchors'
p14
(tsss."
LayerCount: 2
Fore
SplineSet
50 0 m 257
 414 0 l 257
 414 45 l 257
 261 45 l 257
 539 383 l 257
 825 45 l 257
 649 45 l 257
 649 0 l 257
 1035 0 l 257
 1035 45 l 257
 882 45 l 257
 573 412 l 257
 859 759 l 257
 1024 759 l 257
 1024 804 l 257
 639 804 l 257
 639 759 l 257
 801 759 l 257
 544 446 l 257
 281 759 l 257
 442 759 l 257
 442 804 l 257
 74 804 l 257
 74 759 l 257
 222 759 l 257
 509 416 l 257
 199 45 l 257
 50 45 l 257
 50 0 l 257
EndSplineSet
EndChar

StartChar: y
Encoding: 121 121 572
Width: 1071
VWidth: 0
GlyphClass: 2
Flags: W
PickledData: "(dp1
S'org.robofab.postScriptHintData'
p2
(dp3
sS'com.typemytype.robofont.layerData'
p4
(dp5
S'b'
(dp6
S'name'
p7
S'y'
sS'lib'
p8
(dp9
sS'unicodes'
p10
(tsS'width'
p11
I1072
sS'contours'
p12
(tsS'components'
p13
(tsS'anchors'
p14
(tsss."
AnchorPoint: "top" 566 804 basechar 0
LayerCount: 2
Fore
SplineSet
235 -250 m 257
 317 -250 l 258
 458 -250 502 -220 554 -96 c 257
 921 759 l 257
 1052 759 l 257
 1052 804 l 257
 690 804 l 257
 690 759 l 257
 860 759 l 257
 575 83 l 257
 275 759 l 257
 420 759 l 257
 420 804 l 257
 47 804 l 257
 47 759 l 257
 213 759 l 257
 528 62 l 257
 565 62 l 257
 501 -84 l 258
 459 -181 436 -197 315 -197 c 258
 235 -197 l 257
 235 -250 l 257
EndSplineSet
EndChar

StartChar: yen
Encoding: 165 165 576
Width: 1461
VWidth: 0
GlyphClass: 2
Flags: W
PickledData: "(dp1
S'org.robofab.postScriptHintData'
p2
(dp3
sS'com.typemytype.robofont.layerData'
p4
(dp5
S'b'
(dp6
S'name'
p7
S'yen'
p8
sS'lib'
p9
(dp10
sS'unicodes'
p11
(tsS'width'
p12
I1477
sS'contours'
p13
(tsS'components'
p14
(tsS'anchors'
p15
(tsss."
LayerCount: 2
Fore
SplineSet
308 214 m 257
 949 214 l 257
 949 254 l 257
 308 254 l 257
 308 214 l 257
308 373 m 257
 949 373 l 257
 949 413 l 257
 308 413 l 257
 308 373 l 257
EndSplineSet
Refer: 163 89 N 1 0 0 1 0 0 2
EndChar

StartChar: z
Encoding: 122 122 580
Width: 947
VWidth: 0
GlyphClass: 2
Flags: W
PickledData: "(dp1
S'org.robofab.postScriptHintData'
p2
(dp3
sS'com.typemytype.robofont.layerData'
p4
(dp5
S'b'
(dp6
S'name'
p7
S'z'
sS'lib'
p8
(dp9
sS'unicodes'
p10
(tsS'width'
p11
I955
sS'contours'
p12
(tsS'components'
p13
(tsS'anchors'
p14
(tsss."
AnchorPoint: "top" 481 804 basechar 0
LayerCount: 2
Fore
SplineSet
144 0 m 257
 791 0 l 257
 791 266 l 257
 739 266 l 257
 739 44 l 257
 212 44 l 257
 777 747 l 257
 777 805 l 257
 170 805 l 257
 170 567 l 257
 224 567 l 257
 224 761 l 257
 719 761 l 257
 144 52 l 257
 144 0 l 257
EndSplineSet
EndChar

StartChar: zero
Encoding: 48 48 584
Width: 1091
VWidth: 0
GlyphClass: 2
Flags: W
PickledData: "(dp1
S'org.robofab.postScriptHintData'
p2
(dp3
sS'com.typemytype.robofont.layerData'
p4
(dp5
S'b'
(dp6
S'name'
p7
S'zero'
p8
sS'lib'
p9
(dp10
sS'unicodes'
p11
(tsS'width'
p12
I1090
sS'contours'
p13
(tsS'components'
p14
(tsS'anchors'
p15
(tsss."
LayerCount: 2
Fore
SplineSet
545 21 m 256
 316 19 188 215 188 572 c 256
 188 931 316 1129 545 1129 c 256
 776 1129 904 931 904 572 c 256
 904 217 776 21 545 21 c 256
545 -22 m 256
 814 -22 961 190 961 572 c 256
 961 957 814 1174 545 1174 c 256
 278 1174 131 957 131 572 c 256
 131 190 278 -22 545 -22 c 256
EndSplineSet
EndChar
